$MeshFormat
2.2 0 8
$EndMeshFormat
$PhysicalNames
2
1 1 "BOUND"
2 2 "FLUID"
$EndPhysicalNames
$Nodes
484
1 0 0 0
2 1 0 0
3 1 1 0
4 0 1 0
5 0 0.9499999999997918 0
6 0 0.8999999999995836 0
7 0 0.8499999999996529 0
8 0 0.7999999999999998 0
9 0 0.7500000000003466 0
10 0 0.7000000000006934 0
11 0 0.6500000000010401 0
12 0 0.6000000000013869 0
13 0 0.5500000000017335 0
14 0 0.5000000000020587 0
15 0 0.4500000000018723 0
16 0 0.4000000000016644 0
17 0 0.3500000000014564 0
18 0 0.3000000000012483 0
19 0 0.2500000000010403 0
20 0 0.2000000000008322 0
21 0 0.1500000000006241 0
22 0 0.100000000000416 0
23 0 0.05000000000020799 0
24 0.04999999999989965 0 0
25 0.09999999999981467 0 0
26 0.1499999999997036 0 0
27 0.1999999999995579 0 0
28 0.2499999999994121 0 0
29 0.2999999999992664 0 0
30 0.3499999999991206 0 0
31 0.3999999999989749 0 0
32 0.4499999999988292 0 0
33 0.4999999999986943 0 0
34 0.5499999999988151 0 0
35 0.5999999999989468 0 0
36 0.6499999999990784 0 0
37 0.69999999999921 0 0
38 0.7499999999993417 0 0
39 0.7999999999994734 0 0
40 0.8499999999996051 0 0
41 0.8999999999997368 0 0
42 0.9499999999998684 0 0
43 1 0.04999999999989965 0
44 1 0.09999999999981467 0
45 1 0.1499999999997036 0
46 1 0.1999999999995579 0
47 1 0.2499999999994121 0
48 1 0.2999999999992664 0
49 1 0.3499999999991206 0
50 1 0.3999999999989749 0
51 1 0.4499999999988292 0
52 1 0.4999999999986943 0
53 1 0.5499999999988151 0
54 1 0.5999999999989468 0
55 1 0.6499999999990784 0
56 1 0.69999999999921 0
57 1 0.7499999999993417 0
58 1 0.7999999999994734 0
59 1 0.8499999999996051 0
60 1 0.8999999999997368 0
61 1 0.9499999999998684 0
62 0.9499999999997918 1 0
63 0.8999999999995836 1 0
64 0.8499999999996529 1 0
65 0.7999999999999998 1 0
66 0.7500000000003466 1 0
67 0.7000000000006934 1 0
68 0.6500000000010401 1 0
69 0.6000000000013869 1 0
70 0.5500000000017335 1 0
71 0.5000000000020587 1 0
72 0.4500000000018723 1 0
73 0.4000000000016644 1 0
74 0.3500000000014564 1 0
75 0.3000000000012483 1 0
76 0.2500000000010403 1 0
77 0.2000000000008322 1 0
78 0.1500000000006241 1 0
79 0.100000000000416 1 0
80 0.05000000000020799 1 0
81 0.04789250121815671 0.6212990056919377 0
82 0.04216492136948047 0.5684500861057251 0
83 0.5972173807967153 0.7762496519846652 0
84 0.6375213633046197 0.7507317263462824 0
85 0.5988163120217095 0.7360970702129661 0
86 0.9577745744566782 0.2397094349733641 0
87 0.0714458641815998 0.03716517200003933 0
88 0.1027127546389599 0.07191313372350494 0
89 0.1141727820311167 0.03542758410482227 0
90 0.4910817418557616 0.9094169911559882 0
91 0.4920630007866315 0.956299237001546 0
92 0.5302538610306721 0.9255327193930282 0
93 0.04815785975524996 0.0760305502559423 0
94 0.08505682394897707 0.1238697493456037 0
95 0.7994680384423183 0.2645411321029812 0
96 0.7540958147130589 0.2996840326878685 0
97 0.8064956181081153 0.3172253141121572 0
98 0.629610353791646 0.706688862901754 0
99 0.4435391078104276 0.8760738850786013 0
100 0.4075489209125876 0.8255674948576733 0
101 0.3814544920162111 0.8709542184549313 0
102 0.4581232835033641 0.8253500612112314 0
103 0.07605254863642774 0.9542755083361837 0
104 0.6057636269218227 0.9185825357772817 0
105 0.6554288019212319 0.9257647189094635 0
106 0.6441917819196415 0.8846646656344885 0
107 0.7169049446605067 0.05229375855312934 0
108 0.6860493610314716 0.8889253732631798 0
109 0.09542517374263694 0.8691134312302624 0
110 0.05020774837689124 0.8313388591725714 0
111 0.04434279534858909 0.8826925463041096 0
112 0.622986657823195 0.9623988348312269 0
113 0.7720832517858617 0.05290693958345505 0
114 0.7410443698909137 0.1067570630328883 0
115 0.685579650904824 0.08732383231694152 0
116 0.4773849255144173 0.09738589335615955 0
117 0.4968344602060789 0.1408880114535254 0
118 0.5377841048223452 0.1175080409375822 0
119 0.5227435106986978 0.1739200904420098 0
120 0.5898905220208591 0.59977312656981 0
121 0.5586595240308753 0.6516252435475021 0
122 0.6060436960283593 0.6569172749003092 0
123 0.5314088816399012 0.5082283522877106 0
124 0.5747265201570519 0.4899989372816449 0
125 0.5359069623707137 0.4605514025425357 0
126 0.8230346264327235 0.04802110742016275 0
127 0.8763699362772107 0.04117721835721333 0
128 0.3724474909379572 0.08365544184581475 0
129 0.3752523855213919 0.03700096681307019 0
130 0.3284243443619064 0.04848317467953567 0
131 0.04153701094576812 0.9265945295689986 0
132 0.6544990789509363 0.659367278692115 0
133 0.6723795099541076 0.7011114052059365 0
134 0.1116341023820058 0.9206277961065985 0
135 0.1181729659613336 0.9693609174315645 0
136 0.1523357040197956 0.9407119460183568 0
137 0.421889733530748 0.9592045919806473 0
138 0.4160019395652353 0.9075459105762924 0
139 0.3835617810505223 0.9546828117101597 0
140 0.694992360828774 0.2890309044240544 0
141 0.6475562350441357 0.3027603173493953 0
142 0.6687075716308151 0.3331860079664584 0
143 0.6415024959970421 0.2616398270176984 0
144 0.2735013477763693 0.06092418472230621 0
145 0.3210802667422639 0.09999120550823948 0
146 0.3089708099360193 0.1538024979167946 0
147 0.3659450627473572 0.1411427220963775 0
148 0.3730272233984938 0.9188115490382764 0
149 0.3404517887686205 0.9425348189467491 0
150 0.3314631840867163 0.8505332127384859 0
151 0.3327753676318175 0.8950259379054739 0
152 0.9628487921903405 0.05237874314640423 0
153 0.9277890861471321 0.03298835639123476 0
154 0.7453780654975052 0.2411474331360818 0
155 0.6884517804364758 0.2314138943842795 0
156 0.4581022804949669 0.3073499543219562 0
157 0.4750994583893868 0.352613878216419 0
158 0.5142746961935795 0.3095613897094223 0
159 0.525477910613855 0.3650443337662306 0
160 0.9106096289726456 0.07594976448156476 0
161 0.856535330188366 0.08596241975750929 0
162 0.893508905634678 0.1188029754683729 0
163 0.1531348801950712 0.5013963362065801 0
164 0.2107218477180904 0.4888628563706267 0
165 0.1722994501915385 0.4497069666791639 0
166 0.2059405723243458 0.5446557615099921 0
167 0.4427937305390786 0.3885154256804836 0
168 0.4251064921591937 0.3443376281153437 0
169 0.5744779801472779 0.444990887355701 0
170 0.1523303338747233 0.8819336050062249 0
171 0.1352314502276834 0.8219911076451879 0
172 0.35921792440263 0.4538204292392403 0
173 0.3707253075113303 0.49630546820886 0
174 0.408425904184668 0.4608370095180726 0
175 0.04625632580748907 0.4831324561543643 0
176 0.04196775318340926 0.4261139430315796 0
177 0.2059409993443315 0.8787761830528374 0
178 0.1917140236392337 0.9150939139730339 0
179 0.1941666955081225 0.8331824281425411 0
180 0.9165841205618719 0.8245703537186095 0
181 0.9122339746700425 0.8820584092463668 0
182 0.9574160613990097 0.8650735533289641 0
183 0.8819036957068511 0.8555283438856608 0
184 0.7185939059961837 0.7098307366474237 0
185 0.6938279304501703 0.6667469424311578 0
186 0.4926309253865561 0.4559920695836153 0
187 0.477751454016357 0.505748134651413 0
188 0.7345470900773342 0.6544107527461451 0
189 0.2075378296571294 0.9604696348744776 0
190 0.1347197117693519 0.2324605265325754 0
191 0.1546966410497957 0.1871865404344692 0
192 0.09537066349751057 0.1847553131516875 0
193 0.5908760544961225 0.53414760930515 0
194 0.6385083640045762 0.5267637736934553 0
195 0.6161377762048909 0.4815561625465145 0
196 0.1232786415736641 0.1473877953373595 0
197 0.3639903630341637 0.8241868069366991 0
198 0.2442650746523186 0.6264434221825569 0
199 0.2781905165221105 0.6022699068804493 0
200 0.2465017590344269 0.5753254981700251 0
201 0.7332308610194493 0.4076503030759101 0
202 0.6834663031288702 0.405095358009167 0
203 0.7026323105036473 0.4600915265843789 0
204 0.452429253809095 0.9347567694943034 0
205 0.8120073498049961 0.8983554847277567 0
206 0.8128722448210848 0.840415808377305 0
207 0.7675426576925869 0.8652746286072928 0
208 0.8408366333116786 0.9508889695817484 0
209 0.865600397608092 0.8971125127734231 0
210 0.8445822315358217 0.859590696732109 0
211 0.08906640199293292 0.7876069077068999 0
212 0.1389725127116537 0.7684430032928846 0
213 0.547694813988731 0.56079254687157 0
214 0.5523347553556052 0.6069533028019405 0
215 0.6704254455586796 0.496084093337012 0
216 0.2435520806139255 0.908549045583664 0
217 0.2460238735962055 0.8550189903420973 0
218 0.1669297018735205 0.7264919510941463 0
219 0.1122886359634481 0.7322684307802833 0
220 0.5400478033013414 0.6951020706199352 0
221 0.5089255885645229 0.6631472279138151 0
222 0.632007187183264 0.2083055424860346 0
223 0.6684533289474475 0.175475443490716 0
224 0.6247490669249963 0.1581453912202061 0
225 0.5805190504080244 0.6984801562833991 0
226 0.4167208296940378 0.5658293327521781 0
227 0.3689041108295729 0.5807198219509733 0
228 0.4172975783018491 0.6173322652287621 0
229 0.6239228912831217 0.8306935280000491 0
230 0.6734454194400714 0.8383741252449193 0
231 0.609981103254263 0.4306942165042148 0
232 0.652618575015446 0.4423011138243987 0
233 0.6359689988676548 0.3972267710960764 0
234 0.9147735297239086 0.5063017450167422 0
235 0.8747179000721901 0.4611788782853017 0
236 0.8651657541868985 0.5216595963089263 0
237 0.8247847317898254 0.502766525503197 0
238 0.5882780474203883 0.868192526271089 0
239 0.6239622782237395 0.3474921751593837 0
240 0.567000629628623 0.3288020377791417 0
241 0.5784910019915296 0.3871297366298352 0
242 0.1459453583032903 0.6806393488681819 0
243 0.1831276331076412 0.7796068524540996 0
244 0.219782935783948 0.7366335869893321 0
245 0.953797233844518 0.5309115222206642 0
246 0.9521788731944417 0.5840218095111847 0
247 0.6672947318180429 0.3706480270708949 0
248 0.7090523415489817 0.3526544064033423 0
249 0.425586158980727 0.5116289954230528 0
250 0.4981341230107378 0.8589257497997889 0
251 0.9249713826586342 0.4596612853511493 0
252 0.4990359789492582 0.5534109941352143 0
253 0.3679012743917782 0.1908605339069442 0
254 0.3194746503635839 0.2074256505860496 0
255 0.349414587704284 0.2413849885106033 0
256 0.9511835832565074 0.9106499204967093 0
257 0.9503165954573011 0.9666776152952352 0
258 0.3975827042969954 0.2403380969382684 0
259 0.05325694414811455 0.7366736740139304 0
260 0.03839428615827477 0.7866478031009159 0
261 0.3858334279087454 0.4221013030319309 0
262 0.3318009556239456 0.4241835712691083 0
263 0.9007159894879242 0.9394157712748343 0
264 0.6891200676911926 0.6090145388484898 0
265 0.6812634425895709 0.548083868237276 0
266 0.6376118944561782 0.5722512606971557 0
267 0.3539887301411229 0.3872734106180813 0
268 0.7507330855070318 0.6001493802596007 0
269 0.725104361628444 0.5616175059647578 0
270 0.362743299000956 0.3365776993285275 0
271 0.4013858317080921 0.3841551333469069 0
272 0.7876441090361576 0.1551706033527306 0
273 0.7982499728002568 0.09836613403529426 0
274 0.8389724978593748 0.1326958231180634 0
275 0.4277718286589888 0.05503382849803294 0
276 0.218791803202326 0.04993247928858524 0
277 0.884380181545348 0.7767409825477172 0
278 0.8606174046850013 0.8229828528381797 0
279 0.4190967130795955 0.1163697290814469 0
280 0.4640140011121331 0.5899979821519419 0
281 0.459430610874079 0.5469691858225789 0
282 0.2905101364263462 0.5602404911587962 0
283 0.3267219998672528 0.6021133862402006 0
284 0.3338721745761166 0.5375665995376693 0
285 0.7849106348865378 0.9529665420673483 0
286 0.7571876749097429 0.4527151785409207 0
287 0.7806866242478918 0.4905741944388549 0
288 0.8152741455505474 0.4425506048064948 0
289 0.7844679186750947 0.4074298098247766 0
290 0.6764208730018957 0.7429891863354789 0
291 0.4472599541899137 0.47186073107448 0
292 0.3803669567116156 0.5381860114006329 0
293 0.6360129157901424 0.6157246478650422 0
294 0.3084567891531607 0.3749613366138181 0
295 0.3154130178378165 0.3309535692599843 0
296 0.2740129656927704 0.3398796190838774 0
297 0.2764961098989681 0.2966055007567999 0
298 0.2891535180555131 0.8750980464493299 0
299 0.2935195022524115 0.9219959529868158 0
300 0.2817126166218729 0.8264852680449368 0
301 0.4210909466831615 0.6683229163300977 0
302 0.4687782339198675 0.6371273103344026 0
303 0.3741233874111771 0.6368220560154076 0
304 0.3795503546315713 0.6819398033302922 0
305 0.03512537392610537 0.9661122807036714 0
306 0.03390155196642783 0.0335993317820108 0
307 0.452848254766488 0.1437582150779088 0
308 0.2500491326872355 0.6854992858603225 0
309 0.2865699485381141 0.6446759395157164 0
310 0.04405128953297666 0.2149754455506284 0
311 0.7173636504073806 0.1906616188352473 0
312 0.1425579119065853 0.3161917826927988 0
313 0.1657117363480839 0.2754239119003155 0
314 0.1050040999002247 0.2861162219422014 0
315 0.8558062109582486 0.7297074305943501 0
316 0.8080992442348495 0.7249984251374 0
317 0.823381953939029 0.7810509317676774 0
318 0.767262550344969 0.7543493741811026 0
319 0.09080270230005749 0.6937758591799388 0
320 0.04712553386432927 0.6740018663861482 0
321 0.4843140715993552 0.04307007960893372 0
322 0.07814040604110906 0.4510563257570722 0
323 0.09890023234035319 0.4902562683962071 0
324 0.1196709337744742 0.4491435719728371 0
325 0.7233635332914186 0.8523353987607487 0
326 0.4378493102859125 0.4261253338325889 0
327 0.2429952398421701 0.7934055678081564 0
328 0.07548788805711794 0.9083713686169977 0
329 0.9644999077570052 0.8236426810058386 0
330 0.8956464894882687 0.56520691847576 0
331 0.9053128926227185 0.629536941183906 0
332 0.6701544654343521 0.9706738879450578 0
333 0.6966774417198882 0.9401138547209635 0
334 0.2913639304159229 0.783324570180735 0
335 0.5316245169052182 0.4200148686294609 0
336 0.4866153980843332 0.3994156645926327 0
337 0.9440414689963652 0.6780686675972933 0
338 0.958316624008823 0.6284754741938106 0
339 0.2885814331257459 0.5112810212710968 0
340 0.09539703922110532 0.6452959758511501 0
341 0.3168827262122246 0.4757937641344918 0
342 0.04604203573845234 0.2743680000127761 0
343 0.03180833633571387 0.3227644280175324 0
344 0.06674740358903043 0.3202608128515005 0
345 0.189363492181616 0.2317185487482117 0
346 0.2338582133075276 0.2276923716260566 0
347 0.2116028991017533 0.1826844601028054 0
348 0.2719881839896272 0.2016665251923553 0
349 0.9468429442576614 0.775802000539405 0
350 0.372102262874733 0.7692902186897027 0
351 0.1046303025387107 0.3488620892535271 0
352 0.1596095954892233 0.3560836514514716 0
353 0.08631276863304328 0.2381998269054222 0
354 0.7676368329626433 0.9143122872839928 0
355 0.7389829932117559 0.9542425108640125 0
356 0.7294490287198241 0.9010766373440674 0
357 0.9087241877034642 0.2276545519500327 0
358 0.9559799133100734 0.1918335913932846 0
359 0.9074439145317226 0.1765904702770773 0
360 0.4260840177452678 0.7875497763541068 0
361 0.2606137657733786 0.481223956383622 0
362 0.2785835829443959 0.4263472043241234 0
363 0.2514985362888951 0.5286996258733938 0
364 0.3270319867167549 0.8025834119589823 0
365 0.3995283639805772 0.7168746264981474 0
366 0.5139161120643231 0.608729763026274 0
367 0.3683702223600925 0.2818787614088369 0
368 0.4084759456627211 0.2969602130997868 0
369 0.3290212089465329 0.291178955800329 0
370 0.8312088227365551 0.1764129890098309 0
371 0.8261566561398204 0.681266813477192 0
372 0.2221877148280168 0.2762993104372008 0
373 0.04625224343205035 0.3691933250314663 0
374 0.8579809830121928 0.2101759329686487 0
375 0.8668764833075291 0.1614183843961855 0
376 0.1875902648651135 0.3170556630241449 0
377 0.4389506756641211 0.2712791384857878 0
378 0.4835377954823868 0.2647455400344096 0
379 0.9601845106604888 0.479938660322789 0
380 0.3379794264778274 0.6625796417343048 0
381 0.9238378032046602 0.2781306355017477 0
382 0.4711124520737477 0.6805991326144949 0
383 0.3075774906268236 0.6973133815596695 0
384 0.3203129626864324 0.7526738092465375 0
385 0.6730075990631397 0.04632135871512433 0
386 0.9546459500338061 0.4288907186905749 0
387 0.9109850254371223 0.4055195533854092 0
388 0.8616644163864591 0.4088079861526881 0
389 0.1708183573393159 0.1433692676306302 0
390 0.8017585154721333 0.2127068624919836 0
391 0.3015844080776178 0.2483800521405677 0
392 0.2748793756932373 0.7370590029434014 0
393 0.1898312671282062 0.09700124261399071 0
394 0.2082340079422988 0.1393310998592283 0
395 0.2353641386352353 0.09805144808802602 0
396 0.7691018706024851 0.8152402561247636 0
397 0.252261397902092 0.1478268672286855 0
398 0.9422896529110779 0.1491470027907518 0
399 0.9515428302127374 0.1077130811523163 0
400 0.2000580735945644 0.6518654605238325 0
401 0.2042210175374602 0.5990244421449956 0
402 0.1525470523141365 0.6211009590942337 0
403 0.859966925088527 0.2749767893671246 0
404 0.8551857608329163 0.3305651020159711 0
405 0.242654972831118 0.3795142824130241 0
406 0.7092990525472131 0.7921468947087894 0
407 0.3528418101144873 0.7134452469933146 0
408 0.6512329509084261 0.1211679209985858 0
409 0.6996241435468605 0.136677591259517 0
410 0.8839405642702561 0.6826669576775544 0
411 0.2288254015771474 0.4385689318290931 0
412 0.596305979736684 0.1091320396384936 0
413 0.6328001932184473 0.06019960902101507 0
414 0.2631117075627113 0.2520186919972688 0
415 0.09291041983728097 0.8335921565130052 0
416 0.5588442043420903 0.7335488190808617 0
417 0.07244975975459425 0.5317537691704719 0
418 0.03179382134763156 0.526445452732909 0
419 0.1996160442436876 0.3590524201769099 0
420 0.04462313694955385 0.1647105197182636 0
421 0.04398802431381508 0.1156664659913745 0
422 0.5761072520703506 0.8176471606034982 0
423 0.2771925446939742 0.1119392117886082 0
424 0.6530143515984772 0.7885198049370394 0
425 0.1008534458965003 0.5812022890359116 0
426 0.1531817318935302 0.5640995788403058 0
427 0.4181827158523646 0.1772422736143888 0
428 0.4736615842755953 0.1799089851032508 0
429 0.8580135735261725 0.6073838260257043 0
430 0.8360897733467427 0.557236240285732 0
431 0.8014495653585711 0.5929358441443244 0
432 0.5734751719180329 0.05745211147796059 0
433 0.5254960204754313 0.03408446168279122 0
434 0.5196908588622597 0.06990011732706114 0
435 0.2353516437062676 0.324903745971827 0
436 0.4467050911815502 0.2274063901122378 0
437 0.08115754381980679 0.4033015512430383 0
438 0.1343930900589662 0.3991439835549606 0
439 0.7268341893249468 0.5079946316446308 0
440 0.8591059130607839 0.649263472511816 0
441 0.5039643539843136 0.2194011019098808 0
442 0.7615162981489969 0.1999935869451828 0
443 0.7407582858669981 0.159261763795707 0
444 0.7615787479298248 0.363286212210479 0
445 0.2007165314998838 0.6977388617758672 0
446 0.9565012219143088 0.3771974090130099 0
447 0.1372666871724762 0.1066244675971899 0
448 0.1170657031553559 0.5350097903613311 0
449 0.1601765107443398 0.05236127903743237 0
450 0.952490424613698 0.3221607452327527 0
451 0.423135010573539 0.7513579006703557 0
452 0.2651629993244546 0.9589325385462897 0
453 0.1895664257319469 0.3970117060174371 0
454 0.5718967046078214 0.9565252694475337 0
455 0.5658445262510052 0.9105871688892451 0
456 0.879510730135042 0.3655126471495704 0
457 0.5846693289481643 0.2417235237447048 0
458 0.8986462625460115 0.3213265593397323 0
459 0.5026650461986388 0.8133685123029107 0
460 0.4695106108621152 0.7661832063415712 0
461 0.7838157364716178 0.6434102962600801 0
462 0.9660262909003627 0.7258231716256551 0
463 0.9132202438435993 0.7281584207007692 0
464 0.5286131480203287 0.9680889419659564 0
465 0.8234097527726281 0.3743816608997242 0
466 0.532025067222227 0.2555294835771394 0
467 0.5594916842095244 0.2854729888594891 0
468 0.5462125445153935 0.2122723572049294 0
469 0.7767741931977998 0.5433996380233945 0
470 0.9654244443727424 0.2829557321405589 0
471 0.5388226537271501 0.8365906433060289 0
472 0.9208859314012257 0.3566134367712268 0
473 0.8730781481398393 0.9708168714805476 0
474 0.6013380835414385 0.2966047797177217 0
475 0.5780538269116638 0.1738780250084738 0
476 0.5354561664640913 0.8849004573787782 0
477 0.8188162096997121 0.6343863648169907 0
478 0.5322952871243776 0.7765094534556591 0
479 0.7711918143478094 0.6973126220301178 0
480 0.3098268582770213 0.9646926620397691 0
481 0.5041693924003735 0.7188545119285447 0
482 0.4484497990059721 0.7168916729751206 0
483 0.8291132910963042 0.2415063592966529 0
484 0.7145275748389996 0.7518948735630249 0
$EndNodes
$Elements
966
1 1 2 1 1 4 5
2 1 2 1 1 5 6
3 1 2 1 1 6 7
4 1 2 1 1 7 8
5 1 2 1 1 8 9
6 1 2 1 1 9 10
7 1 2 1 1 10 11
8 1 2 1 1 11 12
9 1 2 1 1 12 13
10 1 2 1 1 13 14
11 1 2 1 1 14 15
12 1 2 1 1 15 16
13 1 2 1 1 16 17
14 1 2 1 1 17 18
15 1 2 1 1 18 19
16 1 2 1 1 19 20
17 1 2 1 1 20 21
18 1 2 1 1 21 22
19 1 2 1 1 22 23
20 1 2 1 1 23 1
21 1 2 1 2 1 24
22 1 2 1 2 24 25
23 1 2 1 2 25 26
24 1 2 1 2 26 27
25 1 2 1 2 27 28
26 1 2 1 2 28 29
27 1 2 1 2 29 30
28 1 2 1 2 30 31
29 1 2 1 2 31 32
30 1 2 1 2 32 33
31 1 2 1 2 33 34
32 1 2 1 2 34 35
33 1 2 1 2 35 36
34 1 2 1 2 36 37
35 1 2 1 2 37 38
36 1 2 1 2 38 39
37 1 2 1 2 39 40
38 1 2 1 2 40 41
39 1 2 1 2 41 42
40 1 2 1 2 42 2
41 1 2 1 3 2 43
42 1 2 1 3 43 44
43 1 2 1 3 44 45
44 1 2 1 3 45 46
45 1 2 1 3 46 47
46 1 2 1 3 47 48
47 1 2 1 3 48 49
48 1 2 1 3 49 50
49 1 2 1 3 50 51
50 1 2 1 3 51 52
51 1 2 1 3 52 53
52 1 2 1 3 53 54
53 1 2 1 3 54 55
54 1 2 1 3 55 56
55 1 2 1 3 56 57
56 1 2 1 3 57 58
57 1 2 1 3 58 59
58 1 2 1 3 59 60
59 1 2 1 3 60 61
60 1 2 1 3 61 3
61 1 2 1 4 3 62
62 1 2 1 4 62 63
63 1 2 1 4 63 64
64 1 2 1 4 64 65
65 1 2 1 4 65 66
66 1 2 1 4 66 67
67 1 2 1 4 67 68
68 1 2 1 4 68 69
69 1 2 1 4 69 70
70 1 2 1 4 70 71
71 1 2 1 4 71 72
72 1 2 1 4 72 73
73 1 2 1 4 73 74
74 1 2 1 4 74 75
75 1 2 1 4 75 76
76 1 2 1 4 76 77
77 1 2 1 4 77 78
78 1 2 1 4 78 79
79 1 2 1 4 79 80
80 1 2 1 4 80 4
81 2 2 2 1 12 82 81
82 2 2 2 1 12 81 11
83 2 2 2 1 83 85 84
84 2 2 2 1 86 46 47
85 2 2 2 1 87 89 88
86 2 2 2 1 90 92 91
87 2 2 2 1 93 88 94
88 2 2 2 1 95 97 96
89 2 2 2 1 84 85 98
90 2 2 2 1 99 101 100
91 2 2 2 1 99 100 102
92 2 2 2 1 103 79 80
93 2 2 2 1 104 106 105
94 2 2 2 1 38 107 37
95 2 2 2 1 105 106 108
96 2 2 2 1 109 111 110
97 2 2 2 1 104 105 112
98 2 2 2 1 113 114 107
99 2 2 2 1 107 114 115
100 2 2 2 1 116 118 117
101 2 2 2 1 117 118 119
102 2 2 2 1 120 122 121
103 2 2 2 1 123 125 124
104 2 2 2 1 40 127 126
105 2 2 2 1 40 126 39
106 2 2 2 1 128 130 129
107 2 2 2 1 111 131 6
108 2 2 2 1 129 130 30
109 2 2 2 1 98 122 132
110 2 2 2 1 98 132 133
111 2 2 2 1 134 136 135
112 2 2 2 1 134 135 103
113 2 2 2 1 137 139 138
114 2 2 2 1 140 142 141
115 2 2 2 1 140 141 143
116 2 2 2 1 130 145 144
117 2 2 2 1 145 147 146
118 2 2 2 1 148 139 149
119 2 2 2 1 101 151 150
120 2 2 2 1 43 152 2
121 2 2 2 1 152 153 42
122 2 2 2 1 152 42 2
123 2 2 2 1 140 155 154
124 2 2 2 1 156 158 157
125 2 2 2 1 157 158 159
126 2 2 2 1 160 162 161
127 2 2 2 1 163 165 164
128 2 2 2 1 160 161 127
129 2 2 2 1 163 164 166
130 2 2 2 1 167 168 157
131 2 2 2 1 124 125 169
132 2 2 2 1 109 171 170
133 2 2 2 1 157 168 156
134 2 2 2 1 172 174 173
135 2 2 2 1 15 176 175
136 2 2 2 1 15 175 14
137 2 2 2 1 177 178 170
138 2 2 2 1 177 170 179
139 2 2 2 1 179 170 171
140 2 2 2 1 180 182 181
141 2 2 2 1 180 181 183
142 2 2 2 1 133 185 184
143 2 2 2 1 186 123 187
144 2 2 2 1 184 185 188
145 2 2 2 1 78 189 77
146 2 2 2 1 190 192 191
147 2 2 2 1 193 195 194
148 2 2 2 1 192 196 191
149 2 2 2 1 192 94 196
150 2 2 2 1 101 150 197
151 2 2 2 1 198 200 199
152 2 2 2 1 201 203 202
153 2 2 2 1 137 138 204
154 2 2 2 1 205 207 206
155 2 2 2 1 208 205 209
156 2 2 2 1 210 205 206
157 2 2 2 1 209 205 210
158 2 2 2 1 211 212 171
159 2 2 2 1 120 214 213
160 2 2 2 1 194 195 215
161 2 2 2 1 216 177 217
162 2 2 2 1 212 219 218
163 2 2 2 1 220 221 121
164 2 2 2 1 222 224 223
165 2 2 2 1 220 121 225
166 2 2 2 1 178 136 170
167 2 2 2 1 226 228 227
168 2 2 2 1 229 230 106
169 2 2 2 1 231 233 232
170 2 2 2 1 234 236 235
171 2 2 2 1 235 236 237
172 2 2 2 1 229 106 238
173 2 2 2 1 239 241 240
174 2 2 2 1 219 242 218
175 2 2 2 1 218 244 243
176 2 2 2 1 178 216 189
177 2 2 2 1 216 178 177
178 2 2 2 1 245 53 246
179 2 2 2 1 247 142 248
180 2 2 2 1 173 174 249
181 2 2 2 1 250 99 102
182 2 2 2 1 251 234 235
183 2 2 2 1 123 213 252
184 2 2 2 1 212 218 243
185 2 2 2 1 253 255 254
186 2 2 2 1 253 254 146
187 2 2 2 1 256 61 257
188 2 2 2 1 253 146 147
189 2 2 2 1 60 61 256
190 2 2 2 1 247 202 233
191 2 2 2 1 253 258 255
192 2 2 2 1 257 3 62
193 2 2 2 1 257 61 3
194 2 2 2 1 211 219 212
195 2 2 2 1 259 211 260
196 2 2 2 1 259 219 211
197 2 2 2 1 233 202 232
198 2 2 2 1 246 53 54
199 2 2 2 1 172 262 261
200 2 2 2 1 263 208 209
201 2 2 2 1 264 266 265
202 2 2 2 1 261 262 267
203 2 2 2 1 268 264 269
204 2 2 2 1 270 271 267
205 2 2 2 1 114 273 272
206 2 2 2 1 273 274 272
207 2 2 2 1 129 275 128
208 2 2 2 1 60 256 182
209 2 2 2 1 182 256 181
210 2 2 2 1 28 276 27
211 2 2 2 1 276 28 144
212 2 2 2 1 101 197 100
213 2 2 2 1 232 215 195
214 2 2 2 1 277 180 278
215 2 2 2 1 180 183 278
216 2 2 2 1 263 209 181
217 2 2 2 1 128 275 279
218 2 2 2 1 269 264 265
219 2 2 2 1 228 226 280
220 2 2 2 1 280 226 281
221 2 2 2 1 282 284 283
222 2 2 2 1 285 205 208
223 2 2 2 1 208 64 65
224 2 2 2 1 208 65 285
225 2 2 2 1 286 288 287
226 2 2 2 1 287 288 237
227 2 2 2 1 288 286 289
228 2 2 2 1 111 7 110
229 2 2 2 1 260 211 110
230 2 2 2 1 110 7 8
231 2 2 2 1 110 8 260
232 2 2 2 1 290 98 133
233 2 2 2 1 186 187 291
234 2 2 2 1 227 284 292
235 2 2 2 1 263 257 63
236 2 2 2 1 293 120 266
237 2 2 2 1 99 250 90
238 2 2 2 1 257 263 256
239 2 2 2 1 284 227 283
240 2 2 2 1 294 296 295
241 2 2 2 1 87 25 89
242 2 2 2 1 41 127 40
243 2 2 2 1 295 296 297
244 2 2 2 1 60 182 59
245 2 2 2 1 172 261 174
246 2 2 2 1 298 299 216
247 2 2 2 1 298 217 300
248 2 2 2 1 217 298 216
249 2 2 2 1 285 65 66
250 2 2 2 1 111 6 7
251 2 2 2 1 183 181 209
252 2 2 2 1 181 256 263
253 2 2 2 1 228 302 301
254 2 2 2 1 303 228 301
255 2 2 2 1 304 303 301
256 2 2 2 1 305 5 131
257 2 2 2 1 306 24 87
258 2 2 2 1 307 116 117
259 2 2 2 1 178 189 136
260 2 2 2 1 198 309 308
261 2 2 2 1 78 136 189
262 2 2 2 1 307 279 116
263 2 2 2 1 44 152 43
264 2 2 2 1 20 310 19
265 2 2 2 1 63 257 62
266 2 2 2 1 131 5 6
267 2 2 2 1 260 8 9
268 2 2 2 1 87 24 25
269 2 2 2 1 226 227 292
270 2 2 2 1 275 116 279
271 2 2 2 1 154 155 311
272 2 2 2 1 312 314 313
273 2 2 2 1 315 317 316
274 2 2 2 1 316 317 318
275 2 2 2 1 219 259 319
276 2 2 2 1 319 259 320
277 2 2 2 1 116 275 321
278 2 2 2 1 322 324 323
279 2 2 2 1 325 108 230
280 2 2 2 1 174 261 326
281 2 2 2 1 217 327 300
282 2 2 2 1 131 111 328
283 2 2 2 1 131 328 103
284 2 2 2 1 59 182 329
285 2 2 2 1 246 331 330
286 2 2 2 1 209 210 183
287 2 2 2 1 59 329 58
288 2 2 2 1 217 179 327
289 2 2 2 1 105 333 332
290 2 2 2 1 300 327 334
291 2 2 2 1 105 332 112
292 2 2 2 1 244 327 243
293 2 2 2 1 327 179 243
294 2 2 2 1 335 186 336
295 2 2 2 1 337 338 55
296 2 2 2 1 163 324 165
297 2 2 2 1 261 271 326
298 2 2 2 1 339 284 282
299 2 2 2 1 242 319 340
300 2 2 2 1 341 172 173
301 2 2 2 1 342 344 343
302 2 2 2 1 342 343 18
303 2 2 2 1 345 347 346
304 2 2 2 1 324 163 323
305 2 2 2 1 346 347 348
306 2 2 2 1 180 277 349
307 2 2 2 1 271 167 326
308 2 2 2 1 305 131 103
309 2 2 2 1 197 350 100
310 2 2 2 1 305 103 80
311 2 2 2 1 351 312 352
312 2 2 2 1 351 314 312
313 2 2 2 1 351 344 314
314 2 2 2 1 38 113 107
315 2 2 2 1 39 113 38
316 2 2 2 1 192 190 353
317 2 2 2 1 353 190 314
318 2 2 2 1 207 205 354
319 2 2 2 1 285 66 355
320 2 2 2 1 355 66 67
321 2 2 2 1 207 354 356
322 2 2 2 1 278 183 210
323 2 2 2 1 306 87 93
324 2 2 2 1 306 93 23
325 2 2 2 1 357 359 358
326 2 2 2 1 39 126 113
327 2 2 2 1 113 126 273
328 2 2 2 1 357 358 86
329 2 2 2 1 160 127 153
330 2 2 2 1 153 127 41
331 2 2 2 1 360 100 350
332 2 2 2 1 361 362 341
333 2 2 2 1 341 362 262
334 2 2 2 1 164 361 363
335 2 2 2 1 19 310 342
336 2 2 2 1 19 342 18
337 2 2 2 1 350 197 364
338 2 2 2 1 365 304 301
339 2 2 2 1 260 9 259
340 2 2 2 1 259 9 10
341 2 2 2 1 302 280 366
342 2 2 2 1 367 368 270
343 2 2 2 1 367 270 369
344 2 2 2 1 168 271 270
345 2 2 2 1 272 274 370
346 2 2 2 1 316 371 315
347 2 2 2 1 168 270 368
348 2 2 2 1 313 345 372
349 2 2 2 1 343 17 18
350 2 2 2 1 343 344 373
351 2 2 2 1 17 343 373
352 2 2 2 1 359 357 374
353 2 2 2 1 359 374 375
354 2 2 2 1 370 375 374
355 2 2 2 1 376 312 313
356 2 2 2 1 156 368 377
357 2 2 2 1 217 177 179
358 2 2 2 1 156 377 378
359 2 2 2 1 379 234 251
360 2 2 2 1 210 206 278
361 2 2 2 1 245 330 234
362 2 2 2 1 234 379 245
363 2 2 2 1 245 52 53
364 2 2 2 1 56 337 55
365 2 2 2 1 380 303 304
366 2 2 2 1 315 277 317
367 2 2 2 1 379 52 245
368 2 2 2 1 302 366 221
369 2 2 2 1 86 381 357
370 2 2 2 1 274 375 370
371 2 2 2 1 382 302 221
372 2 2 2 1 380 383 309
373 2 2 2 1 309 383 308
374 2 2 2 1 364 384 350
375 2 2 2 1 107 385 37
376 2 2 2 1 37 385 36
377 2 2 2 1 384 364 334
378 2 2 2 1 108 106 230
379 2 2 2 1 26 89 25
380 2 2 2 1 130 29 30
381 2 2 2 1 251 387 386
382 2 2 2 1 387 251 235
383 2 2 2 1 95 96 154
384 2 2 2 1 388 387 235
385 2 2 2 1 191 196 389
386 2 2 2 1 390 95 154
387 2 2 2 1 391 254 255
388 2 2 2 1 146 254 348
389 2 2 2 1 254 391 348
390 2 2 2 1 384 334 392
391 2 2 2 1 128 145 130
392 2 2 2 1 355 67 333
393 2 2 2 1 291 174 326
394 2 2 2 1 277 278 317
395 2 2 2 1 317 278 206
396 2 2 2 1 239 233 241
397 2 2 2 1 142 239 141
398 2 2 2 1 239 142 247
399 2 2 2 1 145 128 147
400 2 2 2 1 233 239 247
401 2 2 2 1 72 204 91
402 2 2 2 1 389 347 191
403 2 2 2 1 72 137 204
404 2 2 2 1 72 91 71
405 2 2 2 1 393 395 394
406 2 2 2 1 68 332 67
407 2 2 2 1 332 333 67
408 2 2 2 1 332 68 112
409 2 2 2 1 259 10 320
410 2 2 2 1 11 320 10
411 2 2 2 1 207 356 325
412 2 2 2 1 207 325 396
413 2 2 2 1 333 356 355
414 2 2 2 1 394 395 397
415 2 2 2 1 359 162 398
416 2 2 2 1 398 162 399
417 2 2 2 1 314 190 313
418 2 2 2 1 313 190 345
419 2 2 2 1 314 344 342
420 2 2 2 1 400 401 198
421 2 2 2 1 401 400 402
422 2 2 2 1 326 167 336
423 2 2 2 1 403 404 97
424 2 2 2 1 135 79 103
425 2 2 2 1 135 136 78
426 2 2 2 1 238 106 104
427 2 2 2 1 79 135 78
428 2 2 2 1 95 403 97
429 2 2 2 1 362 405 294
430 2 2 2 1 206 207 396
431 2 2 2 1 206 396 317
432 2 2 2 1 325 406 396
433 2 2 2 1 350 384 407
434 2 2 2 1 402 400 242
435 2 2 2 1 408 115 409
436 2 2 2 1 410 315 371
437 2 2 2 1 362 411 405
438 2 2 2 1 412 408 224
439 2 2 2 1 370 374 390
440 2 2 2 1 370 390 272
441 2 2 2 1 115 385 107
442 2 2 2 1 319 242 219
443 2 2 2 1 36 385 413
444 2 2 2 1 36 413 35
445 2 2 2 1 372 346 414
446 2 2 2 1 346 348 414
447 2 2 2 1 115 413 385
448 2 2 2 1 346 372 345
449 2 2 2 1 109 415 171
450 2 2 2 1 189 76 77
451 2 2 2 1 211 415 110
452 2 2 2 1 223 408 409
453 2 2 2 1 397 146 348
454 2 2 2 1 415 211 171
455 2 2 2 1 190 191 345
456 2 2 2 1 345 191 347
457 2 2 2 1 171 212 243
458 2 2 2 1 171 243 179
459 2 2 2 1 408 223 224
460 2 2 2 1 296 294 405
461 2 2 2 1 333 108 356
462 2 2 2 1 356 108 325
463 2 2 2 1 415 109 110
464 2 2 2 1 112 68 69
465 2 2 2 1 220 225 416
466 2 2 2 1 318 317 396
467 2 2 2 1 50 51 386
468 2 2 2 1 417 82 418
469 2 2 2 1 312 376 352
470 2 2 2 1 418 82 13
471 2 2 2 1 352 376 419
472 2 2 2 1 198 199 309
473 2 2 2 1 347 397 348
474 2 2 2 1 223 409 311
475 2 2 2 1 5 305 4
476 2 2 2 1 223 311 155
477 2 2 2 1 305 80 4
478 2 2 2 1 187 123 252
479 2 2 2 1 306 23 1
480 2 2 2 1 420 21 421
481 2 2 2 1 24 306 1
482 2 2 2 1 421 21 22
483 2 2 2 1 90 91 204
484 2 2 2 1 31 129 30
485 2 2 2 1 213 123 193
486 2 2 2 1 83 229 422
487 2 2 2 1 90 204 99
488 2 2 2 1 17 373 16
489 2 2 2 1 366 214 121
490 2 2 2 1 320 11 81
491 2 2 2 1 402 242 340
492 2 2 2 1 145 146 423
493 2 2 2 1 230 229 424
494 2 2 2 1 319 320 340
495 2 2 2 1 425 402 340
496 2 2 2 1 402 425 426
497 2 2 2 1 81 340 320
498 2 2 2 1 129 31 275
499 2 2 2 1 275 31 32
500 2 2 2 1 427 279 307
501 2 2 2 1 307 428 427
502 2 2 2 1 376 313 372
503 2 2 2 1 330 331 429
504 2 2 2 1 330 429 430
505 2 2 2 1 429 431 430
506 2 2 2 1 432 433 34
507 2 2 2 1 434 433 432
508 2 2 2 1 432 35 413
509 2 2 2 1 35 432 34
510 2 2 2 1 435 376 372
511 2 2 2 1 428 436 427
512 2 2 2 1 376 435 419
513 2 2 2 1 147 279 427
514 2 2 2 1 114 113 273
515 2 2 2 1 412 432 413
516 2 2 2 1 432 412 118
517 2 2 2 1 434 432 118
518 2 2 2 1 251 386 379
519 2 2 2 1 379 386 51
520 2 2 2 1 373 351 437
521 2 2 2 1 352 438 351
522 2 2 2 1 351 438 437
523 2 2 2 1 353 342 310
524 2 2 2 1 192 353 310
525 2 2 2 1 342 353 314
526 2 2 2 1 88 93 87
527 2 2 2 1 23 93 22
528 2 2 2 1 355 354 285
529 2 2 2 1 354 205 285
530 2 2 2 1 354 355 356
531 2 2 2 1 328 109 134
532 2 2 2 1 253 147 427
533 2 2 2 1 103 328 134
534 2 2 2 1 231 241 233
535 2 2 2 1 109 328 111
536 2 2 2 1 231 169 241
537 2 2 2 1 286 439 203
538 2 2 2 1 201 286 203
539 2 2 2 1 429 331 440
540 2 2 2 1 54 338 246
541 2 2 2 1 338 331 246
542 2 2 2 1 338 54 55
543 2 2 2 1 414 391 297
544 2 2 2 1 337 331 338
545 2 2 2 1 372 414 297
546 2 2 2 1 391 414 348
547 2 2 2 1 82 425 81
548 2 2 2 1 440 331 410
549 2 2 2 1 82 12 13
550 2 2 2 1 410 331 337
551 2 2 2 1 152 399 160
552 2 2 2 1 119 441 428
553 2 2 2 1 152 44 399
554 2 2 2 1 127 161 126
555 2 2 2 1 425 82 417
556 2 2 2 1 311 443 442
557 2 2 2 1 442 443 272
558 2 2 2 1 286 201 289
559 2 2 2 1 428 117 119
560 2 2 2 1 444 289 201
561 2 2 2 1 244 218 445
562 2 2 2 1 162 160 399
563 2 2 2 1 218 242 445
564 2 2 2 1 400 445 242
565 2 2 2 1 446 49 50
566 2 2 2 1 164 363 166
567 2 2 2 1 401 426 166
568 2 2 2 1 196 94 447
569 2 2 2 1 214 366 213
570 2 2 2 1 46 358 45
571 2 2 2 1 399 44 45
572 2 2 2 1 423 146 397
573 2 2 2 1 448 163 426
574 2 2 2 1 449 276 393
575 2 2 2 1 424 84 290
576 2 2 2 1 161 162 274
577 2 2 2 1 448 425 417
578 2 2 2 1 274 162 375
579 2 2 2 1 425 448 426
580 2 2 2 1 450 49 446
581 2 2 2 1 446 386 387
582 2 2 2 1 237 236 430
583 2 2 2 1 350 365 451
584 2 2 2 1 350 451 360
585 2 2 2 1 246 330 245
586 2 2 2 1 350 407 365
587 2 2 2 1 330 236 234
588 2 2 2 1 84 424 83
589 2 2 2 1 236 330 430
590 2 2 2 1 216 299 452
591 2 2 2 1 122 120 293
592 2 2 2 1 293 132 122
593 2 2 2 1 84 98 290
594 2 2 2 1 386 446 50
595 2 2 2 1 340 81 425
596 2 2 2 1 291 187 249
597 2 2 2 1 405 453 419
598 2 2 2 1 187 281 249
599 2 2 2 1 411 453 405
600 2 2 2 1 454 92 455
601 2 2 2 1 143 222 155
602 2 2 2 1 453 411 165
603 2 2 2 1 326 336 186
604 2 2 2 1 291 326 186
605 2 2 2 1 454 455 104
606 2 2 2 1 454 112 69
607 2 2 2 1 363 339 282
608 2 2 2 1 137 72 73
609 2 2 2 1 112 454 104
610 2 2 2 1 387 388 456
611 2 2 2 1 400 198 308
612 2 2 2 1 222 223 155
613 2 2 2 1 358 46 86
614 2 2 2 1 222 143 457
615 2 2 2 1 70 454 69
616 2 2 2 1 445 400 308
617 2 2 2 1 403 458 404
618 2 2 2 1 349 57 58
619 2 2 2 1 391 255 369
620 2 2 2 1 102 460 459
621 2 2 2 1 460 102 360
622 2 2 2 1 428 307 117
623 2 2 2 1 458 403 381
624 2 2 2 1 458 456 404
625 2 2 2 1 461 188 268
626 2 2 2 1 194 266 193
627 2 2 2 1 194 215 265
628 2 2 2 1 349 463 462
629 2 2 2 1 431 461 268
630 2 2 2 1 462 463 337
631 2 2 2 1 266 194 265
632 2 2 2 1 435 372 297
633 2 2 2 1 296 435 297
634 2 2 2 1 91 92 464
635 2 2 2 1 115 408 413
636 2 2 2 1 464 92 454
637 2 2 2 1 114 409 115
638 2 2 2 1 408 412 413
639 2 2 2 1 198 401 200
640 2 2 2 1 465 444 97
641 2 2 2 1 444 465 289
642 2 2 2 1 241 169 335
643 2 2 2 1 241 159 240
644 2 2 2 1 447 94 88
645 2 2 2 1 159 241 335
646 2 2 2 1 166 200 401
647 2 2 2 1 105 108 333
648 2 2 2 1 154 96 140
649 2 2 2 1 363 200 166
650 2 2 2 1 282 200 363
651 2 2 2 1 213 366 252
652 2 2 2 1 410 337 463
653 2 2 2 1 214 120 121
654 2 2 2 1 120 213 193
655 2 2 2 1 324 438 165
656 2 2 2 1 300 334 364
657 2 2 2 1 466 378 441
658 2 2 2 1 42 153 41
659 2 2 2 1 160 153 152
660 2 2 2 1 466 467 158
661 2 2 2 1 378 466 158
662 2 2 2 1 238 422 229
663 2 2 2 1 143 155 140
664 2 2 2 1 378 158 156
665 2 2 2 1 351 373 344
666 2 2 2 1 119 468 441
667 2 2 2 1 467 466 457
668 2 2 2 1 468 466 441
669 2 2 2 1 134 109 170
670 2 2 2 1 466 468 457
671 2 2 2 1 424 229 83
672 2 2 2 1 136 134 170
673 2 2 2 1 349 277 463
674 2 2 2 1 99 138 101
675 2 2 2 1 248 142 140
676 2 2 2 1 96 444 248
677 2 2 2 1 237 430 469
678 2 2 2 1 96 97 444
679 2 2 2 1 279 147 128
680 2 2 2 1 252 366 280
681 2 2 2 1 430 431 469
682 2 2 2 1 281 187 252
683 2 2 2 1 161 273 126
684 2 2 2 1 122 98 225
685 2 2 2 1 273 161 274
686 2 2 2 1 140 96 248
687 2 2 2 1 381 470 450
688 2 2 2 1 250 102 459
689 2 2 2 1 188 264 268
690 2 2 2 1 321 32 33
691 2 2 2 1 281 252 280
692 2 2 2 1 32 321 275
693 2 2 2 1 244 445 308
694 2 2 2 1 422 238 471
695 2 2 2 1 192 420 94
696 2 2 2 1 392 244 308
697 2 2 2 1 21 420 20
698 2 2 2 1 116 321 434
699 2 2 2 1 192 310 420
700 2 2 2 1 449 447 88
701 2 2 2 1 297 391 369
702 2 2 2 1 276 449 27
703 2 2 2 1 89 449 88
704 2 2 2 1 449 26 27
705 2 2 2 1 26 449 89
706 2 2 2 1 270 267 294
707 2 2 2 1 20 420 310
708 2 2 2 1 76 452 75
709 2 2 2 1 248 444 201
710 2 2 2 1 162 359 375
711 2 2 2 1 349 462 57
712 2 2 2 1 298 300 150
713 2 2 2 1 150 300 364
714 2 2 2 1 446 387 472
715 2 2 2 1 406 318 396
716 2 2 2 1 472 387 456
717 2 2 2 1 201 202 248
718 2 2 2 1 168 167 271
719 2 2 2 1 29 144 28
720 2 2 2 1 473 63 64
721 2 2 2 1 473 208 263
722 2 2 2 1 208 473 64
723 2 2 2 1 33 433 321
724 2 2 2 1 63 473 263
725 2 2 2 1 248 202 247
726 2 2 2 1 315 463 277
727 2 2 2 1 138 139 148
728 2 2 2 1 433 434 321
729 2 2 2 1 433 33 34
730 2 2 2 1 474 141 239
731 2 2 2 1 239 240 474
732 2 2 2 1 431 268 469
733 2 2 2 1 474 240 467
734 2 2 2 1 143 141 474
735 2 2 2 1 144 29 130
736 2 2 2 1 475 222 457
737 2 2 2 1 175 322 323
738 2 2 2 1 417 175 323
739 2 2 2 1 224 222 475
740 2 2 2 1 442 390 154
741 2 2 2 1 311 442 154
742 2 2 2 1 390 442 272
743 2 2 2 1 90 250 476
744 2 2 2 1 419 453 352
745 2 2 2 1 453 438 352
746 2 2 2 1 440 371 477
747 2 2 2 1 303 227 228
748 2 2 2 1 429 440 477
749 2 2 2 1 371 440 410
750 2 2 2 1 303 283 227
751 2 2 2 1 119 475 468
752 2 2 2 1 468 475 457
753 2 2 2 1 478 422 471
754 2 2 2 1 327 244 392
755 2 2 2 1 318 184 479
756 2 2 2 1 149 74 480
757 2 2 2 1 334 327 392
758 2 2 2 1 316 318 479
759 2 2 2 1 188 479 184
760 2 2 2 1 449 393 447
761 2 2 2 1 393 389 447
762 2 2 2 1 447 389 196
763 2 2 2 1 230 424 406
764 2 2 2 1 424 290 406
765 2 2 2 1 325 230 406
766 2 2 2 1 83 478 416
767 2 2 2 1 362 294 262
768 2 2 2 1 262 294 267
769 2 2 2 1 83 422 478
770 2 2 2 1 156 168 368
771 2 2 2 1 478 471 459
772 2 2 2 1 150 151 298
773 2 2 2 1 92 90 476
774 2 2 2 1 341 173 284
775 2 2 2 1 150 364 197
776 2 2 2 1 172 341 262
777 2 2 2 1 173 292 284
778 2 2 2 1 437 322 176
779 2 2 2 1 373 176 16
780 2 2 2 1 176 373 437
781 2 2 2 1 176 15 16
782 2 2 2 1 341 284 339
783 2 2 2 1 480 74 75
784 2 2 2 1 288 235 237
785 2 2 2 1 235 288 388
786 2 2 2 1 293 266 264
787 2 2 2 1 132 293 264
788 2 2 2 1 434 118 116
789 2 2 2 1 220 416 481
790 2 2 2 1 220 481 221
791 2 2 2 1 121 122 225
792 2 2 2 1 56 462 337
793 2 2 2 1 138 148 101
794 2 2 2 1 114 443 409
795 2 2 2 1 199 283 309
796 2 2 2 1 423 397 395
797 2 2 2 1 443 311 409
798 2 2 2 1 443 114 272
799 2 2 2 1 121 221 366
800 2 2 2 1 357 403 374
801 2 2 2 1 86 47 470
802 2 2 2 1 47 48 470
803 2 2 2 1 249 226 292
804 2 2 2 1 226 249 281
805 2 2 2 1 403 357 381
806 2 2 2 1 280 302 228
807 2 2 2 1 475 119 118
808 2 2 2 1 412 475 118
809 2 2 2 1 423 144 145
810 2 2 2 1 144 423 395
811 2 2 2 1 411 362 361
812 2 2 2 1 238 455 476
813 2 2 2 1 426 401 402
814 2 2 2 1 475 412 224
815 2 2 2 1 455 92 476
816 2 2 2 1 411 164 165
817 2 2 2 1 308 383 392
818 2 2 2 1 407 383 380
819 2 2 2 1 309 283 380
820 2 2 2 1 462 56 57
821 2 2 2 1 199 200 282
822 2 2 2 1 438 453 165
823 2 2 2 1 388 465 456
824 2 2 2 1 482 382 481
825 2 2 2 1 382 221 481
826 2 2 2 1 382 301 302
827 2 2 2 1 458 381 450
828 2 2 2 1 482 301 382
829 2 2 2 1 455 238 104
830 2 2 2 1 289 465 288
831 2 2 2 1 465 388 288
832 2 2 2 1 322 175 176
833 2 2 2 1 479 371 316
834 2 2 2 1 371 479 461
835 2 2 2 1 139 137 73
836 2 2 2 1 215 439 265
837 2 2 2 1 439 215 203
838 2 2 2 1 299 151 149
839 2 2 2 1 48 450 470
840 2 2 2 1 450 48 49
841 2 2 2 1 151 299 298
842 2 2 2 1 295 369 270
843 2 2 2 1 283 303 380
844 2 2 2 1 294 295 270
845 2 2 2 1 421 93 94
846 2 2 2 1 369 295 297
847 2 2 2 1 258 367 255
848 2 2 2 1 52 379 51
849 2 2 2 1 367 369 255
850 2 2 2 1 367 258 368
851 2 2 2 1 336 159 335
852 2 2 2 1 258 427 436
853 2 2 2 1 427 258 253
854 2 2 2 1 459 471 250
855 2 2 2 1 324 322 437
856 2 2 2 1 438 324 437
857 2 2 2 1 420 421 94
858 2 2 2 1 163 166 426
859 2 2 2 1 341 339 361
860 2 2 2 1 216 452 189
861 2 2 2 1 452 76 189
862 2 2 2 1 384 392 383
863 2 2 2 1 159 158 240
864 2 2 2 1 93 421 22
865 2 2 2 1 158 467 240
866 2 2 2 1 407 384 383
867 2 2 2 1 301 482 365
868 2 2 2 1 474 467 457
869 2 2 2 1 143 474 457
870 2 2 2 1 464 71 91
871 2 2 2 1 464 454 70
872 2 2 2 1 71 464 70
873 2 2 2 1 470 381 86
874 2 2 2 1 416 478 481
875 2 2 2 1 477 461 431
876 2 2 2 1 429 477 431
877 2 2 2 1 461 477 371
878 2 2 2 1 478 460 481
879 2 2 2 1 460 478 459
880 2 2 2 1 100 360 102
881 2 2 2 1 151 148 149
882 2 2 2 1 323 163 448
883 2 2 2 1 417 323 448
884 2 2 2 1 148 151 101
885 2 2 2 1 390 483 95
886 2 2 2 1 184 290 133
887 2 2 2 1 185 132 264
888 2 2 2 1 132 185 133
889 2 2 2 1 188 185 264
890 2 2 2 1 482 481 460
891 2 2 2 1 451 482 460
892 2 2 2 1 482 451 365
893 2 2 2 1 360 451 460
894 2 2 2 1 377 258 436
895 2 2 2 1 231 232 195
896 2 2 2 1 378 377 436
897 2 2 2 1 169 231 195
898 2 2 2 1 258 377 368
899 2 2 2 1 164 411 361
900 2 2 2 1 441 378 436
901 2 2 2 1 428 441 436
902 2 2 2 1 403 483 374
903 2 2 2 1 304 407 380
904 2 2 2 1 483 403 95
905 2 2 2 1 336 157 159
906 2 2 2 1 407 304 365
907 2 2 2 1 157 336 167
908 2 2 2 1 232 202 203
909 2 2 2 1 266 120 193
910 2 2 2 1 283 199 282
911 2 2 2 1 418 13 14
912 2 2 2 1 418 175 417
913 2 2 2 1 339 363 361
914 2 2 2 1 296 405 435
915 2 2 2 1 405 419 435
916 2 2 2 1 232 203 215
917 2 2 2 1 175 418 14
918 2 2 2 1 461 479 188
919 2 2 2 1 271 261 267
920 2 2 2 1 299 480 452
921 2 2 2 1 480 299 149
922 2 2 2 1 144 395 276
923 2 2 2 1 395 393 276
924 2 2 2 1 465 404 456
925 2 2 2 1 404 465 97
926 2 2 2 1 476 471 238
927 2 2 2 1 287 469 439
928 2 2 2 1 471 476 250
929 2 2 2 1 286 287 439
930 2 2 2 1 174 291 249
931 2 2 2 1 398 45 358
932 2 2 2 1 469 287 237
933 2 2 2 1 359 398 358
934 2 2 2 1 45 398 399
935 2 2 2 1 484 406 290
936 2 2 2 1 269 439 469
937 2 2 2 1 439 269 265
938 2 2 2 1 484 184 318
939 2 2 2 1 184 484 290
940 2 2 2 1 406 484 318
941 2 2 2 1 268 269 469
942 2 2 2 1 480 75 452
943 2 2 2 1 292 173 249
944 2 2 2 1 483 390 374
945 2 2 2 1 463 315 410
946 2 2 2 1 347 394 397
947 2 2 2 1 98 85 225
948 2 2 2 1 416 85 83
949 2 2 2 1 85 416 225
950 2 2 2 1 393 394 389
951 2 2 2 1 394 347 389
952 2 2 2 1 329 180 349
953 2 2 2 1 180 329 182
954 2 2 2 1 58 329 349
955 2 2 2 1 74 139 73
956 2 2 2 1 472 456 458
957 2 2 2 1 472 450 446
958 2 2 2 1 139 74 149
959 2 2 2 1 138 99 204
960 2 2 2 1 450 472 458
961 2 2 2 1 335 125 186
962 2 2 2 1 124 195 193
963 2 2 2 1 125 123 186
964 2 2 2 1 125 335 169
965 2 2 2 1 195 124 169
966 2 2 2 1 123 124 193
$EndElements
