$MeshFormat
2.2 0 8
$EndMeshFormat
$PhysicalNames
3
1 1 "CURVE"
1 2 "VOLUME"
2 3 "FLUID"
$EndPhysicalNames
$Nodes
605
1 1.2 -2.939055249173705e-016 -4.898425415289509e-017
2 1.193639850737507 0.1233851965648323 -4.898425415289509e-017
3 1.174626822114429 0.2454624793514407 -4.898425415289509e-017
4 1.143162456964059 0.364937798793021 -4.898425415289509e-017
5 1.099580285384406 0.4805446867815191 -4.898425415289509e-017
6 1.044342289236187 0.5910576815446364 -4.898425415289509e-017
7 0.9780340050201741 0.6953053178454757 -4.898425415289509e-017
8 0.9013583170446244 0.7921825448054772 -4.898425415289509e-017
9 0.8151280066767526 0.8806624397186381 -4.898425415289509e-017
10 0.7202571366580429 0.9598070936876624 -4.898425415289509e-017
11 0.6177513618117982 1.028777553691598 -4.898425415289509e-017
12 0.5086972688518345 1.086842715696565 -4.898425415289509e-017
13 0.3942508582930036 1.133387074540393 -4.898425415289509e-017
14 0.2756252905581569 1.167917248440458 -4.898425415289509e-017
15 0.1540780261758638 1.190067208963322 -4.898425415289509e-017
16 0.03089749638598932 1.199602161017176 -4.898425415289509e-017
17 -0.09261055455197223 1.196421031738232 -4.898425415289509e-017
18 -0.2151369105728794 1.18055754188822 -4.898425415289509e-017
19 -0.3353827618219279 1.152179848405923 -4.898425415289509e-017
20 -0.4520734723622187 1.111588761901795 -4.898425415289509e-017
21 -0.5639720916327807 1.059214557990659 -4.898425415289509e-017
22 -0.6698924664322342 0.9956124162631449 -4.898425415289509e-017
23 -0.7687118144378068 0.9214565352439229 -4.898425415289509e-017
24 -0.8593826259772687 0.8375329857196157 -4.898425415289509e-017
25 -0.9409437678920497 0.7447313781929109 -4.898425415289509e-017
26 -1.01253067178782 0.6440354327899247 -4.898425415289509e-017
27 -1.073384498674552 0.5365125515821414 -4.898425415289509e-017
28 -1.12286018284859 0.4233025038589189 -4.898425415289509e-017
29 -1.160433269749583 0.3056053442894803 -4.898425415289509e-017
30 -1.185705475309291 0.1846686920448809 -4.898425415289509e-017
31 -1.198408907861796 0.06177450572442246 -4.898425415289509e-017
32 -1.198408907861797 -0.06177450572440887 -4.898425415289509e-017
33 -1.185705475309294 -0.1846686920448669 -4.898425415289509e-017
34 -1.160433269749586 -0.3056053442894676 -4.898425415289509e-017
35 -1.122860182848595 -0.4233025038589072 -4.898425415289509e-017
36 -1.073384498674558 -0.5365125515821306 -4.898425415289509e-017
37 -1.012530671787826 -0.644035432789915 -4.898425415289509e-017
38 -0.940943767892056 -0.7447313781929027 -4.898425415289509e-017
39 -0.8593826259772763 -0.8375329857196078 -4.898425415289509e-017
40 -0.7687118144378143 -0.9214565352439165 -4.898425415289509e-017
41 -0.6698924664322429 -0.995612416263139 -4.898425415289509e-017
42 -0.5639720916327885 -1.059214557990654 -4.898425415289509e-017
43 -0.4520734723622266 -1.111588761901792 -4.898425415289509e-017
44 -0.3353827618219348 -1.152179848405921 -4.898425415289509e-017
45 -0.2151369105728873 -1.180557541888219 -4.898425415289509e-017
46 -0.09261055455197996 -1.196421031738232 -4.898425415289509e-017
47 0.0308974963859821 -1.199602161017176 -4.898425415289509e-017
48 0.1540780261758583 -1.190067208963322 -4.898425415289509e-017
49 0.2756252905581509 -1.16791724844046 -4.898425415289509e-017
50 0.3942508582929983 -1.133387074540395 -4.898425415289509e-017
51 0.5086972688518306 -1.086842715696567 -4.898425415289509e-017
52 0.617751361811795 -1.0287775536916 -4.898425415289509e-017
53 0.7202571366580403 -0.9598070936876644 -4.898425415289509e-017
54 0.8151280066767504 -0.8806624397186401 -4.898425415289509e-017
55 0.9013583170446228 -0.7921825448054792 -4.898425415289509e-017
56 0.9780340050201721 -0.6953053178454783 -4.898425415289509e-017
57 1.044342289236186 -0.5910576815446383 -4.898425415289509e-017
58 1.099580285384405 -0.4805446867815207 -4.898425415289509e-017
59 1.143162456964059 -0.3649377987930213 -4.898425415289509e-017
60 1.174626822114429 -0.2454624793514416 -4.898425415289509e-017
61 1.193639850737507 -0.123385196564833 -4.898425415289509e-017
62 1.168250706566236 -2.861294476236989e-016 0.1081281634911196
63 1.083083002600377 -2.65270065340288e-016 0.1819263990709038
64 0.9715370323453425 -2.379500845567686e-016 0.1979642883761865
65 0.8690278532109426 -2.128434061381481e-016 0.1511499148708513
66 0.8081014052771004 -1.979212230870258e-016 0.0563465113682855
67 0.8081014052771006 -1.979212230870259e-016 -0.05634651136828622
68 0.8690278532109431 -2.128434061381482e-016 -0.1511499148708517
69 0.9715370323453432 -2.379500845567687e-016 -0.1979642883761866
70 1.083083002600377 -2.652700653402881e-016 -0.1819263990709036
71 1.168250706566236 -2.861294476236989e-016 -0.1081281634911195
72 -0.8626212514769227 -0.1769526563372858 -0.1604361215830358
73 -0.7941087679622274 -0.241548532649025 -0.105409424668646
74 -0.7979278087511043 -0.1284853517786567 -0.05670221425266313
75 -0.5165146311101161 1.061153514257766 -0.08679715330143249
76 -0.6017213838932791 1.018979614457299 -0.07982354418914667
77 -0.5479813578443148 0.9774390399160175 -0.1595730938428304
78 -0.6785923242783996 0.9300218811086807 -0.1308306060387236
79 -0.8364493608631206 -0.2950054983222358 -0.1649821830308558
80 0.08801720955253139 0.9636288176755281 0.1973647444875988
81 0.1364847402720702 0.8577008992406383 0.1506842100516691
82 0.0146255021506516 0.8695537310263075 0.1517097312696635
83 -1.009427360681189 0.5799477822045934 0.1142341750149958
84 0.2110019259584511 0.9367164902195367 0.195997312805204
85 -0.03264758334208168 0.9756747448445739 0.1985813440004434
86 0.04379663871288093 1.064208059355215 0.1891053488305435
87 0.1492813635751185 1.056766421672083 0.1883516029640342
88 -0.3083549070088479 0.9191017676596214 0.1976527735438095
89 -0.2583483349664015 0.8161821488963126 0.1388924082631928
90 -0.3651745073326991 0.8287653209297846 0.1763471953515664
91 -0.3714296518552839 0.7507793610557773 0.1167778753697437
92 0.3427677170000484 0.7308681825768121 -0.05337356795651276
93 0.4592967711383795 0.6995173457149121 -0.115647315662265
94 0.3774953138291249 0.7858566945221895 -0.1535264773044253
95 1.157927765391991 -0.1815593503944754 0.101931797389787
96 0.4425047217871735 0.6701915948397765 -0.03506850100164537
97 1.161721577128783 0.196291202756086 -0.0908239612343737
98 0.9746197543443308 0.6437246517860237 0.1084900415523207
99 0.9001020109804844 0.7434349807557137 0.1094035929059008
100 0.9760969054193501 -0.6426621552653198 -0.1074794812585725
101 0.9018986340416743 -0.7432031137535878 -0.1074847181394074
102 0.798469188486676 0.2004559445067424 0.09358620962343761
103 0.8792944943582062 0.1775051214125369 0.1714574132885258
104 0.8136530493740636 0.1054344161071036 0.08811286007617603
105 -0.9515350192884544 0.2352544300277224 0.19901603975834
106 -0.9224277139095526 0.141396604372714 0.1885153072366914
107 -1.056003855363107 0.1613289830582006 0.1879922848996411
108 -1.119806936504421 -0.3323268963134843 -0.1083947521877397
109 -1.151547788655233 -0.2131930459767682 -0.1035334882755656
110 -1.106401634774498 0.3656768504516007 -0.1126376960013615
111 -1.078541159216122 0.4670966502312957 -0.09620270206205211
112 0.8635486294529976 -0.488773748662409 -0.1998508786585897
113 0.8040254046403489 -0.5709851572796801 -0.1995194829676949
114 0.9343739743115793 -0.5656020640778726 -0.177465855510923
115 -0.09571299044492868 1.097514554541228 -0.1722241131540699
116 -0.1333754600188017 1.167622592108312 -0.09643401728255536
117 -0.2088532407578957 1.118987617536297 -0.1444643275250737
118 0.8574562816020912 -0.6761576677857382 -0.1775941082587939
119 -0.3618210791366645 -0.749657774258508 -0.1091446645262704
120 -0.2674677781689674 -0.7545745065492506 -0.01516608265602794
121 -0.3788179927963762 -0.7048692209109221 -0.009266331620523755
122 0.8700739193780358 0.4659875331116874 0.1995771849745299
123 0.8062079203831732 0.5691719191376893 0.1995690584592625
124 0.9349659879098599 0.5651525551961404 0.1773232452796322
125 0.8561328039584485 0.673718187267239 0.1788913729606416
126 0.4546980297923673 -1.091720034336583 0.08153495332229907
127 0.3641433457021995 -1.124103348380548 0.08376637444376152
128 0.8251595533774422 0.8295671561849477 0.1052392567126263
129 0.8378989817612681 -0.8232157081002895 -0.09748790693751971
130 -0.04053626774732235 -1.156234251395053 -0.1239693069014995
131 0.08439323955438584 -1.159039659340643 -0.1171365690564734
132 0.002588333301709234 -1.069689603077127 -0.1874644572914723
133 -0.9684778958036268 -0.4335705978495194 -0.1904384624141082
134 -1.038113257001765 -0.3489530880481391 -0.1758929223995321
135 -1.072448694777888 -0.4524082802321217 -0.1145197964042842
136 1.081960664827462 -0.2571660310880902 0.1656288040811802
137 0.996209985025946 -0.1872131791548814 0.199533758484507
138 1.091477185075122 -0.1356919247346537 0.1732746402871072
139 -0.8458859829770548 0.2319036045190573 0.1577824618610512
140 -0.8352372872886156 0.1219084717832312 0.1252643681235423
141 -0.8708888786044211 -0.5471841313851754 0.1979557632421621
142 -0.7414704650955982 -0.5612513946220289 0.1873261385936484
143 -0.81285886232692 -0.6511476061334774 0.195645935774196
144 -0.8036985349084337 -0.4625458091516715 0.1863177183367932
145 -0.4547957944433325 -0.7738723927531195 -0.1718076914623001
146 -0.4396937988096315 -0.8765737995892441 -0.1990636174161486
147 -0.3592282383267166 -0.823078583790894 -0.1720676426645326
148 0.8383288675215022 0.2744155132350587 0.1615531598712139
149 0.8000029806952159 -0.1979867961188923 -0.09525008012884895
150 0.8793094160763116 -0.1785058781593474 -0.1715852629928014
151 0.8228575270790237 -0.0943611443885031 -0.1024794397489528
152 0.8413020790406402 -0.2755941609009103 -0.163835275721854
153 -0.9315550249165675 0.2215600546986882 -0.1954409951217382
154 -0.9521564295220123 0.08430140277764626 -0.1950731113211426
155 -0.8445633251940371 0.1060977689944961 -0.1336375629256747
156 -0.3341826977277888 -0.918455811756307 -0.1987148280911772
157 -0.5083798714617246 -0.8352622034808366 0.1987652347967765
158 -0.5582158620336071 -0.7256710061433732 0.1812886469309342
159 -0.4460019131763907 -0.7168944518532905 0.125538375141971
160 1.044843334116619 -0.5249672113514716 -0.1064602853483377
161 0.1324617946846106 -0.8567397371164144 -0.1492967920686133
162 0.05298891374360838 -0.8129812575832159 -0.07527445503459292
163 0.009032524049303178 -0.8727354279885821 -0.1543231135113048
164 0.9919618495289733 -0.4594314598084313 -0.1769619210799732
165 0.2564282727347094 1.07846372055374 -0.167991580398804
166 0.3493950926871161 1.119574063364487 -0.1006521302351015
167 0.2097571395550313 1.151224811876339 -0.1050687281875549
168 -1.167375513884146 0.02698298320019834 -0.1089998325670025
169 -1.155659544250157 0.1397165116632982 -0.1143657466918002
170 -0.0275820643158733 1.168041538268755 -0.107946753633807
171 -0.2855405488239662 -1.130454025868949 -0.1116140990908088
172 -0.3954519696519047 -1.101775220072299 -0.1043915810646968
173 1.044864061478831 0.5249608083449397 0.1064353976498912
174 0.9920079725205962 0.4595237668701428 0.1769194275314986
175 -1.067741066102307 0.07494119722869902 -0.1872121167746161
176 -0.5449907449365757 -0.6404346378416739 0.1212364672099802
177 -1.057528820304968 0.1811911964283411 -0.1862255244095907
178 -0.9395721596853672 0.358631052567834 -0.1999190476239187
179 -1.04406969301404 0.2903355007400508 -0.1816496226992235
180 0.9645341642712023 -0.2723054383661011 0.1999875036818017
181 0.1666999629995345 -0.9534117728594499 -0.1974031744255962
182 0.1304509568197553 -1.054054204028451 -0.1901160125981042
183 0.2532172366522056 -1.017359384693037 -0.1940556630215636
184 -0.4726219005450784 -0.6923974882786985 -0.1177310649807045
185 -0.5936032619305764 -1.016021962800649 0.09365210593941242
186 -0.5152365652487502 -0.9729992408130257 0.1726251331083697
187 -0.4855628183840082 -1.069420387200186 0.09773729085819655
188 -0.4726967906433311 -0.645505836198535 0.00547750649360059
189 -0.8323913913424245 0.3390937514943047 -0.1725127523215879
190 -0.5705898035114749 -0.5930958143295012 -0.09312555884081758
191 -0.01973080842017503 0.8051615638167323 -0.04617486139673482
192 -0.1262447869842284 0.7938532517750558 -0.03894686521592049
193 -0.06778717912948967 0.8060862771863343 0.05910018732036603
194 -0.1773119443860646 0.7872959469871234 0.05250792668308416
195 0.7795130748302836 -0.7828085863587234 -0.1703862692364039
196 0.6816718221705147 -0.85727315813361 -0.1758567474206668
197 0.7556828133932738 -0.8912418997768234 -0.1077550683510042
198 0.3163961091206646 0.8909479362507476 -0.1924198399980223
199 0.4372583188619473 0.8400749118224915 -0.1928658794789833
200 0.4524918114943863 0.9428313821251149 -0.1946872847135232
201 0.5054031273362998 0.7569536538101967 -0.1786917498697892
202 0.8826867994817637 0.7780325682637602 -0.0938081322807478
203 0.9683304597413177 0.657679508360567 -0.1044506672161669
204 0.7698701053383703 -0.8800988110474771 0.1064699886827081
205 0.8837796929460393 -0.7757093549323301 0.09513989532511835
206 0.7727741384978464 0.8794682913379099 -0.1041444841260134
207 0.9683304597035003 -0.6576795083841351 0.1044506672456282
208 0.3355354322590557 1.010145106426606 -0.1893431716961877
209 0.1590677428743836 0.8802276097066725 -0.1699016139097227
210 0.08220134620748992 0.9686560684768502 -0.1980497167522598
211 0.01694877686692651 0.8616368705960216 -0.1445743443681335
212 0.2132415758713861 0.9828469607544251 -0.199918366404052
213 0.4205350819951182 -1.086798838102912 -0.1125511886328466
214 0.3515638576306168 -1.035786292378621 -0.1766270208700093
215 0.3076637937752189 -1.123765714271537 -0.1128500504279074
216 1.032326811706603 -0.5457013627254632 0.1090031580769745
217 1.032326811737403 0.5457013627170378 -0.1090031580411436
218 0.3240721104633783 0.986172134999009 0.1963461634199436
219 0.3251679120680971 0.8869078590796 0.1921847467888367
220 -0.7968519722582849 -0.7708616572969991 -0.1678861927017827
221 -0.7523607138816339 -0.6783481751428524 -0.1995759624832447
222 -0.8878797694387081 -0.678982653632763 -0.1616686190786494
223 0.2609181871669489 1.048593537609334 0.1830541840330348
224 -0.8230543860376947 -0.5865581170473007 -0.1997147757385477
225 0.9448130637969513 -0.3796375706293643 0.1991672515532947
226 0.8618121729216459 -0.2837446044542435 0.1772303164655348
227 -1.030840511818783 0.3060669362127952 0.1852759450743503
228 0.7766998268690697 0.7808344023824132 0.172420435857265
229 0.7349984500798443 0.668421037938548 0.1998938089073388
230 -0.9581476074151065 -0.5632478546530162 -0.1660768390132832
231 -0.9636284859465213 -0.6735504908471746 -0.09556439552480479
232 0.4230683060308404 -0.6794492368112474 0.01262202655589395
233 0.3642509300477344 -0.7425546936420863 -0.100497240081137
234 0.4714269024372271 -0.6966279894538923 -0.1215186520211277
235 -0.5107243796066163 -1.051547355470981 -0.1069328255145228
236 -0.4222416732400616 -0.9990592178950691 -0.1812151332402729
237 -0.533922227789971 -0.9496004634090845 -0.1789018313216273
238 0.3867218662325392 -0.7491133412420686 0.1239559490395343
239 0.3194601280352678 -0.7355062886490685 0.02741556306176913
240 -0.6478249229068157 -0.8951236743635391 -0.1702487611964754
241 -0.6769943193336924 -0.7748833864211694 -0.1978916988874354
242 -0.7703197678752285 -0.8695557991307494 -0.1177152329764844
243 0.6030416049079108 -0.6460241090324281 -0.1627418812045078
244 0.5433108147904846 -0.7562694967711255 -0.1877932909184387
245 0.647912711946153 -0.7683398301338497 -0.1999360893214558
246 -0.2420527066773557 -1.043856687774003 0.1867622475227186
247 -0.2015471651471875 -1.155910222486715 0.0997489567093179
248 -0.3485205029231229 -1.117924735769351 0.1037387928517238
249 0.1981702140184728 -1.110342065973522 -0.1537683491184794
250 0.7502585541422987 0.4598520684396643 0.1599794660122905
251 0.6603602458128146 0.4815448872693401 0.08134279900831125
252 0.7139668154894963 0.5535927977163687 0.1751491082754072
253 0.6522283869478956 -0.9615271114970707 -0.1174686729818849
254 -0.8057196144536682 -0.002030689999170285 -0.04749869595914724
255 -0.8721855500856452 -0.03611950156853528 -0.1544474374807119
256 -0.8794284654427604 -0.7738966339092751 -0.1029691933979167
257 -0.5691464589111344 0.7448828418687183 -0.1899610600627064
258 -0.5691800806830092 0.8683776307860041 -0.1963005157979945
259 -0.6798109407605051 0.8100615966380729 -0.1915509527611959
260 -0.7728418397013348 0.2437301300591972 0.0635450279108339
261 -0.7909031108847573 0.1208537688490574 0.005773420076079726
262 0.7755138319973224 -0.1977414562451951 -0.01143298220359205
263 0.7947190716003831 -0.1040649052168971 0.02447756249830526
264 0.808675614639602 -0.1952083698191463 0.1083669215690565
265 -0.715555215529181 0.8451790032057885 0.1687129838978086
266 -0.7230368723039405 0.7317335018834121 0.1979305886791926
267 -0.8299895553228168 0.7584843161662761 0.1566367289910992
268 -0.7080298631427071 0.3879166210395734 0.05365811234503834
269 -0.789531884498911 0.3496349057579131 0.1461624713116152
270 0.7547382975695358 -0.4771557811858665 -0.1689202261439697
271 0.7323150262845917 -0.380328967928552 -0.09716380039179347
272 0.6723886346085174 -0.477688817913477 -0.09646006552113272
273 0.8977809954077891 0.08263246858768704 0.1741053354747494
274 0.8977308783399499 -0.08286726595443919 -0.174089303148681
275 -1.01031532709612 0.5636204110418117 -0.1240326423608274
276 -1.011559952370872 0.4324071562722092 -0.1731448172549498
277 -0.8863193061877933 0.4904819299558829 -0.1995781633260577
278 -0.7806776184268094 0.2334784620144454 -0.07561102149656274
279 -0.8391765887653732 0.6521560975271717 0.1898875397047324
280 -0.9422305784248783 0.6782573454084693 0.118707251070725
281 -0.9063999053623245 0.7623457199150171 0.07750988820385292
282 -0.9172779925922238 0.5660362344180417 0.1842195070467816
283 0.7606721090496902 -0.3037144884090505 0.08521666119695996
284 -0.916033142760341 -0.4355863191623825 0.1994864340854241
285 0.8411751964532187 -0.09192477462211811 0.1278294485865996
286 0.42879684653426 0.9627041315775449 0.1926052854868442
287 0.5269735352347367 1.028965848879392 0.1250826434387156
288 0.5380241654204461 0.9137848996034877 0.1906578973065769
289 0.4515291217370674 -0.7926207244802449 -0.1797020507067467
290 0.6358853733330675 0.9676196404169943 0.1228025497480631
291 0.7327306567056311 -0.6898268263498403 -0.1998989323510876
292 0.808134899818206 -0.397900856360799 0.1736538709729233
293 0.7065722421727768 -0.4422425323414601 0.1108955800529492
294 -0.04131501297927662 0.9873301458464478 -0.1996512527666973
295 -0.7750063066334545 0.7431179363965302 -0.1859205000183943
296 -0.6762158914624019 0.6781938161924146 -0.1954784792514696
297 -0.7622331090957255 0.4577378889495395 -0.1664459159788744
298 -0.677157517729687 0.5393045843394294 -0.1481774838649885
299 -0.7949776438514065 0.6034302362730837 -0.1999905603358531
300 -0.9682568627807713 -0.1541946679709091 -0.1990429587722456
301 -1.001044915316543 -0.04771655480504269 -0.1999881021101239
302 -1.08618575669145 -0.1322607347476179 -0.1764220646045127
303 0.2485126183715661 0.8166952837877884 -0.136334360496482
304 0.1248947712387692 0.8007103643335572 -0.06363133030591835
305 0.2361189714960628 0.7676324226199817 -0.03522371039268355
306 1.143578132916031 0.260326368519549 0.1006391356944313
307 1.105242745441658 0.1421851885196527 0.1640848819748838
308 1.065804731195589 0.2549841151902293 0.1755183930127024
309 1.177389548055044 0.1289514290511093 0.07736630331215306
310 0.9923487836603944 0.1261314332446614 0.199999723495887
311 0.1661408895706444 0.791012492251199 0.05692414171340935
312 -1.059890528577105 -0.2342205102567503 -0.1808211594522906
313 -0.9382671680952769 -0.2862040614061815 -0.1990904395796879
314 1.143578133082236 -0.2603263689954823 -0.1006391352346942
315 1.105236109963901 -0.1421989527382374 -0.1640882443548181
316 1.06576951174715 -0.2549958206494287 -0.1755356129561895
317 1.177389547855777 -0.1289514297035532 -0.07736630361502084
318 0.9923013664088768 -0.1261838997244942 -0.1999997866259593
319 -0.449842756662943 0.9120244539754774 0.1992821291981423
320 -0.3872903490866151 1.018784116344124 0.1786484751661039
321 -0.2984707167753208 1.028793625348581 -0.1868915619940037
322 -0.3198590508852751 1.12251490532518 -0.1097500095402619
323 -0.4226165401148625 1.029024809368347 -0.1654081911973426
324 -0.9864398316580387 -0.3441176037446825 0.1949317414573093
325 -1.021334975191619 -0.4262836535723154 0.1691434832795701
326 -1.103354368998473 -0.3610535537188267 0.1187545145584108
327 0.1420551058086308 1.077804738073264 -0.1800252171990995
328 -0.2627180921253495 1.03901794869566 0.1866990995247985
329 0.8837716064101733 -0.4663789238549443 0.1999987058586076
330 -0.5558218947871968 0.6316528005798767 -0.1218205601550051
331 -0.4747050087367662 0.7303610673808394 -0.1529000169631807
332 -1.073267795509542 -0.4678814339178763 0.104023641166868
333 -0.6204610836132098 -0.5710128689208073 0.1241831724825888
334 -0.6638531144144685 -0.6624133273212414 0.190086087647731
335 -0.6553021312884262 -0.7964390757574151 0.1975235627481561
336 -0.1882835488572955 0.9446243345933045 0.196586374664875
337 0.5180462692715222 -1.011703917958567 0.1460601438108251
338 0.4501750679140808 -0.9355221637006069 0.1963180007138383
339 0.5848997714734377 -0.923738930108549 0.1768809662077705
340 0.6423949496666533 -0.9794579561435881 0.1031830151135635
341 0.3963081596820898 -1.0513535428378 0.1572609859104814
342 -0.6778282688726496 -0.4748751217167431 0.1014184084403609
343 0.5265852384917499 1.011134327124885 -0.1427921716907837
344 0.5756752409381557 0.9376098415949072 -0.1730699427060162
345 -0.4342436133508368 0.6928191290401488 -0.08216857796474167
346 -0.5086196417155486 0.6175025073901651 0.0009064423447147752
347 -0.3936051588527349 0.697588875837764 0.01968846242371846
348 0.1099450665496729 -0.8395402111227752 0.128459286955729
349 0.05336383326108778 -0.8000404057465419 0.02690641715537098
350 0.1979383371886289 -0.7820614261763416 0.05141440326645103
351 0.6588527622974019 0.9701137112992624 -0.1008826979768168
352 0.4167955846739472 1.048402979055981 -0.1534962842534883
353 1.095899222912835 0.3952966375158079 0.1130080364845614
354 1.017556879498694 0.3526099572904738 0.1846168410072085
355 0.4605054729438743 1.086545434865627 -0.08696219730291432
356 0.1385474838221716 -0.7957130708420054 -0.05490768962309927
357 0.5209612936022672 0.618501926821761 -0.0582442238261594
358 0.5848552759743032 0.6543385392764154 -0.1581860370661844
359 0.003795649021539633 -0.8295614183828397 0.1046596856660903
360 -0.06826963805254922 -0.8062030023215921 0.05960501274722266
361 1.095896961198993 -0.395294574250062 -0.1130121652212833
362 1.017559462151786 -0.3526056930285087 -0.1846164059948183
363 -0.8974861543836989 0.3440719669835572 0.1961963417224021
364 0.568053125009082 1.041047456334944 -0.07365238590502242
365 0.5560139951202516 -1.047837344080842 0.07295627479746739
366 -1.164048611711803 0.01910756613332687 0.1141778380204814
367 -0.6296531477687052 -0.9155852237988977 0.1662382795134941
368 -1.157424313279864 -0.1130243742574244 0.1159909652975387
369 -0.2332265414548878 0.8858513534202173 -0.1815228119950488
370 -0.1629154599764465 1.007924943145362 -0.1988937649445112
371 0.5103977209069067 0.8005238391595617 0.1934910368538933
372 0.4245298448093556 0.8616464647894195 0.1960710543766092
373 0.428062008035393 -0.83078906826784 0.1889993871308061
374 0.3026869344128811 -0.8080317992353142 0.1455808874787275
375 0.1272375259752667 -1.061834819643552 0.1875615690430713
376 0.2117005491721113 -0.9786247364999207 0.1999960249498976
377 0.2550437744951008 -1.104248511377858 0.1490839597705609
378 0.1084726796053556 -1.158521860088533 0.1150593696152878
379 0.3264329451468819 -0.9987318138264133 0.1934604394794525
380 0.5829364892508816 0.5503714241685608 0.0260249732420998
381 0.5676602718840408 0.6307621062586027 0.1306673135891159
382 0.6298865341990225 0.5526695634783001 0.1172502754025257
383 0.3187854620247464 -0.8957404425256774 0.1938478874455738
384 0.653454154150265 0.6290418988506339 0.1770757542917331
385 -0.4140369145995881 1.107496688948576 -0.08212662243109664
386 0.9654288999076877 0.2514112676430784 0.1999859273617091
387 0.5006094832051836 0.6302738190434103 0.04397490055839085
388 0.9653120886529413 -0.2515914714855175 -0.1999851138770236
389 -0.4770737353249926 0.6927908524084069 0.1215377909753233
390 1.167033379351866 -0.07818758447952265 0.1059198296038601
391 1.171614354380899 0.07911157046819509 -0.09811061304191497
392 -0.3578969738919173 0.8035333262846752 -0.1597248775249812
393 -0.2245458276767861 0.7857417187459711 -0.08113599620529671
394 0.3716445157993521 0.78226821022855 0.1485280543498708
395 0.2437278828718968 0.8322110372451295 0.1495171447486979
396 -1.099157612446003 -0.02603268849219416 -0.1735123755036309
397 0.6289171677739915 -0.5115056087317003 0.06443266762298776
398 0.6652700422285249 -0.4443930768563645 -0.00416612615171576
399 -0.5882231259246435 0.5452580986422965 -0.0286856233061307
400 -0.5868660006834254 -0.5459547835880856 0.02483120687453021
401 0.673748151638824 -0.5534786624289597 0.1536229967465209
402 0.4406118864384766 -0.8836198246388058 -0.1996015559971472
403 0.5630074593288836 -0.8926418304205292 -0.192185222819499
404 0.4554253379333886 -0.9855914673221599 -0.1806956233234411
405 0.5377269988544817 -1.027759372519548 -0.1200921008880358
406 -0.8207101701713901 0.8484423050114535 0.0862804764980034
407 0.7897453681820873 -0.5454940346497941 0.1959231047234009
408 0.209848796396124 -0.8658693228460612 0.167645314701829
409 -0.03829024793843381 -0.8075905412946544 -0.05767921198188717
410 -0.6872929567218241 0.5094481786828867 0.1382917750903685
411 -0.7070934153259277 0.6233837402882888 0.191600988396907
412 -0.5847426450665327 0.5981074463310654 0.115121402969901
413 -0.5841549140282746 0.6912948265583372 0.1760271183717617
414 0.948543904121525 0.3567534077966324 -0.1995496346945411
415 0.8789866261767622 0.248071227354644 -0.1802412281359011
416 0.9831223791528801 0.2365930503080514 -0.1996866958775912
417 -0.02720954301201093 1.178623290928093 0.08933886602448737
418 0.5937284988333981 0.5575485199124357 -0.07470921475593904
419 0.6779367059058334 0.5569926175892898 -0.1580202038608905
420 -0.4550838328652377 0.9065052688220774 -0.1994864009115185
421 -0.4755639547400847 0.8147313503501872 -0.191815329473552
422 -0.7542608267361185 -0.2675888731536489 0.01132128071434794
423 -0.7543559081395014 -0.3717979126522262 0.1213261899084195
424 -0.8207694695569501 -0.2434439582756717 0.1389107536416271
425 -0.7488616356931356 0.4424374438247539 0.1518118982247906
426 -0.8450314221198388 0.4472549119296463 0.1951210703903451
427 -0.6991119177791904 -0.3892796683841027 0.008601781181975103
428 -1.158466519349012 0.1428202553984351 0.1096894401248875
429 -0.7530371171209624 -0.3565943541989542 -0.1103548778295201
430 0.7814341876496588 0.2666251641721011 -0.0980229877589662
431 0.8197306895363947 0.1619132936081814 -0.1138516712955294
432 0.9198680440917131 0.1179921523759857 -0.1863596354568172
433 1.026816299048579 0.1199541765520076 -0.1971233531324553
434 -0.768990121064431 -0.7368214387247919 0.1891385048245625
435 -0.8784369003208546 -0.751915471624919 0.1247818204436349
436 -0.9293661104785735 -0.6276719292026963 0.1588874010561316
437 0.8374149093952994 0.07205389995762822 -0.1206757759900527
438 0.8260655151220473 0.3499949138952939 -0.1715289191985824
439 -0.09926351485518858 -1.07908216430151 0.1816718630983801
440 0.02322367861753665 -1.08771203134231 0.1796191840341096
441 -0.03736379215172268 -1.16477186405045 0.1124830436599934
442 -1.136809944984051 0.2580403240140166 -0.1119564454419078
443 0.7779142996677715 0.1883667254914511 -0.01256880542541883
444 0.7969840418486893 0.09228233696694252 -0.03030238138273492
445 0.8552316700393763 -0.6599022092128098 0.1832034319758267
446 0.7511407645696394 0.2890855138215427 0.04377581890166803
447 -0.04094250602706835 1.10844749983016 0.1675548291311931
448 0.8555408381844287 0.6732823379118874 -0.1792567964103819
449 -0.1553170775645438 1.070238191419064 0.1826635346928578
450 -1.043981668193878 0.007576371336053996 0.1950979084670414
451 -0.986817597912158 0.07350643190940685 0.1997268855331305
452 -0.9018898438550547 0.02115688479599018 0.1744219645211501
453 -0.6496740320822127 -0.9793391112041894 -0.0963954244201623
454 -0.7651109917836898 -0.4723971957239325 -0.1727385566337056
455 -0.8540359084945417 -0.3966878283587467 -0.1913044022061922
456 -0.8786291515297818 -0.4988889401411185 -0.1997301585408555
457 -0.7775023982877212 -0.8514230087230604 0.1287946612699017
458 -0.6868491027181259 -0.5652146765005216 -0.1667096845887834
459 -0.4661094407369661 1.078153427116327 0.09755344076294797
460 -0.5319927894456659 1.003632717228492 0.1467244403026962
461 1.084606770666802 0.2454055448680594 -0.1656827977069023
462 1.114417514744664 0.1271424739207066 -0.1587515333378262
463 0.2368943689013523 -0.8840999407110666 -0.1811734887424437
464 0.243968229599301 -0.7824942911814011 -0.08644101490431108
465 -1.139504510735679 0.2538711486188175 0.1093761325917439
466 -1.106198121717587 0.3670910261873828 0.1122679394641707
467 -0.702021037633964 -0.9487405953769517 0.08670200958070733
468 -0.8198142677644271 -0.006368565839969292 0.08684477803657309
469 0.3526248804508131 -0.8202860720820986 -0.1688868505391865
470 0.3507116127438197 -0.9304073158940541 -0.1999191010712522
471 0.710764126457808 0.386425276352756 0.0593791110159119
472 0.7275106278992198 0.3666781573447462 -0.07524156514961744
473 -0.7999260055031638 -0.146476626830541 0.07152332016448526
474 -0.8849204282383937 -0.120099146727942 0.1689913149740303
475 -0.1896573462944789 -0.8039823961330346 0.09869745121315361
476 -0.08888098192088972 -0.8775759888341451 0.1615284500753465
477 -0.2204229369745582 -0.9086275295974837 0.189136417591508
478 -0.2432503726153314 1.145847187152123 0.1030926925068816
479 -0.3656483578901862 1.11022375423075 0.1071324922427286
480 -0.865235324126889 -0.3400779972829232 0.1872260879097503
481 0.7762658621072566 0.7666251856875798 -0.1780931672963362
482 0.7828783867159199 -0.7538423312559159 0.1801731339220946
483 -0.9328209884655689 -0.242865988695784 0.1967183919845271
484 1.021442121928211 -0.06961360066948329 0.1985774678541093
485 -0.8631956278474946 0.6927740588197859 -0.1690865232031094
486 -0.8719454736302505 0.7730568881653923 -0.1125988264570053
487 -0.2104173852126046 -0.9588245722163075 -0.1991556313809025
488 -0.2217315165791467 -1.074093506231208 -0.1750459914871731
489 -0.115224141043217 -1.068770320349291 -0.1854197090571754
490 -0.3572385591093739 0.9302681561215301 -0.1999694251527231
491 -0.3212083390120669 -1.025088314128785 -0.1857125839460335
492 0.7924603205533334 0.3659985660037652 0.1544172975451464
493 -0.6507224696498861 0.9517849205663985 0.1288445415514384
494 -0.7357348678915737 0.9237492745015888 0.0852105257983429
495 0.4909840746638265 -0.7458445616078457 0.1689351087051831
496 0.4825086563338664 -0.6777056099821246 0.1084013528053385
497 0.5851762513367325 -0.6578653349642937 0.1603474542921155
498 -0.06015853812739617 -0.9739340882296494 -0.198529315579553
499 -0.117115050295654 -0.8639418414320824 -0.1535446620166319
500 0.7264441043383363 0.6549099453697224 -0.1987944550661785
501 0.8012741253750101 0.5643997881935999 -0.1990070703357175
502 -1.169909502258925 -0.105429098871608 -0.09745379072541327
503 0.3772682283006373 1.079320996873327 0.1394588934881176
504 0.2296344711585012 1.137462117649649 0.1194509787870164
505 -0.1367650565263886 1.160627738955186 0.1074918242978062
506 0.01013766817747798 1.083905566335947 -0.181526577167087
507 0.09948845116512421 1.165081230327903 -0.106443922241646
508 -0.7419185822968184 0.2992660470779457 0.0009151050575267238
509 0.6768536668779409 -0.8626674887299723 0.1751757192214426
510 -0.7311159394212443 0.3708748105331178 -0.08677217961977116
511 0.4779438614757091 0.7130942345922167 0.1412910313167514
512 -0.5535896852919739 -0.8005605819158321 -0.1982129371167281
513 0.3942129776506663 0.7078902507154596 0.06321925558322604
514 -0.9178902646131533 0.6001431620441224 -0.1750831073562764
515 0.5542445124849378 0.8452706698934171 -0.1997094471834204
516 0.5565735552214278 -0.8299306180487933 0.199998701174762
517 0.08870550050018973 1.153090241057035 0.1245336376326868
518 0.9119410357150913 -0.3636593457239844 -0.1991680052838891
519 0.9135588615210281 0.3630810204164081 0.199281760366757
520 -0.1154126248365582 0.8301098489516994 -0.1174164283262439
521 -0.617296703784344 -0.6713744958148983 -0.1796143080811721
522 0.1157640024209241 -0.9405722301961257 0.1930324212032311
523 0.6614620758699004 0.4626432073748006 -0.05317814600310949
524 0.7575759550816736 0.457076261424482 -0.1634775918217807
525 -0.00176867729188239 -0.9890975911291411 0.1997027089434128
526 -0.1530621280387565 -1.147373550812331 -0.123214438223144
527 -0.797324054531064 -0.0695987688651811 0.01192689274221703
528 0.7560504608630897 -0.2947662545855747 -0.06678419854453935
529 0.8043962565397935 -0.3751021504122141 -0.165397276729393
530 -0.9813234729524999 -0.5143797641105314 0.1683566520290958
531 -0.3260278748573591 0.7438335597666913 -0.06863819538507164
532 -0.6158512559963661 0.792590015168711 0.1999652352687223
533 -0.7834572232547997 0.5358549484730726 0.1934360157417444
534 -0.8446246625885748 0.2220118517629649 -0.1547612836931555
535 0.3254910584536178 1.143082104940346 0.06678321248508177
536 -0.6700754621900272 0.4546517953416279 -0.06171143569232991
537 -0.6404040924663219 0.4912766925245193 0.05295163844316719
538 -0.3884618619128378 -1.009890968905547 0.1824049736613376
539 0.6530304055613805 -0.7491566686969601 0.1999045931090705
540 0.7298774711728724 -0.6522088464415018 0.1988758416046752
541 0.6422356548860084 0.8438438322877724 0.1906480034613399
542 0.7265340144995867 0.8997001614895375 0.1246279629215772
543 0.9885534906317405 -0.4859909091572231 0.1722974772732509
544 0.8809473102521564 0.4760457013629092 -0.1999954912639735
545 0.9825975707082208 0.4689494110194728 -0.1792221704368151
546 -1.136517931666455 -0.2342744125629854 0.1194478252214711
547 0.6883618471700582 -0.5621244015377505 -0.1661839095452446
548 0.6007074232005466 -0.5403020318338675 -0.05581229859552767
549 0.6094382885533022 0.7255204831606771 0.1929919599443943
550 0.5276919189836086 -0.6099091187199841 -0.05058758973214575
551 0.5969632920110672 -0.5853305590406676 0.11454210613712
552 0.6513810383309033 0.7442981638598686 -0.199701599767745
553 0.6765866232152147 0.8650195071429734 -0.1742357719957149
554 -0.4834616002189935 0.7926122562212669 0.18675314242717
555 1.073497924162505 -0.3964604587638946 0.1384117364186445
556 -1.029493476516093 -0.1492790259208028 0.1959059098254021
557 1.073497576429937 0.3964570861842771 -0.1384132953281062
558 0.03420128185686522 -0.9002096199510963 0.1736982400269362
559 0.1969086265262923 -1.164187008329541 -0.08567126360598033
560 1.140881373743195 -0.3050824916223723 0.08515015839446449
561 1.140881373768233 0.3050824915582531 -0.085150158378261
562 -0.582561681658977 0.8918937995165486 0.1890412929612781
563 -0.9486698969059439 0.6898707980326682 -0.1003784034711478
564 0.06657298317556104 -0.9667912546957247 -0.1975955296816984
565 -0.6648421942562591 -0.4784520330973437 -0.0853033735886433
566 -0.324209353309811 -0.769951796780236 0.113646691254431
567 -0.106662302911779 0.9076800329767905 -0.1805302938638849
568 0.5401942550861605 -0.5999566756406056 0.05359637230470391
569 -0.2453619905583894 -0.820594534033751 -0.1393030687555549
570 -0.1518834241288232 -0.7882682656596842 -0.03315547384486232
571 -0.3951998747072945 -0.7956763548938741 0.165979255141194
572 0.05308990889841853 0.8051830716796883 0.05219696925473986
573 -0.2734472528619254 0.7551551679291633 0.03529678409975321
574 -0.7742701775316071 0.8600124611028579 -0.1236431561249379
575 1.141496370816474 0.07171811788668163 0.1390567085484329
576 -0.2804091113436448 -0.8348369826305845 0.1605013315610902
577 1.141496370230889 -0.07171812098569609 -0.1390567089517026
578 -1.020623795666058 -0.5838160708106362 0.09535769284891608
579 -0.9637406831062136 -0.6832575641997986 0.08428895151217392
580 -0.9916942575312547 0.4482553232951863 0.1794537316784764
581 -0.1204909389473781 -0.9773991438680002 0.1994214130896683
582 0.7132485724110426 -0.3642304793218429 0.01859847323420286
583 -0.3592639905513925 -0.877427971302964 0.1931566749211903
584 0.2759283703759188 0.7636363525805768 0.06812101547501334
585 -1.065072294563727 0.4869943905148274 0.1035130612590343
586 1.029784132746742 -0.3370163574336542 0.1817219956293184
587 0.8956887366332329 -0.1825837137411612 0.180617615730862
588 -1.055560677518248 -0.269495700704715 0.1788967178975123
589 -0.1089744762283585 0.8632485110915415 0.1520720328220386
590 0.9227943012796718 -0.09407469661256386 0.186426744163967
591 -1.100959408043405 0.07744771895566094 0.17102758979164
592 0.6912658955988084 0.749237799606646 0.1990554675738073
593 0.9201559232616561 -0.5756895217091291 0.1808476733886549
594 0.9201559239701836 0.575689520902844 -0.1808476733069508
595 0.571069553898213 -0.7364161926076134 0.1880472776441345
596 -0.6164526095901757 1.013474998827551 0.07292320364132904
597 -1.028281752561526 -0.5728697869942506 -0.09294507929842763
598 -0.303233668286441 -0.9618916654571379 0.1998168815149493
599 1.031400622357599 0.3293015928198358 -0.1821034467151939
600 0.448510335760422 1.098921110587709 0.07112898220879214
601 0.2037539100261494 -1.168823177554158 0.07236331095086052
602 -0.96075326892655 -0.04828877121760135 0.1963502415972961
603 -0.6496416517621463 -0.4673808869076333 0.01093984546401669
604 -1.103489225069827 -0.06831992825528353 0.169847546163426
605 -0.4370356991048982 -0.9274171245439278 0.1984018528053585
$EndNodes
$Elements
1282
1 1 2 1 1 1 2
2 1 2 1 1 2 3
3 1 2 1 1 3 4
4 1 2 1 1 4 5
5 1 2 1 1 5 6
6 1 2 1 1 6 7
7 1 2 1 1 7 8
8 1 2 1 1 8 9
9 1 2 1 1 9 10
10 1 2 1 1 10 11
11 1 2 1 1 11 12
12 1 2 1 1 12 13
13 1 2 1 1 13 14
14 1 2 1 1 14 15
15 1 2 1 1 15 16
16 1 2 1 1 16 17
17 1 2 1 1 17 18
18 1 2 1 1 18 19
19 1 2 1 1 19 20
20 1 2 1 1 20 21
21 1 2 1 1 21 22
22 1 2 1 1 22 23
23 1 2 1 1 23 24
24 1 2 1 1 24 25
25 1 2 1 1 25 26
26 1 2 1 1 26 27
27 1 2 1 1 27 28
28 1 2 1 1 28 29
29 1 2 1 1 29 30
30 1 2 1 1 30 31
31 1 2 1 1 31 32
32 1 2 1 1 32 33
33 1 2 1 1 33 34
34 1 2 1 1 34 35
35 1 2 1 1 35 36
36 1 2 1 1 36 37
37 1 2 1 1 37 38
38 1 2 1 1 38 39
39 1 2 1 1 39 40
40 1 2 1 1 40 41
41 1 2 1 1 41 42
42 1 2 1 1 42 43
43 1 2 1 1 43 44
44 1 2 1 1 44 45
45 1 2 1 1 45 46
46 1 2 1 1 46 47
47 1 2 1 1 47 48
48 1 2 1 1 48 49
49 1 2 1 1 49 50
50 1 2 1 1 50 51
51 1 2 1 1 51 52
52 1 2 1 1 52 53
53 1 2 1 1 53 54
54 1 2 1 1 54 55
55 1 2 1 1 55 56
56 1 2 1 1 56 57
57 1 2 1 1 57 58
58 1 2 1 1 58 59
59 1 2 1 1 59 60
60 1 2 1 1 60 61
61 1 2 1 1 61 1
62 1 2 2 2 1 62
63 1 2 2 2 62 63
64 1 2 2 2 63 64
65 1 2 2 2 64 65
66 1 2 2 2 65 66
67 1 2 2 2 66 67
68 1 2 2 2 67 68
69 1 2 2 2 68 69
70 1 2 2 2 69 70
71 1 2 2 2 70 71
72 1 2 2 2 71 1
73 2 2 3 1 1 2 309
74 2 2 3 1 1 391 2
75 2 2 3 1 1 61 317
76 2 2 3 1 1 390 61
77 2 2 3 1 62 1 309
78 2 2 3 1 390 1 62
79 2 2 3 1 71 1 317
80 2 2 3 1 391 1 71
81 2 2 3 1 97 3 2
82 2 2 3 1 309 2 3
83 2 2 3 1 97 2 391
84 2 2 3 1 4 306 3
85 2 2 3 1 561 4 3
86 2 2 3 1 561 3 97
87 2 2 3 1 309 3 306
88 2 2 3 1 353 4 5
89 2 2 3 1 5 4 557
90 2 2 3 1 353 306 4
91 2 2 3 1 4 561 557
92 2 2 3 1 5 6 173
93 2 2 3 1 217 6 5
94 2 2 3 1 5 173 353
95 2 2 3 1 217 5 557
96 2 2 3 1 98 6 7
97 2 2 3 1 6 203 7
98 2 2 3 1 98 173 6
99 2 2 3 1 217 203 6
100 2 2 3 1 99 7 8
101 2 2 3 1 7 202 8
102 2 2 3 1 98 7 99
103 2 2 3 1 7 203 202
104 2 2 3 1 128 8 9
105 2 2 3 1 202 9 8
106 2 2 3 1 128 99 8
107 2 2 3 1 9 206 10
108 2 2 3 1 542 9 10
109 2 2 3 1 128 9 542
110 2 2 3 1 206 9 202
111 2 2 3 1 10 11 290
112 2 2 3 1 11 10 351
113 2 2 3 1 206 351 10
114 2 2 3 1 542 10 290
115 2 2 3 1 11 12 287
116 2 2 3 1 364 12 11
117 2 2 3 1 290 11 287
118 2 2 3 1 364 11 351
119 2 2 3 1 355 13 12
120 2 2 3 1 600 12 13
121 2 2 3 1 12 600 287
122 2 2 3 1 355 12 364
123 2 2 3 1 166 14 13
124 2 2 3 1 14 535 13
125 2 2 3 1 355 166 13
126 2 2 3 1 535 503 13
127 2 2 3 1 503 600 13
128 2 2 3 1 167 15 14
129 2 2 3 1 504 14 15
130 2 2 3 1 167 14 166
131 2 2 3 1 535 14 504
132 2 2 3 1 16 15 507
133 2 2 3 1 15 16 517
134 2 2 3 1 15 167 507
135 2 2 3 1 15 517 504
136 2 2 3 1 170 17 16
137 2 2 3 1 17 417 16
138 2 2 3 1 170 16 507
139 2 2 3 1 16 417 517
140 2 2 3 1 116 18 17
141 2 2 3 1 505 17 18
142 2 2 3 1 116 17 170
143 2 2 3 1 17 505 417
144 2 2 3 1 18 322 19
145 2 2 3 1 19 478 18
146 2 2 3 1 117 18 116
147 2 2 3 1 117 322 18
148 2 2 3 1 505 18 478
149 2 2 3 1 19 385 20
150 2 2 3 1 479 19 20
151 2 2 3 1 19 322 385
152 2 2 3 1 478 19 479
153 2 2 3 1 21 20 75
154 2 2 3 1 21 459 20
155 2 2 3 1 20 385 75
156 2 2 3 1 459 479 20
157 2 2 3 1 21 76 22
158 2 2 3 1 22 596 21
159 2 2 3 1 75 76 21
160 2 2 3 1 21 460 459
161 2 2 3 1 596 460 21
162 2 2 3 1 22 78 23
163 2 2 3 1 22 23 494
164 2 2 3 1 76 78 22
165 2 2 3 1 493 22 494
166 2 2 3 1 596 22 493
167 2 2 3 1 23 24 406
168 2 2 3 1 24 23 574
169 2 2 3 1 78 574 23
170 2 2 3 1 494 23 406
171 2 2 3 1 281 24 25
172 2 2 3 1 24 486 25
173 2 2 3 1 406 24 281
174 2 2 3 1 486 24 574
175 2 2 3 1 26 280 25
176 2 2 3 1 563 26 25
177 2 2 3 1 281 25 280
178 2 2 3 1 486 563 25
179 2 2 3 1 83 26 27
180 2 2 3 1 27 26 275
181 2 2 3 1 280 26 83
182 2 2 3 1 26 563 275
183 2 2 3 1 111 28 27
184 2 2 3 1 27 28 585
185 2 2 3 1 27 585 83
186 2 2 3 1 27 275 111
187 2 2 3 1 29 28 110
188 2 2 3 1 29 466 28
189 2 2 3 1 110 28 111
190 2 2 3 1 28 466 585
191 2 2 3 1 29 442 30
192 2 2 3 1 29 30 465
193 2 2 3 1 442 29 110
194 2 2 3 1 466 29 465
195 2 2 3 1 169 31 30
196 2 2 3 1 428 30 31
197 2 2 3 1 442 169 30
198 2 2 3 1 465 30 428
199 2 2 3 1 168 32 31
200 2 2 3 1 31 32 366
201 2 2 3 1 168 31 169
202 2 2 3 1 31 366 428
203 2 2 3 1 32 33 368
204 2 2 3 1 32 502 33
205 2 2 3 1 502 32 168
206 2 2 3 1 32 368 366
207 2 2 3 1 109 34 33
208 2 2 3 1 34 546 33
209 2 2 3 1 109 33 502
210 2 2 3 1 33 546 368
211 2 2 3 1 34 108 35
212 2 2 3 1 35 326 34
213 2 2 3 1 34 109 108
214 2 2 3 1 546 34 326
215 2 2 3 1 135 36 35
216 2 2 3 1 332 35 36
217 2 2 3 1 108 135 35
218 2 2 3 1 326 35 332
219 2 2 3 1 36 37 578
220 2 2 3 1 37 36 597
221 2 2 3 1 597 36 135
222 2 2 3 1 36 578 332
223 2 2 3 1 37 231 38
224 2 2 3 1 579 37 38
225 2 2 3 1 231 37 597
226 2 2 3 1 37 579 578
227 2 2 3 1 256 39 38
228 2 2 3 1 39 435 38
229 2 2 3 1 256 38 231
230 2 2 3 1 38 435 579
231 2 2 3 1 40 39 242
232 2 2 3 1 457 39 40
233 2 2 3 1 242 39 256
234 2 2 3 1 39 457 435
235 2 2 3 1 453 41 40
236 2 2 3 1 467 40 41
237 2 2 3 1 242 453 40
238 2 2 3 1 40 467 457
239 2 2 3 1 42 185 41
240 2 2 3 1 41 453 42
241 2 2 3 1 467 41 185
242 2 2 3 1 42 43 187
243 2 2 3 1 43 42 235
244 2 2 3 1 187 185 42
245 2 2 3 1 42 453 235
246 2 2 3 1 172 44 43
247 2 2 3 1 43 44 248
248 2 2 3 1 172 43 235
249 2 2 3 1 187 43 248
250 2 2 3 1 44 171 45
251 2 2 3 1 247 44 45
252 2 2 3 1 44 172 171
253 2 2 3 1 44 247 248
254 2 2 3 1 247 45 46
255 2 2 3 1 526 46 45
256 2 2 3 1 526 45 171
257 2 2 3 1 46 130 47
258 2 2 3 1 46 47 441
259 2 2 3 1 46 526 130
260 2 2 3 1 247 46 441
261 2 2 3 1 48 47 131
262 2 2 3 1 47 48 378
263 2 2 3 1 47 130 131
264 2 2 3 1 441 47 378
265 2 2 3 1 48 559 49
266 2 2 3 1 601 48 49
267 2 2 3 1 559 48 131
268 2 2 3 1 48 601 378
269 2 2 3 1 50 127 49
270 2 2 3 1 50 49 215
271 2 2 3 1 377 49 127
272 2 2 3 1 559 215 49
273 2 2 3 1 377 601 49
274 2 2 3 1 126 50 51
275 2 2 3 1 213 51 50
276 2 2 3 1 126 127 50
277 2 2 3 1 213 50 215
278 2 2 3 1 365 51 52
279 2 2 3 1 52 51 405
280 2 2 3 1 126 51 365
281 2 2 3 1 51 213 405
282 2 2 3 1 53 52 253
283 2 2 3 1 52 53 340
284 2 2 3 1 253 52 405
285 2 2 3 1 365 52 340
286 2 2 3 1 197 54 53
287 2 2 3 1 54 204 53
288 2 2 3 1 197 53 253
289 2 2 3 1 204 340 53
290 2 2 3 1 129 55 54
291 2 2 3 1 205 54 55
292 2 2 3 1 129 54 197
293 2 2 3 1 204 54 205
294 2 2 3 1 101 56 55
295 2 2 3 1 56 205 55
296 2 2 3 1 129 101 55
297 2 2 3 1 100 57 56
298 2 2 3 1 57 207 56
299 2 2 3 1 100 56 101
300 2 2 3 1 56 207 205
301 2 2 3 1 58 57 160
302 2 2 3 1 216 57 58
303 2 2 3 1 100 160 57
304 2 2 3 1 216 207 57
305 2 2 3 1 361 59 58
306 2 2 3 1 58 59 555
307 2 2 3 1 58 160 361
308 2 2 3 1 216 58 555
309 2 2 3 1 59 314 60
310 2 2 3 1 560 59 60
311 2 2 3 1 361 314 59
312 2 2 3 1 59 560 555
313 2 2 3 1 95 60 61
314 2 2 3 1 317 61 60
315 2 2 3 1 560 60 95
316 2 2 3 1 317 60 314
317 2 2 3 1 95 61 390
318 2 2 3 1 390 62 63
319 2 2 3 1 62 575 63
320 2 2 3 1 575 62 309
321 2 2 3 1 63 310 64
322 2 2 3 1 484 63 64
323 2 2 3 1 138 390 63
324 2 2 3 1 484 138 63
325 2 2 3 1 310 63 307
326 2 2 3 1 575 307 63
327 2 2 3 1 273 65 64
328 2 2 3 1 590 64 65
329 2 2 3 1 64 310 273
330 2 2 3 1 590 484 64
331 2 2 3 1 65 104 66
332 2 2 3 1 65 66 285
333 2 2 3 1 65 273 104
334 2 2 3 1 590 65 285
335 2 2 3 1 67 263 66
336 2 2 3 1 66 444 67
337 2 2 3 1 444 66 104
338 2 2 3 1 285 66 263
339 2 2 3 1 68 151 67
340 2 2 3 1 68 67 437
341 2 2 3 1 263 67 151
342 2 2 3 1 437 67 444
343 2 2 3 1 274 68 69
344 2 2 3 1 432 69 68
345 2 2 3 1 68 274 151
346 2 2 3 1 432 68 437
347 2 2 3 1 70 318 69
348 2 2 3 1 433 70 69
349 2 2 3 1 69 318 274
350 2 2 3 1 432 433 69
351 2 2 3 1 391 71 70
352 2 2 3 1 71 577 70
353 2 2 3 1 318 70 315
354 2 2 3 1 577 315 70
355 2 2 3 1 462 391 70
356 2 2 3 1 433 462 70
357 2 2 3 1 577 71 317
358 2 2 3 1 72 74 73
359 2 2 3 1 72 73 79
360 2 2 3 1 72 255 74
361 2 2 3 1 79 313 72
362 2 2 3 1 72 300 255
363 2 2 3 1 300 72 313
364 2 2 3 1 73 74 422
365 2 2 3 1 73 429 79
366 2 2 3 1 429 73 422
367 2 2 3 1 255 254 74
368 2 2 3 1 527 74 254
369 2 2 3 1 473 422 74
370 2 2 3 1 74 527 473
371 2 2 3 1 75 77 76
372 2 2 3 1 75 323 77
373 2 2 3 1 385 323 75
374 2 2 3 1 77 78 76
375 2 2 3 1 77 258 78
376 2 2 3 1 77 420 258
377 2 2 3 1 77 323 420
378 2 2 3 1 78 258 259
379 2 2 3 1 574 78 259
380 2 2 3 1 313 79 455
381 2 2 3 1 79 429 455
382 2 2 3 1 80 82 81
383 2 2 3 1 80 81 84
384 2 2 3 1 80 85 82
385 2 2 3 1 80 84 87
386 2 2 3 1 85 80 86
387 2 2 3 1 86 80 87
388 2 2 3 1 572 81 82
389 2 2 3 1 84 81 395
390 2 2 3 1 81 311 395
391 2 2 3 1 572 311 81
392 2 2 3 1 85 589 82
393 2 2 3 1 193 572 82
394 2 2 3 1 589 193 82
395 2 2 3 1 282 280 83
396 2 2 3 1 580 282 83
397 2 2 3 1 585 580 83
398 2 2 3 1 87 84 223
399 2 2 3 1 84 219 218
400 2 2 3 1 84 218 223
401 2 2 3 1 219 84 395
402 2 2 3 1 86 447 85
403 2 2 3 1 336 85 449
404 2 2 3 1 589 85 336
405 2 2 3 1 449 85 447
406 2 2 3 1 86 87 517
407 2 2 3 1 447 86 517
408 2 2 3 1 87 223 504
409 2 2 3 1 517 87 504
410 2 2 3 1 88 90 89
411 2 2 3 1 336 88 89
412 2 2 3 1 90 88 319
413 2 2 3 1 320 319 88
414 2 2 3 1 328 320 88
415 2 2 3 1 88 336 328
416 2 2 3 1 89 90 91
417 2 2 3 1 89 91 573
418 2 2 3 1 194 89 573
419 2 2 3 1 589 89 194
420 2 2 3 1 89 589 336
421 2 2 3 1 90 554 91
422 2 2 3 1 554 90 319
423 2 2 3 1 91 389 347
424 2 2 3 1 347 573 91
425 2 2 3 1 389 91 554
426 2 2 3 1 92 94 93
427 2 2 3 1 92 93 96
428 2 2 3 1 303 94 92
429 2 2 3 1 92 96 513
430 2 2 3 1 305 303 92
431 2 2 3 1 305 92 584
432 2 2 3 1 92 513 584
433 2 2 3 1 93 94 201
434 2 2 3 1 96 93 357
435 2 2 3 1 201 358 93
436 2 2 3 1 93 358 357
437 2 2 3 1 198 199 94
438 2 2 3 1 94 303 198
439 2 2 3 1 94 199 201
440 2 2 3 1 95 138 136
441 2 2 3 1 95 136 560
442 2 2 3 1 390 138 95
443 2 2 3 1 96 357 387
444 2 2 3 1 513 96 387
445 2 2 3 1 391 462 97
446 2 2 3 1 97 462 461
447 2 2 3 1 97 461 561
448 2 2 3 1 125 98 99
449 2 2 3 1 98 125 124
450 2 2 3 1 98 124 173
451 2 2 3 1 228 125 99
452 2 2 3 1 128 228 99
453 2 2 3 1 118 100 101
454 2 2 3 1 100 118 114
455 2 2 3 1 100 114 160
456 2 2 3 1 195 118 101
457 2 2 3 1 129 195 101
458 2 2 3 1 102 104 103
459 2 2 3 1 102 103 148
460 2 2 3 1 104 102 443
461 2 2 3 1 446 102 148
462 2 2 3 1 102 446 443
463 2 2 3 1 273 103 104
464 2 2 3 1 386 148 103
465 2 2 3 1 103 273 310
466 2 2 3 1 103 310 386
467 2 2 3 1 443 444 104
468 2 2 3 1 105 107 106
469 2 2 3 1 106 139 105
470 2 2 3 1 107 105 227
471 2 2 3 1 105 139 363
472 2 2 3 1 105 363 227
473 2 2 3 1 451 106 107
474 2 2 3 1 106 140 139
475 2 2 3 1 140 106 452
476 2 2 3 1 106 451 452
477 2 2 3 1 465 107 227
478 2 2 3 1 428 107 465
479 2 2 3 1 428 591 107
480 2 2 3 1 450 451 107
481 2 2 3 1 591 450 107
482 2 2 3 1 108 109 312
483 2 2 3 1 134 135 108
484 2 2 3 1 134 108 312
485 2 2 3 1 109 302 312
486 2 2 3 1 302 109 502
487 2 2 3 1 276 110 111
488 2 2 3 1 110 276 179
489 2 2 3 1 179 442 110
490 2 2 3 1 275 276 111
491 2 2 3 1 112 114 113
492 2 2 3 1 112 113 270
493 2 2 3 1 114 112 164
494 2 2 3 1 112 518 164
495 2 2 3 1 529 112 270
496 2 2 3 1 112 529 518
497 2 2 3 1 113 114 118
498 2 2 3 1 291 113 118
499 2 2 3 1 547 270 113
500 2 2 3 1 547 113 291
501 2 2 3 1 160 114 164
502 2 2 3 1 115 117 116
503 2 2 3 1 115 116 170
504 2 2 3 1 115 370 117
505 2 2 3 1 115 170 506
506 2 2 3 1 370 115 294
507 2 2 3 1 506 294 115
508 2 2 3 1 117 321 322
509 2 2 3 1 370 321 117
510 2 2 3 1 195 291 118
511 2 2 3 1 119 121 120
512 2 2 3 1 569 119 120
513 2 2 3 1 119 184 121
514 2 2 3 1 119 147 145
515 2 2 3 1 184 119 145
516 2 2 3 1 119 569 147
517 2 2 3 1 120 121 566
518 2 2 3 1 120 566 475
519 2 2 3 1 570 120 475
520 2 2 3 1 570 569 120
521 2 2 3 1 188 159 121
522 2 2 3 1 159 566 121
523 2 2 3 1 188 121 184
524 2 2 3 1 122 124 123
525 2 2 3 1 122 123 250
526 2 2 3 1 124 122 174
527 2 2 3 1 122 519 174
528 2 2 3 1 492 122 250
529 2 2 3 1 122 492 519
530 2 2 3 1 123 124 125
531 2 2 3 1 229 123 125
532 2 2 3 1 252 123 229
533 2 2 3 1 252 250 123
534 2 2 3 1 173 124 174
535 2 2 3 1 228 229 125
536 2 2 3 1 341 127 126
537 2 2 3 1 337 341 126
538 2 2 3 1 365 337 126
539 2 2 3 1 127 341 377
540 2 2 3 1 228 128 542
541 2 2 3 1 195 129 197
542 2 2 3 1 130 132 131
543 2 2 3 1 130 489 132
544 2 2 3 1 489 130 526
545 2 2 3 1 132 182 131
546 2 2 3 1 249 131 182
547 2 2 3 1 131 249 559
548 2 2 3 1 132 564 182
549 2 2 3 1 132 489 498
550 2 2 3 1 564 132 498
551 2 2 3 1 133 135 134
552 2 2 3 1 134 313 133
553 2 2 3 1 135 133 230
554 2 2 3 1 456 230 133
555 2 2 3 1 455 133 313
556 2 2 3 1 456 133 455
557 2 2 3 1 313 134 312
558 2 2 3 1 230 597 135
559 2 2 3 1 136 138 137
560 2 2 3 1 136 137 180
561 2 2 3 1 180 586 136
562 2 2 3 1 560 136 555
563 2 2 3 1 586 555 136
564 2 2 3 1 138 484 137
565 2 2 3 1 137 587 180
566 2 2 3 1 137 484 590
567 2 2 3 1 587 137 590
568 2 2 3 1 260 139 140
569 2 2 3 1 139 260 269
570 2 2 3 1 363 139 269
571 2 2 3 1 140 261 260
572 2 2 3 1 140 468 261
573 2 2 3 1 468 140 452
574 2 2 3 1 141 143 142
575 2 2 3 1 141 142 144
576 2 2 3 1 436 143 141
577 2 2 3 1 144 284 141
578 2 2 3 1 141 284 530
579 2 2 3 1 141 530 436
580 2 2 3 1 334 142 143
581 2 2 3 1 144 142 342
582 2 2 3 1 142 334 333
583 2 2 3 1 142 333 342
584 2 2 3 1 143 434 334
585 2 2 3 1 434 143 435
586 2 2 3 1 143 436 435
587 2 2 3 1 480 284 144
588 2 2 3 1 144 342 423
589 2 2 3 1 423 480 144
590 2 2 3 1 145 147 146
591 2 2 3 1 145 146 512
592 2 2 3 1 184 145 512
593 2 2 3 1 146 147 156
594 2 2 3 1 146 156 236
595 2 2 3 1 237 146 236
596 2 2 3 1 146 237 512
597 2 2 3 1 569 156 147
598 2 2 3 1 386 519 148
599 2 2 3 1 148 492 446
600 2 2 3 1 148 519 492
601 2 2 3 1 149 151 150
602 2 2 3 1 149 150 152
603 2 2 3 1 262 151 149
604 2 2 3 1 528 149 152
605 2 2 3 1 528 262 149
606 2 2 3 1 274 150 151
607 2 2 3 1 388 152 150
608 2 2 3 1 150 274 318
609 2 2 3 1 150 318 388
610 2 2 3 1 151 262 263
611 2 2 3 1 388 518 152
612 2 2 3 1 152 518 529
613 2 2 3 1 152 529 528
614 2 2 3 1 153 155 154
615 2 2 3 1 177 153 154
616 2 2 3 1 153 534 155
617 2 2 3 1 153 177 179
618 2 2 3 1 178 153 179
619 2 2 3 1 153 178 189
620 2 2 3 1 534 153 189
621 2 2 3 1 255 154 155
622 2 2 3 1 175 177 154
623 2 2 3 1 301 175 154
624 2 2 3 1 154 255 301
625 2 2 3 1 254 255 155
626 2 2 3 1 254 155 261
627 2 2 3 1 278 261 155
628 2 2 3 1 534 278 155
629 2 2 3 1 491 236 156
630 2 2 3 1 156 487 491
631 2 2 3 1 569 487 156
632 2 2 3 1 157 159 158
633 2 2 3 1 335 157 158
634 2 2 3 1 157 571 159
635 2 2 3 1 367 186 157
636 2 2 3 1 186 605 157
637 2 2 3 1 157 335 367
638 2 2 3 1 583 571 157
639 2 2 3 1 605 583 157
640 2 2 3 1 158 159 176
641 2 2 3 1 176 334 158
642 2 2 3 1 158 334 335
643 2 2 3 1 159 188 176
644 2 2 3 1 566 159 571
645 2 2 3 1 361 160 164
646 2 2 3 1 161 163 162
647 2 2 3 1 161 162 356
648 2 2 3 1 161 564 163
649 2 2 3 1 463 181 161
650 2 2 3 1 181 564 161
651 2 2 3 1 464 161 356
652 2 2 3 1 161 464 463
653 2 2 3 1 409 162 163
654 2 2 3 1 356 162 349
655 2 2 3 1 409 349 162
656 2 2 3 1 163 499 409
657 2 2 3 1 499 163 498
658 2 2 3 1 564 498 163
659 2 2 3 1 164 362 361
660 2 2 3 1 164 518 362
661 2 2 3 1 165 167 166
662 2 2 3 1 165 166 208
663 2 2 3 1 167 165 327
664 2 2 3 1 212 165 208
665 2 2 3 1 165 212 327
666 2 2 3 1 166 352 208
667 2 2 3 1 166 355 352
668 2 2 3 1 507 167 327
669 2 2 3 1 175 168 169
670 2 2 3 1 168 175 396
671 2 2 3 1 396 502 168
672 2 2 3 1 169 177 175
673 2 2 3 1 169 442 177
674 2 2 3 1 170 507 506
675 2 2 3 1 171 172 491
676 2 2 3 1 488 171 491
677 2 2 3 1 171 488 526
678 2 2 3 1 235 236 172
679 2 2 3 1 491 172 236
680 2 2 3 1 353 173 174
681 2 2 3 1 174 354 353
682 2 2 3 1 174 519 354
683 2 2 3 1 301 396 175
684 2 2 3 1 400 176 188
685 2 2 3 1 176 333 334
686 2 2 3 1 333 176 400
687 2 2 3 1 177 442 179
688 2 2 3 1 276 178 179
689 2 2 3 1 189 178 277
690 2 2 3 1 178 276 277
691 2 2 3 1 225 180 226
692 2 2 3 1 586 180 225
693 2 2 3 1 587 226 180
694 2 2 3 1 181 183 182
695 2 2 3 1 564 181 182
696 2 2 3 1 463 183 181
697 2 2 3 1 183 249 182
698 2 2 3 1 214 215 183
699 2 2 3 1 470 214 183
700 2 2 3 1 183 215 249
701 2 2 3 1 463 470 183
702 2 2 3 1 190 188 184
703 2 2 3 1 521 190 184
704 2 2 3 1 512 521 184
705 2 2 3 1 185 187 186
706 2 2 3 1 186 367 185
707 2 2 3 1 367 467 185
708 2 2 3 1 538 186 187
709 2 2 3 1 605 186 538
710 2 2 3 1 248 538 187
711 2 2 3 1 190 400 188
712 2 2 3 1 277 297 189
713 2 2 3 1 278 189 510
714 2 2 3 1 278 534 189
715 2 2 3 1 189 297 510
716 2 2 3 1 400 190 565
717 2 2 3 1 521 458 190
718 2 2 3 1 458 565 190
719 2 2 3 1 191 193 192
720 2 2 3 1 192 520 191
721 2 2 3 1 193 191 572
722 2 2 3 1 304 191 211
723 2 2 3 1 520 211 191
724 2 2 3 1 572 191 304
725 2 2 3 1 192 193 194
726 2 2 3 1 192 194 393
727 2 2 3 1 520 192 393
728 2 2 3 1 193 589 194
729 2 2 3 1 573 393 194
730 2 2 3 1 195 197 196
731 2 2 3 1 195 196 245
732 2 2 3 1 195 245 291
733 2 2 3 1 196 197 253
734 2 2 3 1 196 403 245
735 2 2 3 1 403 196 253
736 2 2 3 1 198 200 199
737 2 2 3 1 200 198 208
738 2 2 3 1 212 208 198
739 2 2 3 1 198 209 212
740 2 2 3 1 303 209 198
741 2 2 3 1 199 200 515
742 2 2 3 1 201 199 515
743 2 2 3 1 208 352 200
744 2 2 3 1 343 344 200
745 2 2 3 1 352 343 200
746 2 2 3 1 344 515 200
747 2 2 3 1 201 552 358
748 2 2 3 1 552 201 515
749 2 2 3 1 203 448 202
750 2 2 3 1 206 202 481
751 2 2 3 1 481 202 448
752 2 2 3 1 217 594 203
753 2 2 3 1 203 594 448
754 2 2 3 1 204 205 482
755 2 2 3 1 340 204 509
756 2 2 3 1 482 509 204
757 2 2 3 1 207 445 205
758 2 2 3 1 482 205 445
759 2 2 3 1 351 206 553
760 2 2 3 1 481 553 206
761 2 2 3 1 216 593 207
762 2 2 3 1 207 593 445
763 2 2 3 1 209 211 210
764 2 2 3 1 210 212 209
765 2 2 3 1 209 304 211
766 2 2 3 1 303 304 209
767 2 2 3 1 211 294 210
768 2 2 3 1 212 210 327
769 2 2 3 1 294 506 210
770 2 2 3 1 506 327 210
771 2 2 3 1 567 294 211
772 2 2 3 1 520 567 211
773 2 2 3 1 213 215 214
774 2 2 3 1 213 214 404
775 2 2 3 1 404 405 213
776 2 2 3 1 214 470 404
777 2 2 3 1 249 215 559
778 2 2 3 1 555 543 216
779 2 2 3 1 543 593 216
780 2 2 3 1 557 545 217
781 2 2 3 1 545 594 217
782 2 2 3 1 219 286 218
783 2 2 3 1 503 223 218
784 2 2 3 1 286 503 218
785 2 2 3 1 219 372 286
786 2 2 3 1 372 219 394
787 2 2 3 1 394 219 395
788 2 2 3 1 220 222 221
789 2 2 3 1 220 221 241
790 2 2 3 1 220 256 222
791 2 2 3 1 242 220 241
792 2 2 3 1 220 242 256
793 2 2 3 1 221 222 224
794 2 2 3 1 458 221 224
795 2 2 3 1 521 241 221
796 2 2 3 1 458 521 221
797 2 2 3 1 222 230 224
798 2 2 3 1 222 231 230
799 2 2 3 1 222 256 231
800 2 2 3 1 503 504 223
801 2 2 3 1 230 456 224
802 2 2 3 1 456 454 224
803 2 2 3 1 458 224 454
804 2 2 3 1 225 226 292
805 2 2 3 1 329 225 292
806 2 2 3 1 225 329 543
807 2 2 3 1 225 543 555
808 2 2 3 1 555 586 225
809 2 2 3 1 226 264 283
810 2 2 3 1 587 264 226
811 2 2 3 1 226 283 292
812 2 2 3 1 363 580 227
813 2 2 3 1 466 465 227
814 2 2 3 1 580 466 227
815 2 2 3 1 228 592 229
816 2 2 3 1 228 542 541
817 2 2 3 1 592 228 541
818 2 2 3 1 384 252 229
819 2 2 3 1 549 384 229
820 2 2 3 1 592 549 229
821 2 2 3 1 597 230 231
822 2 2 3 1 232 234 233
823 2 2 3 1 232 233 239
824 2 2 3 1 234 232 550
825 2 2 3 1 232 239 238
826 2 2 3 1 238 496 232
827 2 2 3 1 232 496 568
828 2 2 3 1 232 568 550
829 2 2 3 1 289 233 234
830 2 2 3 1 233 464 239
831 2 2 3 1 289 469 233
832 2 2 3 1 233 469 464
833 2 2 3 1 244 234 243
834 2 2 3 1 234 550 243
835 2 2 3 1 234 244 289
836 2 2 3 1 235 237 236
837 2 2 3 1 235 453 237
838 2 2 3 1 237 453 240
839 2 2 3 1 237 240 512
840 2 2 3 1 374 238 239
841 2 2 3 1 373 238 374
842 2 2 3 1 238 373 495
843 2 2 3 1 238 495 496
844 2 2 3 1 350 374 239
845 2 2 3 1 464 350 239
846 2 2 3 1 240 242 241
847 2 2 3 1 512 240 241
848 2 2 3 1 453 242 240
849 2 2 3 1 241 521 512
850 2 2 3 1 243 245 244
851 2 2 3 1 245 243 291
852 2 2 3 1 243 547 291
853 2 2 3 1 547 243 548
854 2 2 3 1 550 548 243
855 2 2 3 1 244 245 403
856 2 2 3 1 289 244 403
857 2 2 3 1 246 248 247
858 2 2 3 1 247 439 246
859 2 2 3 1 538 248 246
860 2 2 3 1 439 581 246
861 2 2 3 1 246 581 477
862 2 2 3 1 598 246 477
863 2 2 3 1 246 598 538
864 2 2 3 1 439 247 441
865 2 2 3 1 250 252 251
866 2 2 3 1 250 251 471
867 2 2 3 1 471 492 250
868 2 2 3 1 382 251 252
869 2 2 3 1 382 380 251
870 2 2 3 1 380 523 251
871 2 2 3 1 523 471 251
872 2 2 3 1 252 384 382
873 2 2 3 1 405 403 253
874 2 2 3 1 261 468 254
875 2 2 3 1 468 527 254
876 2 2 3 1 300 301 255
877 2 2 3 1 257 259 258
878 2 2 3 1 421 257 258
879 2 2 3 1 257 296 259
880 2 2 3 1 330 296 257
881 2 2 3 1 257 331 330
882 2 2 3 1 257 421 331
883 2 2 3 1 420 421 258
884 2 2 3 1 295 259 296
885 2 2 3 1 574 259 295
886 2 2 3 1 261 278 260
887 2 2 3 1 268 269 260
888 2 2 3 1 260 508 268
889 2 2 3 1 508 260 278
890 2 2 3 1 262 264 263
891 2 2 3 1 264 262 283
892 2 2 3 1 262 528 283
893 2 2 3 1 263 264 285
894 2 2 3 1 264 587 285
895 2 2 3 1 265 267 266
896 2 2 3 1 266 532 265
897 2 2 3 1 265 406 267
898 2 2 3 1 265 494 406
899 2 2 3 1 494 265 493
900 2 2 3 1 265 562 493
901 2 2 3 1 562 265 532
902 2 2 3 1 279 266 267
903 2 2 3 1 266 279 411
904 2 2 3 1 266 411 413
905 2 2 3 1 413 532 266
906 2 2 3 1 279 267 280
907 2 2 3 1 267 281 280
908 2 2 3 1 281 267 406
909 2 2 3 1 269 268 425
910 2 2 3 1 268 410 425
911 2 2 3 1 537 410 268
912 2 2 3 1 508 510 268
913 2 2 3 1 536 268 510
914 2 2 3 1 536 537 268
915 2 2 3 1 426 363 269
916 2 2 3 1 425 426 269
917 2 2 3 1 270 272 271
918 2 2 3 1 271 529 270
919 2 2 3 1 270 547 272
920 2 2 3 1 271 272 398
921 2 2 3 1 582 271 398
922 2 2 3 1 528 529 271
923 2 2 3 1 271 582 528
924 2 2 3 1 272 548 398
925 2 2 3 1 548 272 547
926 2 2 3 1 276 275 277
927 2 2 3 1 275 514 277
928 2 2 3 1 275 563 514
929 2 2 3 1 277 299 297
930 2 2 3 1 299 277 514
931 2 2 3 1 510 508 278
932 2 2 3 1 279 280 282
933 2 2 3 1 533 279 282
934 2 2 3 1 533 411 279
935 2 2 3 1 533 282 426
936 2 2 3 1 282 580 426
937 2 2 3 1 283 293 292
938 2 2 3 1 293 283 582
939 2 2 3 1 528 582 283
940 2 2 3 1 324 325 284
941 2 2 3 1 480 324 284
942 2 2 3 1 325 530 284
943 2 2 3 1 285 587 590
944 2 2 3 1 286 288 287
945 2 2 3 1 286 287 503
946 2 2 3 1 372 288 286
947 2 2 3 1 287 288 290
948 2 2 3 1 600 503 287
949 2 2 3 1 288 541 290
950 2 2 3 1 371 288 372
951 2 2 3 1 541 288 371
952 2 2 3 1 402 289 403
953 2 2 3 1 289 402 469
954 2 2 3 1 541 542 290
955 2 2 3 1 292 293 407
956 2 2 3 1 329 292 407
957 2 2 3 1 293 398 397
958 2 2 3 1 397 401 293
959 2 2 3 1 398 293 582
960 2 2 3 1 401 407 293
961 2 2 3 1 567 370 294
962 2 2 3 1 295 296 299
963 2 2 3 1 295 299 485
964 2 2 3 1 485 486 295
965 2 2 3 1 486 574 295
966 2 2 3 1 296 298 299
967 2 2 3 1 296 330 298
968 2 2 3 1 297 299 298
969 2 2 3 1 536 297 298
970 2 2 3 1 297 536 510
971 2 2 3 1 330 399 298
972 2 2 3 1 399 536 298
973 2 2 3 1 485 299 514
974 2 2 3 1 300 302 301
975 2 2 3 1 302 300 312
976 2 2 3 1 300 313 312
977 2 2 3 1 396 301 302
978 2 2 3 1 302 502 396
979 2 2 3 1 305 304 303
980 2 2 3 1 304 305 311
981 2 2 3 1 311 572 304
982 2 2 3 1 584 311 305
983 2 2 3 1 306 308 307
984 2 2 3 1 309 306 307
985 2 2 3 1 353 308 306
986 2 2 3 1 307 308 310
987 2 2 3 1 307 575 309
988 2 2 3 1 310 308 386
989 2 2 3 1 353 354 308
990 2 2 3 1 386 308 354
991 2 2 3 1 311 584 395
992 2 2 3 1 314 316 315
993 2 2 3 1 317 314 315
994 2 2 3 1 361 316 314
995 2 2 3 1 315 316 318
996 2 2 3 1 315 577 317
997 2 2 3 1 318 316 388
998 2 2 3 1 361 362 316
999 2 2 3 1 388 316 362
1000 2 2 3 1 320 460 319
1001 2 2 3 1 562 319 460
1002 2 2 3 1 562 554 319
1003 2 2 3 1 328 479 320
1004 2 2 3 1 459 460 320
1005 2 2 3 1 479 459 320
1006 2 2 3 1 321 323 322
1007 2 2 3 1 321 490 323
1008 2 2 3 1 369 321 370
1009 2 2 3 1 490 321 369
1010 2 2 3 1 323 385 322
1011 2 2 3 1 490 420 323
1012 2 2 3 1 324 326 325
1013 2 2 3 1 324 588 326
1014 2 2 3 1 324 480 483
1015 2 2 3 1 588 324 483
1016 2 2 3 1 325 326 332
1017 2 2 3 1 530 325 332
1018 2 2 3 1 588 546 326
1019 2 2 3 1 506 507 327
1020 2 2 3 1 449 328 336
1021 2 2 3 1 449 478 328
1022 2 2 3 1 478 479 328
1023 2 2 3 1 593 329 407
1024 2 2 3 1 329 593 543
1025 2 2 3 1 345 330 331
1026 2 2 3 1 345 346 330
1027 2 2 3 1 330 346 399
1028 2 2 3 1 392 345 331
1029 2 2 3 1 421 392 331
1030 2 2 3 1 578 530 332
1031 2 2 3 1 342 333 400
1032 2 2 3 1 334 434 335
1033 2 2 3 1 335 457 367
1034 2 2 3 1 457 335 434
1035 2 2 3 1 337 339 338
1036 2 2 3 1 341 337 338
1037 2 2 3 1 340 339 337
1038 2 2 3 1 337 365 340
1039 2 2 3 1 339 516 338
1040 2 2 3 1 379 341 338
1041 2 2 3 1 373 383 338
1042 2 2 3 1 373 338 516
1043 2 2 3 1 379 338 383
1044 2 2 3 1 340 509 339
1045 2 2 3 1 516 339 509
1046 2 2 3 1 377 341 379
1047 2 2 3 1 603 342 400
1048 2 2 3 1 427 423 342
1049 2 2 3 1 342 603 427
1050 2 2 3 1 351 344 343
1051 2 2 3 1 343 364 351
1052 2 2 3 1 343 352 355
1053 2 2 3 1 364 343 355
1054 2 2 3 1 351 553 344
1055 2 2 3 1 515 344 553
1056 2 2 3 1 345 347 346
1057 2 2 3 1 345 531 347
1058 2 2 3 1 531 345 392
1059 2 2 3 1 346 347 389
1060 2 2 3 1 412 346 389
1061 2 2 3 1 346 412 399
1062 2 2 3 1 573 347 531
1063 2 2 3 1 348 350 349
1064 2 2 3 1 349 359 348
1065 2 2 3 1 350 348 408
1066 2 2 3 1 348 359 558
1067 2 2 3 1 348 522 408
1068 2 2 3 1 348 558 522
1069 2 2 3 1 356 349 350
1070 2 2 3 1 349 360 359
1071 2 2 3 1 349 409 360
1072 2 2 3 1 350 464 356
1073 2 2 3 1 374 350 408
1074 2 2 3 1 519 386 354
1075 2 2 3 1 358 418 357
1076 2 2 3 1 357 380 387
1077 2 2 3 1 418 380 357
1078 2 2 3 1 358 419 418
1079 2 2 3 1 500 419 358
1080 2 2 3 1 552 500 358
1081 2 2 3 1 476 359 360
1082 2 2 3 1 359 476 558
1083 2 2 3 1 409 570 360
1084 2 2 3 1 475 476 360
1085 2 2 3 1 475 360 570
1086 2 2 3 1 518 388 362
1087 2 2 3 1 580 363 426
1088 2 2 3 1 368 604 366
1089 2 2 3 1 591 428 366
1090 2 2 3 1 450 591 366
1091 2 2 3 1 604 450 366
1092 2 2 3 1 467 367 457
1093 2 2 3 1 556 368 546
1094 2 2 3 1 604 368 556
1095 2 2 3 1 370 567 369
1096 2 2 3 1 392 369 393
1097 2 2 3 1 490 369 392
1098 2 2 3 1 520 393 369
1099 2 2 3 1 567 520 369
1100 2 2 3 1 371 372 394
1101 2 2 3 1 511 371 394
1102 2 2 3 1 371 511 549
1103 2 2 3 1 549 541 371
1104 2 2 3 1 373 374 383
1105 2 2 3 1 495 373 516
1106 2 2 3 1 374 408 383
1107 2 2 3 1 375 377 376
1108 2 2 3 1 376 522 375
1109 2 2 3 1 378 377 375
1110 2 2 3 1 440 378 375
1111 2 2 3 1 440 375 525
1112 2 2 3 1 522 525 375
1113 2 2 3 1 376 377 379
1114 2 2 3 1 376 379 383
1115 2 2 3 1 383 408 376
1116 2 2 3 1 408 522 376
1117 2 2 3 1 601 377 378
1118 2 2 3 1 441 378 440
1119 2 2 3 1 380 382 381
1120 2 2 3 1 387 380 381
1121 2 2 3 1 380 418 523
1122 2 2 3 1 382 384 381
1123 2 2 3 1 384 549 381
1124 2 2 3 1 381 511 387
1125 2 2 3 1 511 381 549
1126 2 2 3 1 513 387 511
1127 2 2 3 1 412 389 413
1128 2 2 3 1 554 413 389
1129 2 2 3 1 392 393 531
1130 2 2 3 1 420 392 421
1131 2 2 3 1 420 490 392
1132 2 2 3 1 393 573 531
1133 2 2 3 1 394 395 584
1134 2 2 3 1 511 394 513
1135 2 2 3 1 513 394 584
1136 2 2 3 1 398 548 397
1137 2 2 3 1 551 401 397
1138 2 2 3 1 568 397 548
1139 2 2 3 1 397 568 551
1140 2 2 3 1 537 399 412
1141 2 2 3 1 399 537 536
1142 2 2 3 1 565 603 400
1143 2 2 3 1 540 407 401
1144 2 2 3 1 540 401 497
1145 2 2 3 1 497 401 551
1146 2 2 3 1 404 402 403
1147 2 2 3 1 470 402 404
1148 2 2 3 1 469 402 470
1149 2 2 3 1 404 403 405
1150 2 2 3 1 407 540 445
1151 2 2 3 1 445 593 407
1152 2 2 3 1 499 570 409
1153 2 2 3 1 410 412 411
1154 2 2 3 1 411 533 410
1155 2 2 3 1 410 537 412
1156 2 2 3 1 410 533 425
1157 2 2 3 1 412 413 411
1158 2 2 3 1 413 554 532
1159 2 2 3 1 414 416 415
1160 2 2 3 1 414 415 438
1161 2 2 3 1 599 416 414
1162 2 2 3 1 544 414 438
1163 2 2 3 1 414 544 545
1164 2 2 3 1 414 545 557
1165 2 2 3 1 557 599 414
1166 2 2 3 1 415 416 432
1167 2 2 3 1 415 431 430
1168 2 2 3 1 438 415 430
1169 2 2 3 1 431 415 432
1170 2 2 3 1 433 432 416
1171 2 2 3 1 433 416 461
1172 2 2 3 1 416 599 461
1173 2 2 3 1 447 417 505
1174 2 2 3 1 417 447 517
1175 2 2 3 1 418 419 523
1176 2 2 3 1 500 501 419
1177 2 2 3 1 419 501 524
1178 2 2 3 1 523 419 524
1179 2 2 3 1 422 424 423
1180 2 2 3 1 427 422 423
1181 2 2 3 1 422 473 424
1182 2 2 3 1 422 427 429
1183 2 2 3 1 480 423 424
1184 2 2 3 1 424 473 474
1185 2 2 3 1 424 474 483
1186 2 2 3 1 483 480 424
1187 2 2 3 1 533 426 425
1188 2 2 3 1 565 429 427
1189 2 2 3 1 603 565 427
1190 2 2 3 1 429 454 455
1191 2 2 3 1 429 565 454
1192 2 2 3 1 443 430 431
1193 2 2 3 1 472 438 430
1194 2 2 3 1 443 446 430
1195 2 2 3 1 446 472 430
1196 2 2 3 1 437 431 432
1197 2 2 3 1 431 437 444
1198 2 2 3 1 444 443 431
1199 2 2 3 1 462 433 461
1200 2 2 3 1 435 457 434
1201 2 2 3 1 435 436 579
1202 2 2 3 1 530 578 436
1203 2 2 3 1 578 579 436
1204 2 2 3 1 524 438 472
1205 2 2 3 1 438 524 544
1206 2 2 3 1 439 441 440
1207 2 2 3 1 439 440 525
1208 2 2 3 1 581 439 525
1209 2 2 3 1 482 445 540
1210 2 2 3 1 471 472 446
1211 2 2 3 1 446 492 471
1212 2 2 3 1 447 505 449
1213 2 2 3 1 481 448 500
1214 2 2 3 1 501 500 448
1215 2 2 3 1 448 594 501
1216 2 2 3 1 505 478 449
1217 2 2 3 1 451 450 452
1218 2 2 3 1 602 452 450
1219 2 2 3 1 556 602 450
1220 2 2 3 1 450 604 556
1221 2 2 3 1 468 452 474
1222 2 2 3 1 452 602 474
1223 2 2 3 1 454 456 455
1224 2 2 3 1 565 458 454
1225 2 2 3 1 562 460 493
1226 2 2 3 1 460 596 493
1227 2 2 3 1 561 461 557
1228 2 2 3 1 599 557 461
1229 2 2 3 1 469 463 464
1230 2 2 3 1 463 469 470
1231 2 2 3 1 580 585 466
1232 2 2 3 1 473 468 474
1233 2 2 3 1 527 468 473
1234 2 2 3 1 471 523 472
1235 2 2 3 1 523 524 472
1236 2 2 3 1 556 483 474
1237 2 2 3 1 602 556 474
1238 2 2 3 1 476 475 477
1239 2 2 3 1 475 576 477
1240 2 2 3 1 576 475 566
1241 2 2 3 1 581 476 477
1242 2 2 3 1 558 476 525
1243 2 2 3 1 476 581 525
1244 2 2 3 1 576 583 477
1245 2 2 3 1 583 598 477
1246 2 2 3 1 481 500 552
1247 2 2 3 1 481 552 553
1248 2 2 3 1 482 539 509
1249 2 2 3 1 482 540 539
1250 2 2 3 1 556 588 483
1251 2 2 3 1 563 486 485
1252 2 2 3 1 485 514 563
1253 2 2 3 1 487 489 488
1254 2 2 3 1 487 488 491
1255 2 2 3 1 487 498 489
1256 2 2 3 1 498 487 499
1257 2 2 3 1 487 569 499
1258 2 2 3 1 489 526 488
1259 2 2 3 1 495 497 496
1260 2 2 3 1 495 595 497
1261 2 2 3 1 595 495 516
1262 2 2 3 1 496 497 568
1263 2 2 3 1 539 540 497
1264 2 2 3 1 595 539 497
1265 2 2 3 1 497 551 568
1266 2 2 3 1 569 570 499
1267 2 2 3 1 524 501 544
1268 2 2 3 1 594 544 501
1269 2 2 3 1 503 535 504
1270 2 2 3 1 539 516 509
1271 2 2 3 1 552 515 553
1272 2 2 3 1 539 595 516
1273 2 2 3 1 522 558 525
1274 2 2 3 1 554 562 532
1275 2 2 3 1 598 583 538
1276 2 2 3 1 583 605 538
1277 2 2 3 1 549 592 541
1278 2 2 3 1 544 594 545
1279 2 2 3 1 588 556 546
1280 2 2 3 1 568 548 550
1281 2 2 3 1 566 571 583
1282 2 2 3 1 583 576 566
$EndElements
