$MeshFormat
2.2 0 8
$EndMeshFormat
$PhysicalNames
1
2 6 "My surface"
$EndPhysicalNames
$Nodes
700
1 0 0 0
2 0.1 0 0
3 0.1 0.3 0
4 0 0.3 0
5 -0.05 0.05 0
6 -0.05 0.1 0
7 0.2 0.2 0
8 0.2 0.1 0
9 0.25 0.2 0
10 0.3 0.1 0
11 0.01675134899749656 0 0
12 0.03071080655893446 0 0
13 0.0423436878825755 0 0
14 0.05203775563819656 0 0
15 0.06011614539899403 0 0
16 0.06684813691251688 0 0
17 0.07245812988783501 0 0
18 0.07713312407354976 0 0
19 0.08102895247307268 0 0
20 0.08427547609907809 0 0
21 0.08698091248825451 0 0
22 0.0892354428974928 0 0
23 0.09111421828692554 0 0
24 0.09267986447704872 0 0
25 0.09398456962083367 0 0
26 0.0950718239445128 0 0
27 0.09597786913611506 0 0
28 0.09673290670057005 0 0
29 0.09736210469696704 0 0
30 0.09788643639360275 0 0
31 0.09832337953171119 0 0
32 0.09868749882758426 0 0
33 0.09899093151065048 0 0
34 0.09924379207211487 0 0
35 0.09945450923783336 0 0
36 0.09963010681159246 0 0
37 0.09977643815222635 0 0
38 0.0998983809566317 0 0
39 0.1 0.2977778174039493 0
40 0.1 0.2943283026688062 0
41 0.1 0.2890299759911104 0
42 0.1 0.2810228398488516 0
43 0.1 0.2692137356175438 0
44 0.1 0.2524096653397163 0
45 0.1 0.2296765202922302 0
46 0.1 0.2009380182827998 0
47 0.1 0.1675667356918275 0
48 0.1 0.132433264309656 0
49 0.1 0.09906198171836406 0
50 0.1 0.07032347970858349 0
51 0.1 0.04759033466078932 0
52 0.1 0.03078626438272714 0
53 0.1 0.0189771601512988 0
54 0.1 0.0109700240089618 0
55 0.1 0.005671697331225301 0
56 0.1 0.002222182596060829 0
57 0.09989838095666016 0.3 0
58 0.09977643815229478 0.3 0
59 0.09963010681171565 0.3 0
60 0.09945450923803045 0.3 0
61 0.09924379207241064 0.3 0
62 0.0989909315110763 0.3 0
63 0.09868749882818036 0.3 0
64 0.09832337953252829 0.3 0
65 0.09788643639470557 0.3 0
66 0.09736210469843745 0.3 0
67 0.09673290670250986 0.3 0
68 0.09597786913865393 0.3 0
69 0.09507182394781449 0.3 0
70 0.09398456962510122 0.3 0
71 0.0926798644825377 0.3 0
72 0.09111421829465347 0.3 0
73 0.08923544290644983 0.3 0
74 0.08698091249963096 0.3 0
75 0.08427547611348579 0.3 0
76 0.08102895249127756 0.3 0
77 0.0771331240964919 0.3 0
78 0.07245812991955934 0.3 0
79 0.06684813694870105 0.3 0
80 0.06011614544430099 0.3 0
81 0.05203775569482921 0.3 0
82 0.04234368796022012 0.3 0
83 0.03071080664675478 0.3 0
84 0.0167513491066254 0.3 0
85 -0.009999999999978011 0.009999999999978011 0
86 -0.01999999999994795 0.01999999999994795 0
87 -0.02999999999994715 0.02999999999994715 0
88 -0.03999999999997372 0.03999999999997372 0
89 -0.05 0.05999999999997289 0
90 -0.05 0.06999999999994574 0
91 -0.05 0.07999999999994248 0
92 -0.05 0.08999999999997124 0
93 -0.04444444444445491 0.1222222222221804 0
94 -0.0388888888889152 0.1444444444443392 0
95 -0.03333333333337599 0.166666666666496 0
96 -0.02777777777783678 0.1888888888886529 0
97 -0.02222222222228109 0.2111111111108757 0
98 -0.0166666666667102 0.2333333333331592 0
99 -0.01111111111114187 0.2555555555554325 0
100 -0.005555555555571662 0.2777777777777133 0
101 0.211111111111087 0.1 0
102 0.222222222222174 0.1 0
103 0.2333333333332502 0.1 0
104 0.2444444444443263 0.1 0
105 0.2555555555554458 0.1 0
106 0.2666666666665871 0.1 0
107 0.2777777777777283 0.1 0
108 0.2888888888888672 0.1 0
109 0.2944444444444635 0.1111111111110731 0
110 0.2888888888889183 0.1222222222221634 0
111 0.2833333333333687 0.1333333333332625 0
112 0.2777777777778195 0.1444444444443611 0
113 0.2722222222222627 0.1555555555554746 0
114 0.2666666666666876 0.1666666666666247 0
115 0.2611111111111217 0.1777777777777565 0
116 0.2555555555555609 0.1888888888888783 0
117 0.2444444444444607 0.2 0
118 0.2388888888889268 0.2 0
119 0.233333333333393 0.2 0
120 0.2277777777778266 0.2 0
121 0.2222222222222602 0.2 0
122 0.2166666666666938 0.2 0
123 0.2111111111111298 0.2 0
124 0.2055555555555676 0.2 0
125 0.2 0.1888888888889136 0
126 0.2 0.1777777777778405 0
127 0.2 0.1666666666667607 0
128 0.2 0.1555555555556809 0
129 0.2 0.1444444444445626 0
130 0.2 0.1333333333334256 0
131 0.2 0.122222222222284 0
132 0.2 0.1111111111111427 0
133 0.002958640492381281 0.01047431606070936 0
134 -0.007324857924120412 0.02086454979679764 0
135 -0.01636542614536843 0.0312527396806534 0
136 -0.02443960905799769 0.04165976696723785 0
137 -0.03124544668858535 0.05207380927398618 0
138 -0.03493660532754032 0.06249267266096467 0
139 -0.03679959856820987 0.07303663847940971 0
140 -0.03774074931060027 0.08387799233484559 0
141 -0.03796740331942725 0.09544860851212435 0
142 -0.0369415237703712 0.1094092921805297 0
143 -0.03347111496042139 0.1287946885285631 0
144 -0.02923495832021497 0.1495414945452002 0
145 -0.02450208252330291 0.1710716262093034 0
146 -0.01947115495023564 0.19298524193826 0
147 -0.01423712819115356 0.2150375413137482 0
148 -0.008793466346132777 0.2370639526279657 0
149 -0.002954581156568724 0.2589248092406841 0
150 0.004103727469644589 0.2803613249192313 0
151 0.01545438248591436 0.01061140751133584 0
152 0.00434588131718873 0.02132771821060964 0
153 -0.004647698552538473 0.03206997863945101 0
154 -0.01223621740279443 0.04285813461460641 0
155 -0.01840707613651793 0.05370140924431535 0
156 -0.02265533372779236 0.06463094100631782 0
157 -0.02527745000375269 0.07579346303623945 0
158 -0.02673551484805337 0.08746638711958901 0
159 -0.02717477858097314 0.1002300776971621 0
160 -0.02631228229922779 0.1153039664404178 0
161 -0.02379811303544145 0.1337816227628432 0
162 -0.02029897078529831 0.1539499753980902 0
163 -0.01610716017307278 0.1751685517196073 0
164 -0.01144923754102076 0.1969242663098622 0
165 -0.006423694617113311 0.2188416601162127 0
166 -0.0009430712293747708 0.2406320829229127 0
167 0.005484496528712067 0.2620093136157814 0
168 0.01455523038663331 0.2823886958197399 0
169 0.02667434617824531 0.01053708894819551 0
170 0.01502040371051014 0.02147232783586896 0
171 0.005851438575792989 0.03252825851236985 0
172 -0.001638246169054822 0.04367670574342058 0
173 -0.007656313527454906 0.05493485859460768 0
174 -0.01209627525636169 0.06635826121068696 0
175 -0.01508174864639706 0.0781077951924426 0
176 -0.01685627806437207 0.09049277523801548 0
177 -0.01751406692019868 0.1040718649807305 0
178 -0.01691650751480062 0.1197091960631264 0
179 -0.01493825230908285 0.137945992753402 0
180 -0.01191143650081928 0.1579233824189541 0
181 -0.008096795192190321 0.1790376503962427 0
182 -0.00370197546323024 0.2007255751340425 0
183 0.00121428624919679 0.2225181701985543 0
184 0.006866005206670188 0.2440204752565861 0
185 0.0140507457428109 0.2648026770204015 0
186 0.02479419891079146 0.2840510181654269 0
187 0.03652991985046169 0.01031589566129759 0
188 0.02465929051213112 0.02136223699665853 0
189 0.01533886730414664 0.03267877713260106 0
190 0.007835106077000296 0.04416058459658195 0
191 0.001837977221351132 0.0558124093823624 0
192 -0.002708535353553029 0.06769992267825171 0
193 -0.005899163383632486 0.07998930186352772 0
194 -0.007881434232586148 0.09298962422761069 0
195 -0.008719107724135845 0.1072047215808052 0
196 -0.00834088777465488 0.1232884380679293 0
197 -0.006697740394321187 0.1415844430434092 0
198 -0.003991074454107721 0.1615872505221992 0
199 -0.0004436565177011107 0.1827280855984947 0
200 0.003772155370199733 0.2044031941295173 0
201 0.008660211520968275 0.2260645276918268 0
202 0.01456942731805256 0.2472243677989453 0
203 0.0224908862745349 0.2673349762262491 0
204 0.03431749687770874 0.2854697696292745 0
205 0.04512205766507971 0.009990001268008262 0
206 0.03330382201825331 0.02104822391153114 0
207 0.02393221378077977 0.03256526390427526 0
208 0.01640947663746428 0.04434781699998105 0
209 0.01040555289479021 0.05637042917780933 0
210 0.005793208194412044 0.06869560992285395 0
211 0.002478475011233673 0.08148748554380121 0
212 0.0003582400198309861 0.09504359191446941 0
213 -0.0006132214840731168 0.1098168013920239 0
214 -0.000396638602972844 0.1263356006439599 0
215 0.00102551174432383 0.1448546500098745 0
216 0.003510050929782551 0.1650206660784994 0
217 0.00686795268089256 0.1862752302166106 0
218 0.01096814532557269 0.2079687433019463 0
219 0.01588450809567314 0.2294817583263211 0
220 0.02207521157134068 0.2502498217868759 0
221 0.03058091029491469 0.2696452682111292 0
222 0.04292631658822949 0.2867151263500574 0
223 0.05258979828464471 0.009591168025654741 0
224 0.04103100134019207 0.02057263986788192 0
225 0.03172301753811929 0.03222689703723942 0
226 0.02422015746287108 0.04427312106117884 0
227 0.01822149939016506 0.05664299231166311 0
228 0.01357593348006419 0.06938452764907195 0
229 0.01018881289330655 0.08265374488912057 0
230 0.007980370841547967 0.09673324678669454 0
231 0.006916437454928613 0.1120350420394573 0
232 0.007020313358963941 0.1290082758075821 0
233 0.00829406668809413 0.1478548725639305 0
234 0.01062320800269875 0.1682790596224562 0
235 0.01384694223856974 0.1897061192029129 0
236 0.01787617223326581 0.2114322769556263 0
237 0.02284960387457903 0.2327737065043609 0
238 0.02928964801764483 0.2531085116538407 0
239 0.03816775054204639 0.2717679655493299 0
240 0.05057867092316932 0.2878275753210647 0
241 0.05907002474321664 0.009144742841230524 0
242 0.0479257089991835 0.01997202219501396 0
243 0.03878931085689635 0.03169941790080028 0
244 0.03136117056408526 0.04396864240367173 0
245 0.02539631762527514 0.05666136913053791 0
246 0.02074824331602955 0.06980188935171919 0
247 0.01732696362379849 0.08353284572709006 0
248 0.01506806427472933 0.09812093762963893 0
249 0.01394592112018337 0.1139460997007291 0
250 0.0139756211738045 0.1314030935991325 0
251 0.01515024023191365 0.1506523297534355 0
252 0.01737028183789318 0.1714034291338442 0
253 0.02049819943371925 0.193041746970414 0
254 0.02448387490708948 0.2148022762045991 0
255 0.02951681285859327 0.2359454751139672 0
256 0.03613496282153228 0.2558130511062674 0
257 0.04516662667674943 0.2737291005413915 0
258 0.05730946743694579 0.288831146823587 0
259 0.06468758138566727 0.008671202995473394 0
260 0.05406997935515706 0.01927831761527548 0
261 0.04519903512090345 0.03101573699033789 0
262 0.0379039288010611 0.04346435580043703 0
263 0.03200782126738923 0.05645412168192972 0
264 0.02738677722733255 0.0699785985828676 0
265 0.02396208725203563 0.08416227129096777 0
266 0.02168247910297909 0.09925529016924599 0
267 0.02052982099699844 0.1156116837938248 0
268 0.02051503508517142 0.1335852099325428 0
269 0.02162490905484863 0.1532957564073846 0
270 0.02376764624284855 0.1744248302319103 0
271 0.02682452931480582 0.1962981612492767 0
272 0.03077875902938956 0.2180853313929284 0
273 0.03585215954893153 0.2390019002283733 0
274 0.04255656591688725 0.2583742996324967 0
275 0.05154483141749353 0.2755470661702126 0
276 0.06318909528503683 0.289740861718894 0
277 0.06955376731523485 0.008186897078770518 0
278 0.05953986355118145 0.01851938698866825 0
279 0.05101199049942351 0.03020621105175663 0
280 0.04390579551555284 0.0427883781196902 0
281 0.03811496102408758 0.05604748077966663 0
282 0.03354911418109496 0.06994181987136254 0
283 0.03014692664856728 0.08457338002576914 0
284 0.02787064349976601 0.1001747195217068 0
285 0.02670964862492119 0.1170776741169052 0
286 0.02667297202716794 0.1356015793219632 0
287 0.02774211007955295 0.1558217456179639 0
288 0.02982846631743395 0.1773668252256138 0
289 0.03282810103527912 0.1994870680687803 0
290 0.03675023255207584 0.2212858536773272 0
291 0.04182993715487136 0.2419465670221688 0
292 0.04852320241131369 0.2608004858053951 0
293 0.05730524393790482 0.2772346861128258 0
294 0.06830183171414335 0.2905669154947179 0
295 0.0737670536495055 0.007704528791329758 0
296 0.06440504108538328 0.01771919171122319 0
297 0.0562814856016122 0.02929867767225357 0
298 0.04941471691923601 0.04196715548022912 0
299 0.04376478654559506 0.05546574962065499 0
300 0.03928069148002882 0.06971569415199021 0
301 0.03592343657595904 0.08479273142981274 0
302 0.03367024016911412 0.1009102196318781 0
303 0.03251858771809718 0.1183794695348828 0
304 0.03247695525398768 0.137487610803603 0
305 0.03352166567795849 0.1582582608854783 0
306 0.03556415953505073 0.1802469676436875 0
307 0.03851150626725109 0.202616288430468 0
308 0.04239101936935365 0.2244060086461028 0
309 0.04743410878915751 0.2447814848856651 0
310 0.05402366315701777 0.2630974672046831 0
311 0.06247332812523698 0.2788012734635226 0
312 0.07273451269612827 0.2913170198342163 0
313 0.07741426625917329 0.007233578904835987 0
314 0.06872923807297811 0.01689788297568713 0
315 0.061055732181316 0.02831833926201776 0
316 0.05447207236124347 0.0410255014943096 0
317 0.04899639346277243 0.05473161162015681 0
318 0.04461882775201759 0.06932195901839464 0
319 0.04132624638118411 0.08484318600324704 0
320 0.03911260564502594 0.1014873469591562 0
321 0.03798432948871352 0.1195452102141719 0
322 0.03795012798740874 0.1392708105775359 0
323 0.03898078333442801 0.1606267421662067 0
324 0.04098536005467537 0.183077830296018 0
325 0.04387849404470843 0.2056902368552344 0
326 0.04769793911037183 0.2274459315356033 0
327 0.05265818346577685 0.2475072954184362 0
328 0.05906243794315336 0.2652694986502358 0
329 0.06708780488598984 0.2802542390877892 0
330 0.07657065304373233 0.2919976763690244 0
331 0.08057175460601435 0.006780730127619381 0
332 0.07257075560061842 0.01607191124333829 0
333 0.06537893106419967 0.02728758553981007 0
334 0.05911457324168882 0.03998650357718002 0
335 0.05384337831500064 0.05386630132840112 0
336 0.04959523179522039 0.06878040920739249 0
337 0.04638488820684692 0.08474472854861632 0
338 0.04422467909868204 0.1019275914340818 0
339 0.0431308547294268 0.1205977910626013 0
340 0.04311278420802807 0.1409729336057254 0
341 0.04413508492058639 0.1629434838715353 0
342 0.04610257208712913 0.1858678361845444 0
343 0.04893444304132889 0.2087104916639157 0
344 0.05267216676493119 0.2304041878646345 0
345 0.05750421453763391 0.2501237993390806 0
346 0.06365550077638067 0.2673200921379451 0
347 0.07119424342765381 0.2816001850211785 0
348 0.07988753503023865 0.2926148237579295 0
349 0.08330644683232684 0.006350305597465835 0
350 0.07598290162407559 0.0152542102389613 0
351 0.06929204361778585 0.0262258284946765 0
352 0.06337556994603279 0.03887133855381521 0
353 0.05833547019495688 0.0528896396319611 0
354 0.05423766172395569 0.0681091935145945 0
355 0.0511252950430973 0.08451504865527242 0
356 0.04903031914432414 0.1022493179123558 0
357 0.04797961116678678 0.1215561695134279 0
358 0.04798336138522912 0.1426113526319303 0
359 0.0489993023333634 0.1652206349571244 0
360 0.05092661983270602 0.188622024119926 0
361 0.05368662759461386 0.2116764639097823 0
362 0.05731911677024967 0.2332783932073502 0
363 0.06198139636638839 0.2526305994994525 0
364 0.06782668586633044 0.2692527462334588 0
365 0.07484076551392727 0.2828455542926756 0
366 0.08275495021007402 0.2931741215776363 0
367 0.08567679696117697 0.005944709135832861 0
368 0.07901430180092901 0.01445446990009585 0
369 0.07283328546711558 0.02514940244147231 0
370 0.06728594453262404 0.0376990474033503 0
371 0.06249965764235415 0.05181995572084254 0
372 0.05857107271926452 0.06732496487553784 0
373 0.05557084775167758 0.08416992430294359 0
374 0.05355122762164016 0.1024684102401129 0
375 0.05255032778766119 0.1224362491486336 0
376 0.05257912076972295 0.1442000018615517 0
377 0.05358776824002753 0.1674670101418012 0
378 0.05546895693393229 0.191342808478708 0
379 0.05814432333260484 0.2145861351216034 0
380 0.06164807877075642 0.2360658931713488 0
381 0.06610455324741007 0.2550277101797334 0
382 0.07160475382931607 0.2710714566968752 0
383 0.07807522944192606 0.2839969454633066 0
384 0.08523487556869347 0.2936810333568464 0
385 0.08773365042417466 0.005564848015484834 0
386 0.08170912345052689 0.01367948801875359 0
387 0.07603840029568887 0.0240715592035181 0
388 0.07087469336252228 0.03648631684080925 0
389 0.06636097405796132 0.05067392842323692 0
390 0.06261843367869725 0.06644290712293884 0
391 0.0597431293045879 0.08372344883755117 0
392 0.05780761885030851 0.1025987069543857 0
393 0.05686160078529234 0.1232515018724243 0
394 0.05691663547600087 0.1457500872743858 0
395 0.05791477278194283 0.1696888144218346 0
396 0.05974187116621354 0.1940307493573872 0
397 0.06231878664238549 0.2174368167645851 0
398 0.06567170150645828 0.2387644158620705 0
399 0.0698926822512566 0.2573160426339557 0
400 0.07502110134403085 0.2727809996005622 0
401 0.08094344185710406 0.2850611976291905 0
402 0.08738167794825022 0.2941408094228978 0
403 0.08952104949474077 0.00521051964920495 0
404 0.08410725688767048 0.01293357680195072 0
405 0.07894077683961163 0.02300256803898222 0
406 0.07416927278705238 0.03524730669002241 0
407 0.06994303283459907 0.04946638294958358 0
408 0.06640131284605637 0.06547666419232097 0
409 0.06366247804960457 0.08318813373190739 0
410 0.06181871605508427 0.1026522880681998 0
411 0.06093132816095571 0.1240134261377002 0
412 0.06101215222517899 0.1472706712287214 0
413 0.06199482464670088 0.1718903324462523 0
414 0.06375860381105207 0.196685324056514 0
415 0.06622313331449585 0.2202258811195668 0
416 0.0694053938277803 0.2413726319789943 0
417 0.07336763025457393 0.2594977273516507 0
418 0.07810802230852779 0.2743870190144719 0
419 0.08348808428113766 0.2860453345359409 0
420 0.08924260937543568 0.2945584306625723 0
421 0.09107699056815378 0.004880748298283644 0
422 0.08624449032574144 0.01221899553501941 0
423 0.08157146760220352 0.02194991381024783 0
424 0.07719576647072895 0.0339935499452039 0
425 0.07326836928458093 0.04821007787735337 0
426 0.06994029063283996 0.06443819810069035 0
427 0.06734839457949351 0.08257491332080819 0
428 0.06560312410180977 0.1026396533345597 0
429 0.06477703800290191 0.1247319016998236 0
430 0.0648818632202729 0.1487691924551752 0
431 0.06584283670782452 0.174074603348144 0
432 0.06753339447507543 0.1993056776521933 0
433 0.06987213656807545 0.2229514193759013 0
434 0.07286669184800933 0.2438905834790929 0
435 0.07655293956680681 0.2615762697105967 0
436 0.08089742425843117 0.2758959673852395 0
437 0.08574813707912811 0.2869564354747526 0
438 0.09085845001076032 0.2949385482894519 0
439 0.09243413724143064 0.00457406400336255 0
440 0.08815270153632404 0.01153638154894157 0
441 0.08395915784883008 0.02091857609186612 0
442 0.07997892405976553 0.03273393973300594 0
443 0.0763586300954292 0.04691551264023153 0
444 0.07325523579022172 0.06333760138626758 0
445 0.07081983565031422 0.08189307332667917 0
446 0.06917910880949933 0.1025698203024963 0
447 0.06841613728027632 0.125415479472946 0
448 0.06854210838277811 0.1502519549108111 0
449 0.06947424670720877 0.1762440826644944 0
450 0.07108145854844883 0.2018913259659337 0
451 0.07328196236916196 0.2256127940748007 0
452 0.0760746273825581 0.2463199650826863 0
453 0.07947287137160772 0.2635565579380458 0
454 0.08341991295197006 0.2773149480839475 0
455 0.08775864783994378 0.2878014805895363 0
456 0.09226421034286066 0.2952854377447039 0
457 0.09362048824638726 0.004288721759251513 0
458 0.08986007719791921 0.01088515646507991 0
459 0.08613012133100521 0.01991136643835216 0
460 0.08254211327272028 0.0314748061403654 0
461 0.07923464271100915 0.04559077911441185 0
462 0.07636546948185803 0.06218288778763875 0
463 0.07409541654420285 0.08115012176232467 0
464 0.07256480209768147 0.1024503626939071 0
465 0.07186609756482865 0.126071631524007 0
466 0.072009519288796 0.1517246017941401 0
467 0.07290507886610623 0.1784012823150551 0
468 0.07441890390404408 0.2044427859780946 0
469 0.07646985887042411 0.2282110662879062 0
470 0.07904912258268017 0.2486642609831096 0
471 0.08215160199022614 0.2654447530283655 0
472 0.08570416998041934 0.2786515031141868 0
473 0.08955073461626528 0.2885872012903709 0
474 0.09348983780624362 0.295602974200704 0
475 0.09465999725735597 0.004022863519039984 0
476 0.09139136160967697 0.01026389114234922 0
477 0.08810818727232518 0.01892930010723097 0
478 0.08490721967554415 0.03022007742431373 0
479 0.08191639182833342 0.04424147346478995 0
480 0.07928983555702403 0.06097978174618571 0
481 0.07719353636533054 0.08035161790486141 0
482 0.0757783458075872 0.102287404313467 0
483 0.07514458815179305 0.1267069775324783 0
484 0.07530111150099301 0.1531925804366025 0
485 0.07615195066766187 0.1805493751495099 0
486 0.07756259406442426 0.2069621144234641 0
487 0.07945381552955384 0.2307492904986503 0
488 0.0818104272271091 0.2509287509710276 0
489 0.08461257860137668 0.2672480925594389 0
490 0.08777655981141506 0.2799133792449113 0
491 0.09115174485060114 0.2893199534464758 0
492 0.0945608944393431 0.295894630911788 0
493 0.09557314168408095 0.003774628587848451 0
494 0.09276813067407182 0.009670619231515552 0
495 0.08991473298144219 0.01797198086424063 0
496 0.08709452044391809 0.02897151507182297 0
497 0.08442292579066664 0.04287067753313791 0
498 0.08204669153202548 0.05973152311255851 0
499 0.08013243667258473 0.07950097184637119 0
500 0.07883798328969188 0.1020855796407338 0
501 0.07826956374955686 0.127327498354748 0
502 0.07843432979422474 0.1546615979580711 0
503 0.07923202884151712 0.1826927507776187 0
504 0.08052996563114155 0.209453342947915 0
505 0.08225220523801149 0.2332326803042813 0
506 0.0843786076945711 0.253120406031503 0
507 0.08687801623104609 0.2689746372092029 0
508 0.08966091331982323 0.2811082958162786 0
509 0.09258551287514177 0.2900056219193338 0
510 0.09549918640950256 0.2961634984204359 0
511 0.09637743863213841 0.003542219466903787 0
512 0.09400908431415579 0.009103094651803263 0
513 0.09156870887890224 0.01703798159684014 0
514 0.08912255095491092 0.02772901044225679 0
515 0.08677221116787376 0.04147901381248339 0
516 0.08465383180305505 0.05843869878233475 0
517 0.08293020115633805 0.0785992232584381 0
518 0.08176210563354355 0.1018479686479501 0
519 0.08125931216694147 0.1279387437530488 0
520 0.0814270498896689 0.1561380655192142 0
521 0.08216293875520533 0.1848375128870003 0
522 0.08333880752637067 0.2119228060526964 0
523 0.08488341948154213 0.2356686547859957 0
524 0.08677309016831894 0.2552476942945509 0
525 0.08896851568246789 0.2706329828019345 0
526 0.09137844478188105 0.2822437289168186 0
527 0.09387267532652431 0.2906495592977101 0
528 0.09632333556949389 0.2964123212579791 0
529 0.09708790762568986 0.003323930587430617 0
530 0.09513034990951262 0.008558992122210883 0
531 0.09308669795436521 0.01612520791238817 0
532 0.0910079768592691 0.02649093167174288 0
533 0.08898094920583269 0.0400647752130308 0
534 0.08712835156688095 0.05709910861124799 0
535 0.08560470184966697 0.07764480331368365 0
536 0.08456925802536225 0.1015760097280971 0
537 0.08413246659513733 0.1285460394438655 0
538 0.08429754000755955 0.1576295300266747 0
539 0.084962631309312 0.1869919137004813 0
540 0.08600700825433531 0.2143793647311635 0
541 0.08736550248504393 0.2380667783877451 0
542 0.08901225545919784 0.257320315362195 0
543 0.09090278227064832 0.2722319539879006 0
544 0.09294776862102548 0.2833267204194852 0
545 0.09503101612153103 0.2912565586482154 0
546 0.0970492892702324 0.2966435484509001 0
547 0.09771748102718621 0.003118147066427322 0
548 0.09614578993906221 0.008036052082069721 0
549 0.09448300943924544 0.01523123554382884 0
550 0.09276548000667337 0.02525451216023939 0
551 0.09106436351153269 0.0386241307721229 0
552 0.08948645646473063 0.05570766966628441 0
553 0.08817349504205142 0.07663327821866353 0
554 0.08727811071386353 0.1012693905814235 0
555 0.08690798675573358 0.1291546981874905 0
556 0.08706438533487015 0.1591450956211625 0
557 0.08764921067360734 0.1891667273962159 0
558 0.08855227501136678 0.2168345332384009 0
559 0.08971578602880122 0.240438606585767 0
560 0.09111307939832831 0.2593488759302954 0
561 0.09269742751774407 0.2737802897144396 0
562 0.09438499079282407 0.2843637167319799 0
563 0.0960758215958311 0.291830858832048 0
564 0.0976907684852564 0.2968593942901198 0
565 0.09827736414081562 0.002923319975783708 0
566 0.09706730792974032 0.007532172280083111 0
567 0.09576980617121579 0.01435361443702918 0
568 0.09440766462824195 0.02401627511586079 0
569 0.09303596494520196 0.03715141125890659 0
570 0.091743219071396 0.05425636145851858 0
571 0.09065366725041391 0.07555706664818145 0
572 0.08990739816141097 0.1009259122692668 0
573 0.08960511311661605 0.1297702405925468 0
574 0.08974637806289665 0.16069584260794 0
575 0.09024072463584032 0.1913755701348858 0
576 0.09099182533007678 0.2193025182187339 0
577 0.09195052278520431 0.2427974460093685 0
578 0.09309081139981767 0.2613445136226715 0
579 0.09436684004864643 0.2752863265374394 0
580 0.0957038572821621 0.2853604408636126 0
581 0.0970202325048863 0.2923761806067884 0
582 0.09825965663692106 0.2970619061455309 0
583 0.09877734794188817 0.002737923824845131 0
584 0.09790514736560338 0.007045448599420944 0
585 0.09695726590042268 0.01349013246087396 0
586 0.09594499065049042 0.02277249101911624 0
587 0.09490729792848944 0.03563948410158847 0
588 0.09391227921295293 0.05273421609860252 0
589 0.09306162800946406 0.07440511663946546 0
590 0.09247582895846078 0.100541316178357 0
591 0.09224329841125589 0.1303986336394901 0
592 0.09236237476895257 0.1622952581611515 0
593 0.09275491693768211 0.1936351789233653 0
594 0.09334204839708804 0.2218001780973584 0
595 0.09408451321082319 0.2451580316067568 0
596 0.09495868477440499 0.2633184702643912 0
597 0.09592311737540896 0.2767576842266536 0
598 0.09691594833235599 0.2863218020291431 0
599 0.09787558322951363 0.2928957915665119 0
600 0.09876633313998769 0.2972530365616643 0
601 0.09922607848732418 0.002560400977557433 0
602 0.0986681780291588 0.006574168034790048 0
603 0.09805377766472174 0.0126390297979899 0
604 0.09738574377231678 0.02151966513733754 0
605 0.09668767301755056 0.03408023488488257 0
606 0.09600548103048753 0.05112736226782134 0
607 0.09541284157957196 0.07316252020449057 0
608 0.09500196781663624 0.1001090570121032 0
609 0.0948421207461306 0.1310465587291113 0
610 0.09493112143273146 0.1639597008022319 0
611 0.09520893776097102 0.1959656641589711 0
612 0.09561812961692263 0.2243469059742493 0
613 0.09613071979521309 0.2475361155730019 0
614 0.09672765583259273 0.2652816115350733 0
615 0.09737605650377701 0.2782009594267293 0
616 0.09803091124329305 0.2872518487484404 0
617 0.09865172016876229 0.2933925973554432 0
618 0.09921995719598743 0.2974347176189086 0
619 0.09963128860281754 0.002389096269301003 0
620 0.09936416325046439 0.006116757847741901 0
621 0.09906617429016346 0.01179915174867106 0
622 0.09873605651827855 0.02025504888192282 0
623 0.09838389449903377 0.03246518232974308 0
624 0.09803243615754029 0.04941914181050541 0
625 0.09772148353832204 0.0718100358394388 0
626 0.09750408923737119 0.09961999654691696 0
627 0.09742118260085936 0.1317217266017684 0
628 0.09747104411299272 0.1657089292209516 0
629 0.097619004495669 0.1983907506450479 0
630 0.09783362880037591 0.2269644309417606 0
631 0.09809986338251624 0.2499479537042539 0
632 0.09840617480108674 0.2672438881485187 0
633 0.09873320757074577 0.279621437491017 0
634 0.09905672637594438 0.2881537732764105 0
635 0.09935729150343368 0.293869255113562 0
636 0.09962870921142006 0.2976089369497998 0
637 0.2059961829785918 0.188888888888912 0
638 0.211998886463833 0.1888888888889087 0
639 0.218015537680126 0.1888888888889048 0
640 0.2240556736673973 0.1888888888889008 0
641 0.2301328902661448 0.1888888888888968 0
642 0.2362683872286707 0.1888888888888927 0
643 0.2424978781942668 0.1888888888888885 0
644 0.2488857469409136 0.1888888888888839 0
645 0.2064873063565336 0.1777777777778285 0
646 0.2129887401742861 0.1777777777778178 0
647 0.2195200812201499 0.1777777777778079 0
648 0.2261007493549383 0.1777777777777987 0
649 0.2327565143884367 0.1777777777777901 0
650 0.2395233577159617 0.1777777777777818 0
651 0.2464527343215654 0.1777777777777734 0
652 0.2536172867711601 0.1777777777777649 0
653 0.2070179338320426 0.1666666666667404 0
654 0.2140569059502291 0.1666666666667222 0
655 0.2211398928209068 0.1666666666667063 0
656 0.2282939377880373 0.1666666666666922 0
657 0.235552605074574 0.1666666666666791 0
658 0.242958706260501 0.1666666666666664 0
659 0.2505667819447288 0.1666666666666536 0
660 0.2584439191850738 0.1666666666666399 0
661 0.2075815009133758 0.1555555555556453 0
662 0.2151893382133147 0.1555555555556191 0
663 0.2228517120113784 0.1555555555555982 0
664 0.2306005797839993 0.1555555555555803 0
665 0.2384735323868823 0.1555555555555638 0
666 0.2465154288014232 0.1555555555555475 0
667 0.2547793157051395 0.1555555555555295 0
668 0.2633260098525937 0.155555555555507 0
669 0.2081773682318443 0.1444444444445295 0
670 0.2163842804016431 0.1444444444445036 0
671 0.2246518520992924 0.1444444444444824 0
672 0.2330142591318438 0.1444444444444639 0
673 0.2415100116746844 0.1444444444444468 0
674 0.250182804181986 0.1444444444444294 0
675 0.2590817077838891 0.1444444444444103 0
676 0.2682606596671043 0.1444444444443878 0
677 0.2088111457881239 0.133333333333401 0
678 0.2176524144703168 0.13333333333338 0
679 0.2265550663376389 0.1333333333333619 0
680 0.2355524906780351 0.1333333333333458 0
681 0.2446809023225038 0.1333333333333306 0
682 0.2539796146000463 0.1333333333333151 0
683 0.2634908776307933 0.1333333333332986 0
684 0.2732595520590087 0.1333333333332806 0
685 0.2094953238653298 0.1222222222222679 0
686 0.2190177095519164 0.1222222222222532 0
687 0.2285948159827428 0.1222222222222401 0
688 0.2382553364022088 0.1222222222222281 0
689 0.2480291568534013 0.1222222222222166 0
690 0.2579472141669498 0.122222222222205 0
691 0.2680412150991531 0.1222222222221925 0
692 0.278343650920477 0.122222222222179 0
693 0.21025095699427 0.1111111111111339 0
694 0.2205202708129106 0.111111111111126 0
695 0.2308263550425808 0.1111111111111189 0
696 0.2411876290494483 0.1111111111111124 0
697 0.2516223148390226 0.1111111111111061 0
698 0.2621481526750445 0.1111111111110996 0
699 0.2727822612333888 0.1111111111110925 0
700 0.2835415566371172 0.1111111111110842 0
$EndNodes
$Elements
1312
1 1 2 5 1 1 11
2 1 2 5 1 11 12
3 1 2 5 1 12 13
4 1 2 5 1 13 14
5 1 2 5 1 14 15
6 1 2 5 1 15 16
7 1 2 5 1 16 17
8 1 2 5 1 17 18
9 1 2 5 1 18 19
10 1 2 5 1 19 20
11 1 2 5 1 20 21
12 1 2 5 1 21 22
13 1 2 5 1 22 23
14 1 2 5 1 23 24
15 1 2 5 1 24 25
16 1 2 5 1 25 26
17 1 2 5 1 26 27
18 1 2 5 1 27 28
19 1 2 5 1 28 29
20 1 2 5 1 29 30
21 1 2 5 1 30 31
22 1 2 5 1 31 32
23 1 2 5 1 32 33
24 1 2 5 1 33 34
25 1 2 5 1 34 35
26 1 2 5 1 35 36
27 1 2 5 1 36 37
28 1 2 5 1 37 38
29 1 2 5 1 38 2
30 1 2 5 2 3 39
31 1 2 5 2 39 40
32 1 2 5 2 40 41
33 1 2 5 2 41 42
34 1 2 5 2 42 43
35 1 2 5 2 43 44
36 1 2 5 2 44 45
37 1 2 5 2 45 46
38 1 2 5 2 46 47
39 1 2 5 2 47 48
40 1 2 5 2 48 49
41 1 2 5 2 49 50
42 1 2 5 2 50 51
43 1 2 5 2 51 52
44 1 2 5 2 52 53
45 1 2 5 2 53 54
46 1 2 5 2 54 55
47 1 2 5 2 55 56
48 1 2 5 2 56 2
49 2 2 2 15 7 125 124
50 2 2 2 15 124 125 637
51 2 2 2 15 124 637 123
52 2 2 2 15 123 637 638
53 2 2 2 15 123 638 122
54 2 2 2 15 122 638 639
55 2 2 2 15 122 639 121
56 2 2 2 15 121 639 640
57 2 2 2 15 121 640 120
58 2 2 2 15 120 640 641
59 2 2 2 15 120 641 119
60 2 2 2 15 119 641 642
61 2 2 2 15 119 642 118
62 2 2 2 15 118 642 643
63 2 2 2 15 118 643 117
64 2 2 2 15 117 643 644
65 2 2 2 15 117 644 9
66 2 2 2 15 9 644 116
67 2 2 2 15 125 126 637
68 2 2 2 15 637 126 645
69 2 2 2 15 637 645 638
70 2 2 2 15 638 645 646
71 2 2 2 15 638 646 639
72 2 2 2 15 639 646 647
73 2 2 2 15 639 647 640
74 2 2 2 15 640 647 648
75 2 2 2 15 640 648 641
76 2 2 2 15 641 648 649
77 2 2 2 15 641 649 642
78 2 2 2 15 642 649 650
79 2 2 2 15 642 650 643
80 2 2 2 15 643 650 651
81 2 2 2 15 643 651 644
82 2 2 2 15 644 651 652
83 2 2 2 15 644 652 116
84 2 2 2 15 116 652 115
85 2 2 2 15 126 127 645
86 2 2 2 15 645 127 653
87 2 2 2 15 645 653 646
88 2 2 2 15 646 653 654
89 2 2 2 15 646 654 647
90 2 2 2 15 647 654 655
91 2 2 2 15 647 655 648
92 2 2 2 15 648 655 656
93 2 2 2 15 648 656 649
94 2 2 2 15 649 656 657
95 2 2 2 15 649 657 650
96 2 2 2 15 650 657 658
97 2 2 2 15 650 658 651
98 2 2 2 15 651 658 659
99 2 2 2 15 651 659 652
100 2 2 2 15 652 659 660
101 2 2 2 15 652 660 115
102 2 2 2 15 115 660 114
103 2 2 2 15 127 128 653
104 2 2 2 15 653 128 661
105 2 2 2 15 653 661 654
106 2 2 2 15 654 661 662
107 2 2 2 15 654 662 655
108 2 2 2 15 655 662 663
109 2 2 2 15 655 663 656
110 2 2 2 15 656 663 664
111 2 2 2 15 656 664 657
112 2 2 2 15 657 664 665
113 2 2 2 15 657 665 658
114 2 2 2 15 658 665 666
115 2 2 2 15 658 666 659
116 2 2 2 15 659 666 667
117 2 2 2 15 659 667 660
118 2 2 2 15 660 667 668
119 2 2 2 15 660 668 114
120 2 2 2 15 114 668 113
121 2 2 2 15 128 129 661
122 2 2 2 15 661 129 669
123 2 2 2 15 661 669 662
124 2 2 2 15 662 669 670
125 2 2 2 15 662 670 663
126 2 2 2 15 663 670 671
127 2 2 2 15 663 671 664
128 2 2 2 15 664 671 672
129 2 2 2 15 664 672 665
130 2 2 2 15 665 672 673
131 2 2 2 15 665 673 666
132 2 2 2 15 666 673 674
133 2 2 2 15 666 674 667
134 2 2 2 15 667 674 675
135 2 2 2 15 667 675 668
136 2 2 2 15 668 675 676
137 2 2 2 15 668 676 113
138 2 2 2 15 113 676 112
139 2 2 2 15 129 130 669
140 2 2 2 15 669 130 677
141 2 2 2 15 669 677 670
142 2 2 2 15 670 677 678
143 2 2 2 15 670 678 671
144 2 2 2 15 671 678 679
145 2 2 2 15 671 679 672
146 2 2 2 15 672 679 680
147 2 2 2 15 672 680 673
148 2 2 2 15 673 680 681
149 2 2 2 15 673 681 674
150 2 2 2 15 674 681 682
151 2 2 2 15 674 682 675
152 2 2 2 15 675 682 683
153 2 2 2 15 675 683 676
154 2 2 2 15 676 683 684
155 2 2 2 15 676 684 112
156 2 2 2 15 112 684 111
157 2 2 2 15 130 131 677
158 2 2 2 15 677 131 685
159 2 2 2 15 677 685 678
160 2 2 2 15 678 685 686
161 2 2 2 15 678 686 679
162 2 2 2 15 679 686 687
163 2 2 2 15 679 687 680
164 2 2 2 15 680 687 688
165 2 2 2 15 680 688 681
166 2 2 2 15 681 688 689
167 2 2 2 15 681 689 682
168 2 2 2 15 682 689 690
169 2 2 2 15 682 690 683
170 2 2 2 15 683 690 691
171 2 2 2 15 683 691 684
172 2 2 2 15 684 691 692
173 2 2 2 15 684 692 111
174 2 2 2 15 111 692 110
175 2 2 2 15 131 132 685
176 2 2 2 15 685 132 693
177 2 2 2 15 685 693 686
178 2 2 2 15 686 693 694
179 2 2 2 15 686 694 687
180 2 2 2 15 687 694 695
181 2 2 2 15 687 695 688
182 2 2 2 15 688 695 696
183 2 2 2 15 688 696 689
184 2 2 2 15 689 696 697
185 2 2 2 15 689 697 690
186 2 2 2 15 690 697 698
187 2 2 2 15 690 698 691
188 2 2 2 15 691 698 699
189 2 2 2 15 691 699 692
190 2 2 2 15 692 699 700
191 2 2 2 15 692 700 110
192 2 2 2 15 110 700 109
193 2 2 2 15 132 8 693
194 2 2 2 15 693 8 101
195 2 2 2 15 693 101 694
196 2 2 2 15 694 101 102
197 2 2 2 15 694 102 695
198 2 2 2 15 695 102 103
199 2 2 2 15 695 103 696
200 2 2 2 15 696 103 104
201 2 2 2 15 696 104 697
202 2 2 2 15 697 104 105
203 2 2 2 15 697 105 698
204 2 2 2 15 698 105 106
205 2 2 2 15 698 106 699
206 2 2 2 15 699 106 107
207 2 2 2 15 699 107 700
208 2 2 2 15 700 107 108
209 2 2 2 15 700 108 109
210 2 2 2 15 109 108 10
211 3 2 1 1 1 11 133 85
212 3 2 6 1 1 11 133 85
213 3 2 1 1 85 133 134 86
214 3 2 6 1 85 133 134 86
215 3 2 1 1 86 134 135 87
216 3 2 6 1 86 134 135 87
217 3 2 1 1 87 135 136 88
218 3 2 6 1 87 135 136 88
219 3 2 1 1 88 136 137 5
220 3 2 6 1 88 136 137 5
221 3 2 1 1 5 137 138 89
222 3 2 6 1 5 137 138 89
223 3 2 1 1 89 138 139 90
224 3 2 6 1 89 138 139 90
225 3 2 1 1 90 139 140 91
226 3 2 6 1 90 139 140 91
227 3 2 1 1 91 140 141 92
228 3 2 6 1 91 140 141 92
229 3 2 1 1 92 141 142 6
230 3 2 6 1 92 141 142 6
231 3 2 1 1 6 142 143 93
232 3 2 6 1 6 142 143 93
233 3 2 1 1 93 143 144 94
234 3 2 6 1 93 143 144 94
235 3 2 1 1 94 144 145 95
236 3 2 6 1 94 144 145 95
237 3 2 1 1 95 145 146 96
238 3 2 6 1 95 145 146 96
239 3 2 1 1 96 146 147 97
240 3 2 6 1 96 146 147 97
241 3 2 1 1 97 147 148 98
242 3 2 6 1 97 147 148 98
243 3 2 1 1 98 148 149 99
244 3 2 6 1 98 148 149 99
245 3 2 1 1 99 149 150 100
246 3 2 6 1 99 149 150 100
247 3 2 1 1 100 150 84 4
248 3 2 6 1 100 150 84 4
249 3 2 1 1 11 12 151 133
250 3 2 6 1 11 12 151 133
251 3 2 1 1 133 151 152 134
252 3 2 6 1 133 151 152 134
253 3 2 1 1 134 152 153 135
254 3 2 6 1 134 152 153 135
255 3 2 1 1 135 153 154 136
256 3 2 6 1 135 153 154 136
257 3 2 1 1 136 154 155 137
258 3 2 6 1 136 154 155 137
259 3 2 1 1 137 155 156 138
260 3 2 6 1 137 155 156 138
261 3 2 1 1 138 156 157 139
262 3 2 6 1 138 156 157 139
263 3 2 1 1 139 157 158 140
264 3 2 6 1 139 157 158 140
265 3 2 1 1 140 158 159 141
266 3 2 6 1 140 158 159 141
267 3 2 1 1 141 159 160 142
268 3 2 6 1 141 159 160 142
269 3 2 1 1 142 160 161 143
270 3 2 6 1 142 160 161 143
271 3 2 1 1 143 161 162 144
272 3 2 6 1 143 161 162 144
273 3 2 1 1 144 162 163 145
274 3 2 6 1 144 162 163 145
275 3 2 1 1 145 163 164 146
276 3 2 6 1 145 163 164 146
277 3 2 1 1 146 164 165 147
278 3 2 6 1 146 164 165 147
279 3 2 1 1 147 165 166 148
280 3 2 6 1 147 165 166 148
281 3 2 1 1 148 166 167 149
282 3 2 6 1 148 166 167 149
283 3 2 1 1 149 167 168 150
284 3 2 6 1 149 167 168 150
285 3 2 1 1 150 168 83 84
286 3 2 6 1 150 168 83 84
287 3 2 1 1 12 13 169 151
288 3 2 6 1 12 13 169 151
289 3 2 1 1 151 169 170 152
290 3 2 6 1 151 169 170 152
291 3 2 1 1 152 170 171 153
292 3 2 6 1 152 170 171 153
293 3 2 1 1 153 171 172 154
294 3 2 6 1 153 171 172 154
295 3 2 1 1 154 172 173 155
296 3 2 6 1 154 172 173 155
297 3 2 1 1 155 173 174 156
298 3 2 6 1 155 173 174 156
299 3 2 1 1 156 174 175 157
300 3 2 6 1 156 174 175 157
301 3 2 1 1 157 175 176 158
302 3 2 6 1 157 175 176 158
303 3 2 1 1 158 176 177 159
304 3 2 6 1 158 176 177 159
305 3 2 1 1 159 177 178 160
306 3 2 6 1 159 177 178 160
307 3 2 1 1 160 178 179 161
308 3 2 6 1 160 178 179 161
309 3 2 1 1 161 179 180 162
310 3 2 6 1 161 179 180 162
311 3 2 1 1 162 180 181 163
312 3 2 6 1 162 180 181 163
313 3 2 1 1 163 181 182 164
314 3 2 6 1 163 181 182 164
315 3 2 1 1 164 182 183 165
316 3 2 6 1 164 182 183 165
317 3 2 1 1 165 183 184 166
318 3 2 6 1 165 183 184 166
319 3 2 1 1 166 184 185 167
320 3 2 6 1 166 184 185 167
321 3 2 1 1 167 185 186 168
322 3 2 6 1 167 185 186 168
323 3 2 1 1 168 186 82 83
324 3 2 6 1 168 186 82 83
325 3 2 1 1 13 14 187 169
326 3 2 6 1 13 14 187 169
327 3 2 1 1 169 187 188 170
328 3 2 6 1 169 187 188 170
329 3 2 1 1 170 188 189 171
330 3 2 6 1 170 188 189 171
331 3 2 1 1 171 189 190 172
332 3 2 6 1 171 189 190 172
333 3 2 1 1 172 190 191 173
334 3 2 6 1 172 190 191 173
335 3 2 1 1 173 191 192 174
336 3 2 6 1 173 191 192 174
337 3 2 1 1 174 192 193 175
338 3 2 6 1 174 192 193 175
339 3 2 1 1 175 193 194 176
340 3 2 6 1 175 193 194 176
341 3 2 1 1 176 194 195 177
342 3 2 6 1 176 194 195 177
343 3 2 1 1 177 195 196 178
344 3 2 6 1 177 195 196 178
345 3 2 1 1 178 196 197 179
346 3 2 6 1 178 196 197 179
347 3 2 1 1 179 197 198 180
348 3 2 6 1 179 197 198 180
349 3 2 1 1 180 198 199 181
350 3 2 6 1 180 198 199 181
351 3 2 1 1 181 199 200 182
352 3 2 6 1 181 199 200 182
353 3 2 1 1 182 200 201 183
354 3 2 6 1 182 200 201 183
355 3 2 1 1 183 201 202 184
356 3 2 6 1 183 201 202 184
357 3 2 1 1 184 202 203 185
358 3 2 6 1 184 202 203 185
359 3 2 1 1 185 203 204 186
360 3 2 6 1 185 203 204 186
361 3 2 1 1 186 204 81 82
362 3 2 6 1 186 204 81 82
363 3 2 1 1 14 15 205 187
364 3 2 6 1 14 15 205 187
365 3 2 1 1 187 205 206 188
366 3 2 6 1 187 205 206 188
367 3 2 1 1 188 206 207 189
368 3 2 6 1 188 206 207 189
369 3 2 1 1 189 207 208 190
370 3 2 6 1 189 207 208 190
371 3 2 1 1 190 208 209 191
372 3 2 6 1 190 208 209 191
373 3 2 1 1 191 209 210 192
374 3 2 6 1 191 209 210 192
375 3 2 1 1 192 210 211 193
376 3 2 6 1 192 210 211 193
377 3 2 1 1 193 211 212 194
378 3 2 6 1 193 211 212 194
379 3 2 1 1 194 212 213 195
380 3 2 6 1 194 212 213 195
381 3 2 1 1 195 213 214 196
382 3 2 6 1 195 213 214 196
383 3 2 1 1 196 214 215 197
384 3 2 6 1 196 214 215 197
385 3 2 1 1 197 215 216 198
386 3 2 6 1 197 215 216 198
387 3 2 1 1 198 216 217 199
388 3 2 6 1 198 216 217 199
389 3 2 1 1 199 217 218 200
390 3 2 6 1 199 217 218 200
391 3 2 1 1 200 218 219 201
392 3 2 6 1 200 218 219 201
393 3 2 1 1 201 219 220 202
394 3 2 6 1 201 219 220 202
395 3 2 1 1 202 220 221 203
396 3 2 6 1 202 220 221 203
397 3 2 1 1 203 221 222 204
398 3 2 6 1 203 221 222 204
399 3 2 1 1 204 222 80 81
400 3 2 6 1 204 222 80 81
401 3 2 1 1 15 16 223 205
402 3 2 6 1 15 16 223 205
403 3 2 1 1 205 223 224 206
404 3 2 6 1 205 223 224 206
405 3 2 1 1 206 224 225 207
406 3 2 6 1 206 224 225 207
407 3 2 1 1 207 225 226 208
408 3 2 6 1 207 225 226 208
409 3 2 1 1 208 226 227 209
410 3 2 6 1 208 226 227 209
411 3 2 1 1 209 227 228 210
412 3 2 6 1 209 227 228 210
413 3 2 1 1 210 228 229 211
414 3 2 6 1 210 228 229 211
415 3 2 1 1 211 229 230 212
416 3 2 6 1 211 229 230 212
417 3 2 1 1 212 230 231 213
418 3 2 6 1 212 230 231 213
419 3 2 1 1 213 231 232 214
420 3 2 6 1 213 231 232 214
421 3 2 1 1 214 232 233 215
422 3 2 6 1 214 232 233 215
423 3 2 1 1 215 233 234 216
424 3 2 6 1 215 233 234 216
425 3 2 1 1 216 234 235 217
426 3 2 6 1 216 234 235 217
427 3 2 1 1 217 235 236 218
428 3 2 6 1 217 235 236 218
429 3 2 1 1 218 236 237 219
430 3 2 6 1 218 236 237 219
431 3 2 1 1 219 237 238 220
432 3 2 6 1 219 237 238 220
433 3 2 1 1 220 238 239 221
434 3 2 6 1 220 238 239 221
435 3 2 1 1 221 239 240 222
436 3 2 6 1 221 239 240 222
437 3 2 1 1 222 240 79 80
438 3 2 6 1 222 240 79 80
439 3 2 1 1 16 17 241 223
440 3 2 6 1 16 17 241 223
441 3 2 1 1 223 241 242 224
442 3 2 6 1 223 241 242 224
443 3 2 1 1 224 242 243 225
444 3 2 6 1 224 242 243 225
445 3 2 1 1 225 243 244 226
446 3 2 6 1 225 243 244 226
447 3 2 1 1 226 244 245 227
448 3 2 6 1 226 244 245 227
449 3 2 1 1 227 245 246 228
450 3 2 6 1 227 245 246 228
451 3 2 1 1 228 246 247 229
452 3 2 6 1 228 246 247 229
453 3 2 1 1 229 247 248 230
454 3 2 6 1 229 247 248 230
455 3 2 1 1 230 248 249 231
456 3 2 6 1 230 248 249 231
457 3 2 1 1 231 249 250 232
458 3 2 6 1 231 249 250 232
459 3 2 1 1 232 250 251 233
460 3 2 6 1 232 250 251 233
461 3 2 1 1 233 251 252 234
462 3 2 6 1 233 251 252 234
463 3 2 1 1 234 252 253 235
464 3 2 6 1 234 252 253 235
465 3 2 1 1 235 253 254 236
466 3 2 6 1 235 253 254 236
467 3 2 1 1 236 254 255 237
468 3 2 6 1 236 254 255 237
469 3 2 1 1 237 255 256 238
470 3 2 6 1 237 255 256 238
471 3 2 1 1 238 256 257 239
472 3 2 6 1 238 256 257 239
473 3 2 1 1 239 257 258 240
474 3 2 6 1 239 257 258 240
475 3 2 1 1 240 258 78 79
476 3 2 6 1 240 258 78 79
477 3 2 1 1 17 18 259 241
478 3 2 6 1 17 18 259 241
479 3 2 1 1 241 259 260 242
480 3 2 6 1 241 259 260 242
481 3 2 1 1 242 260 261 243
482 3 2 6 1 242 260 261 243
483 3 2 1 1 243 261 262 244
484 3 2 6 1 243 261 262 244
485 3 2 1 1 244 262 263 245
486 3 2 6 1 244 262 263 245
487 3 2 1 1 245 263 264 246
488 3 2 6 1 245 263 264 246
489 3 2 1 1 246 264 265 247
490 3 2 6 1 246 264 265 247
491 3 2 1 1 247 265 266 248
492 3 2 6 1 247 265 266 248
493 3 2 1 1 248 266 267 249
494 3 2 6 1 248 266 267 249
495 3 2 1 1 249 267 268 250
496 3 2 6 1 249 267 268 250
497 3 2 1 1 250 268 269 251
498 3 2 6 1 250 268 269 251
499 3 2 1 1 251 269 270 252
500 3 2 6 1 251 269 270 252
501 3 2 1 1 252 270 271 253
502 3 2 6 1 252 270 271 253
503 3 2 1 1 253 271 272 254
504 3 2 6 1 253 271 272 254
505 3 2 1 1 254 272 273 255
506 3 2 6 1 254 272 273 255
507 3 2 1 1 255 273 274 256
508 3 2 6 1 255 273 274 256
509 3 2 1 1 256 274 275 257
510 3 2 6 1 256 274 275 257
511 3 2 1 1 257 275 276 258
512 3 2 6 1 257 275 276 258
513 3 2 1 1 258 276 77 78
514 3 2 6 1 258 276 77 78
515 3 2 1 1 18 19 277 259
516 3 2 6 1 18 19 277 259
517 3 2 1 1 259 277 278 260
518 3 2 6 1 259 277 278 260
519 3 2 1 1 260 278 279 261
520 3 2 6 1 260 278 279 261
521 3 2 1 1 261 279 280 262
522 3 2 6 1 261 279 280 262
523 3 2 1 1 262 280 281 263
524 3 2 6 1 262 280 281 263
525 3 2 1 1 263 281 282 264
526 3 2 6 1 263 281 282 264
527 3 2 1 1 264 282 283 265
528 3 2 6 1 264 282 283 265
529 3 2 1 1 265 283 284 266
530 3 2 6 1 265 283 284 266
531 3 2 1 1 266 284 285 267
532 3 2 6 1 266 284 285 267
533 3 2 1 1 267 285 286 268
534 3 2 6 1 267 285 286 268
535 3 2 1 1 268 286 287 269
536 3 2 6 1 268 286 287 269
537 3 2 1 1 269 287 288 270
538 3 2 6 1 269 287 288 270
539 3 2 1 1 270 288 289 271
540 3 2 6 1 270 288 289 271
541 3 2 1 1 271 289 290 272
542 3 2 6 1 271 289 290 272
543 3 2 1 1 272 290 291 273
544 3 2 6 1 272 290 291 273
545 3 2 1 1 273 291 292 274
546 3 2 6 1 273 291 292 274
547 3 2 1 1 274 292 293 275
548 3 2 6 1 274 292 293 275
549 3 2 1 1 275 293 294 276
550 3 2 6 1 275 293 294 276
551 3 2 1 1 276 294 76 77
552 3 2 6 1 276 294 76 77
553 3 2 1 1 19 20 295 277
554 3 2 6 1 19 20 295 277
555 3 2 1 1 277 295 296 278
556 3 2 6 1 277 295 296 278
557 3 2 1 1 278 296 297 279
558 3 2 6 1 278 296 297 279
559 3 2 1 1 279 297 298 280
560 3 2 6 1 279 297 298 280
561 3 2 1 1 280 298 299 281
562 3 2 6 1 280 298 299 281
563 3 2 1 1 281 299 300 282
564 3 2 6 1 281 299 300 282
565 3 2 1 1 282 300 301 283
566 3 2 6 1 282 300 301 283
567 3 2 1 1 283 301 302 284
568 3 2 6 1 283 301 302 284
569 3 2 1 1 284 302 303 285
570 3 2 6 1 284 302 303 285
571 3 2 1 1 285 303 304 286
572 3 2 6 1 285 303 304 286
573 3 2 1 1 286 304 305 287
574 3 2 6 1 286 304 305 287
575 3 2 1 1 287 305 306 288
576 3 2 6 1 287 305 306 288
577 3 2 1 1 288 306 307 289
578 3 2 6 1 288 306 307 289
579 3 2 1 1 289 307 308 290
580 3 2 6 1 289 307 308 290
581 3 2 1 1 290 308 309 291
582 3 2 6 1 290 308 309 291
583 3 2 1 1 291 309 310 292
584 3 2 6 1 291 309 310 292
585 3 2 1 1 292 310 311 293
586 3 2 6 1 292 310 311 293
587 3 2 1 1 293 311 312 294
588 3 2 6 1 293 311 312 294
589 3 2 1 1 294 312 75 76
590 3 2 6 1 294 312 75 76
591 3 2 1 1 20 21 313 295
592 3 2 6 1 20 21 313 295
593 3 2 1 1 295 313 314 296
594 3 2 6 1 295 313 314 296
595 3 2 1 1 296 314 315 297
596 3 2 6 1 296 314 315 297
597 3 2 1 1 297 315 316 298
598 3 2 6 1 297 315 316 298
599 3 2 1 1 298 316 317 299
600 3 2 6 1 298 316 317 299
601 3 2 1 1 299 317 318 300
602 3 2 6 1 299 317 318 300
603 3 2 1 1 300 318 319 301
604 3 2 6 1 300 318 319 301
605 3 2 1 1 301 319 320 302
606 3 2 6 1 301 319 320 302
607 3 2 1 1 302 320 321 303
608 3 2 6 1 302 320 321 303
609 3 2 1 1 303 321 322 304
610 3 2 6 1 303 321 322 304
611 3 2 1 1 304 322 323 305
612 3 2 6 1 304 322 323 305
613 3 2 1 1 305 323 324 306
614 3 2 6 1 305 323 324 306
615 3 2 1 1 306 324 325 307
616 3 2 6 1 306 324 325 307
617 3 2 1 1 307 325 326 308
618 3 2 6 1 307 325 326 308
619 3 2 1 1 308 326 327 309
620 3 2 6 1 308 326 327 309
621 3 2 1 1 309 327 328 310
622 3 2 6 1 309 327 328 310
623 3 2 1 1 310 328 329 311
624 3 2 6 1 310 328 329 311
625 3 2 1 1 311 329 330 312
626 3 2 6 1 311 329 330 312
627 3 2 1 1 312 330 74 75
628 3 2 6 1 312 330 74 75
629 3 2 1 1 21 22 331 313
630 3 2 6 1 21 22 331 313
631 3 2 1 1 313 331 332 314
632 3 2 6 1 313 331 332 314
633 3 2 1 1 314 332 333 315
634 3 2 6 1 314 332 333 315
635 3 2 1 1 315 333 334 316
636 3 2 6 1 315 333 334 316
637 3 2 1 1 316 334 335 317
638 3 2 6 1 316 334 335 317
639 3 2 1 1 317 335 336 318
640 3 2 6 1 317 335 336 318
641 3 2 1 1 318 336 337 319
642 3 2 6 1 318 336 337 319
643 3 2 1 1 319 337 338 320
644 3 2 6 1 319 337 338 320
645 3 2 1 1 320 338 339 321
646 3 2 6 1 320 338 339 321
647 3 2 1 1 321 339 340 322
648 3 2 6 1 321 339 340 322
649 3 2 1 1 322 340 341 323
650 3 2 6 1 322 340 341 323
651 3 2 1 1 323 341 342 324
652 3 2 6 1 323 341 342 324
653 3 2 1 1 324 342 343 325
654 3 2 6 1 324 342 343 325
655 3 2 1 1 325 343 344 326
656 3 2 6 1 325 343 344 326
657 3 2 1 1 326 344 345 327
658 3 2 6 1 326 344 345 327
659 3 2 1 1 327 345 346 328
660 3 2 6 1 327 345 346 328
661 3 2 1 1 328 346 347 329
662 3 2 6 1 328 346 347 329
663 3 2 1 1 329 347 348 330
664 3 2 6 1 329 347 348 330
665 3 2 1 1 330 348 73 74
666 3 2 6 1 330 348 73 74
667 3 2 1 1 22 23 349 331
668 3 2 6 1 22 23 349 331
669 3 2 1 1 331 349 350 332
670 3 2 6 1 331 349 350 332
671 3 2 1 1 332 350 351 333
672 3 2 6 1 332 350 351 333
673 3 2 1 1 333 351 352 334
674 3 2 6 1 333 351 352 334
675 3 2 1 1 334 352 353 335
676 3 2 6 1 334 352 353 335
677 3 2 1 1 335 353 354 336
678 3 2 6 1 335 353 354 336
679 3 2 1 1 336 354 355 337
680 3 2 6 1 336 354 355 337
681 3 2 1 1 337 355 356 338
682 3 2 6 1 337 355 356 338
683 3 2 1 1 338 356 357 339
684 3 2 6 1 338 356 357 339
685 3 2 1 1 339 357 358 340
686 3 2 6 1 339 357 358 340
687 3 2 1 1 340 358 359 341
688 3 2 6 1 340 358 359 341
689 3 2 1 1 341 359 360 342
690 3 2 6 1 341 359 360 342
691 3 2 1 1 342 360 361 343
692 3 2 6 1 342 360 361 343
693 3 2 1 1 343 361 362 344
694 3 2 6 1 343 361 362 344
695 3 2 1 1 344 362 363 345
696 3 2 6 1 344 362 363 345
697 3 2 1 1 345 363 364 346
698 3 2 6 1 345 363 364 346
699 3 2 1 1 346 364 365 347
700 3 2 6 1 346 364 365 347
701 3 2 1 1 347 365 366 348
702 3 2 6 1 347 365 366 348
703 3 2 1 1 348 366 72 73
704 3 2 6 1 348 366 72 73
705 3 2 1 1 23 24 367 349
706 3 2 6 1 23 24 367 349
707 3 2 1 1 349 367 368 350
708 3 2 6 1 349 367 368 350
709 3 2 1 1 350 368 369 351
710 3 2 6 1 350 368 369 351
711 3 2 1 1 351 369 370 352
712 3 2 6 1 351 369 370 352
713 3 2 1 1 352 370 371 353
714 3 2 6 1 352 370 371 353
715 3 2 1 1 353 371 372 354
716 3 2 6 1 353 371 372 354
717 3 2 1 1 354 372 373 355
718 3 2 6 1 354 372 373 355
719 3 2 1 1 355 373 374 356
720 3 2 6 1 355 373 374 356
721 3 2 1 1 356 374 375 357
722 3 2 6 1 356 374 375 357
723 3 2 1 1 357 375 376 358
724 3 2 6 1 357 375 376 358
725 3 2 1 1 358 376 377 359
726 3 2 6 1 358 376 377 359
727 3 2 1 1 359 377 378 360
728 3 2 6 1 359 377 378 360
729 3 2 1 1 360 378 379 361
730 3 2 6 1 360 378 379 361
731 3 2 1 1 361 379 380 362
732 3 2 6 1 361 379 380 362
733 3 2 1 1 362 380 381 363
734 3 2 6 1 362 380 381 363
735 3 2 1 1 363 381 382 364
736 3 2 6 1 363 381 382 364
737 3 2 1 1 364 382 383 365
738 3 2 6 1 364 382 383 365
739 3 2 1 1 365 383 384 366
740 3 2 6 1 365 383 384 366
741 3 2 1 1 366 384 71 72
742 3 2 6 1 366 384 71 72
743 3 2 1 1 24 25 385 367
744 3 2 6 1 24 25 385 367
745 3 2 1 1 367 385 386 368
746 3 2 6 1 367 385 386 368
747 3 2 1 1 368 386 387 369
748 3 2 6 1 368 386 387 369
749 3 2 1 1 369 387 388 370
750 3 2 6 1 369 387 388 370
751 3 2 1 1 370 388 389 371
752 3 2 6 1 370 388 389 371
753 3 2 1 1 371 389 390 372
754 3 2 6 1 371 389 390 372
755 3 2 1 1 372 390 391 373
756 3 2 6 1 372 390 391 373
757 3 2 1 1 373 391 392 374
758 3 2 6 1 373 391 392 374
759 3 2 1 1 374 392 393 375
760 3 2 6 1 374 392 393 375
761 3 2 1 1 375 393 394 376
762 3 2 6 1 375 393 394 376
763 3 2 1 1 376 394 395 377
764 3 2 6 1 376 394 395 377
765 3 2 1 1 377 395 396 378
766 3 2 6 1 377 395 396 378
767 3 2 1 1 378 396 397 379
768 3 2 6 1 378 396 397 379
769 3 2 1 1 379 397 398 380
770 3 2 6 1 379 397 398 380
771 3 2 1 1 380 398 399 381
772 3 2 6 1 380 398 399 381
773 3 2 1 1 381 399 400 382
774 3 2 6 1 381 399 400 382
775 3 2 1 1 382 400 401 383
776 3 2 6 1 382 400 401 383
777 3 2 1 1 383 401 402 384
778 3 2 6 1 383 401 402 384
779 3 2 1 1 384 402 70 71
780 3 2 6 1 384 402 70 71
781 3 2 1 1 25 26 403 385
782 3 2 6 1 25 26 403 385
783 3 2 1 1 385 403 404 386
784 3 2 6 1 385 403 404 386
785 3 2 1 1 386 404 405 387
786 3 2 6 1 386 404 405 387
787 3 2 1 1 387 405 406 388
788 3 2 6 1 387 405 406 388
789 3 2 1 1 388 406 407 389
790 3 2 6 1 388 406 407 389
791 3 2 1 1 389 407 408 390
792 3 2 6 1 389 407 408 390
793 3 2 1 1 390 408 409 391
794 3 2 6 1 390 408 409 391
795 3 2 1 1 391 409 410 392
796 3 2 6 1 391 409 410 392
797 3 2 1 1 392 410 411 393
798 3 2 6 1 392 410 411 393
799 3 2 1 1 393 411 412 394
800 3 2 6 1 393 411 412 394
801 3 2 1 1 394 412 413 395
802 3 2 6 1 394 412 413 395
803 3 2 1 1 395 413 414 396
804 3 2 6 1 395 413 414 396
805 3 2 1 1 396 414 415 397
806 3 2 6 1 396 414 415 397
807 3 2 1 1 397 415 416 398
808 3 2 6 1 397 415 416 398
809 3 2 1 1 398 416 417 399
810 3 2 6 1 398 416 417 399
811 3 2 1 1 399 417 418 400
812 3 2 6 1 399 417 418 400
813 3 2 1 1 400 418 419 401
814 3 2 6 1 400 418 419 401
815 3 2 1 1 401 419 420 402
816 3 2 6 1 401 419 420 402
817 3 2 1 1 402 420 69 70
818 3 2 6 1 402 420 69 70
819 3 2 1 1 26 27 421 403
820 3 2 6 1 26 27 421 403
821 3 2 1 1 403 421 422 404
822 3 2 6 1 403 421 422 404
823 3 2 1 1 404 422 423 405
824 3 2 6 1 404 422 423 405
825 3 2 1 1 405 423 424 406
826 3 2 6 1 405 423 424 406
827 3 2 1 1 406 424 425 407
828 3 2 6 1 406 424 425 407
829 3 2 1 1 407 425 426 408
830 3 2 6 1 407 425 426 408
831 3 2 1 1 408 426 427 409
832 3 2 6 1 408 426 427 409
833 3 2 1 1 409 427 428 410
834 3 2 6 1 409 427 428 410
835 3 2 1 1 410 428 429 411
836 3 2 6 1 410 428 429 411
837 3 2 1 1 411 429 430 412
838 3 2 6 1 411 429 430 412
839 3 2 1 1 412 430 431 413
840 3 2 6 1 412 430 431 413
841 3 2 1 1 413 431 432 414
842 3 2 6 1 413 431 432 414
843 3 2 1 1 414 432 433 415
844 3 2 6 1 414 432 433 415
845 3 2 1 1 415 433 434 416
846 3 2 6 1 415 433 434 416
847 3 2 1 1 416 434 435 417
848 3 2 6 1 416 434 435 417
849 3 2 1 1 417 435 436 418
850 3 2 6 1 417 435 436 418
851 3 2 1 1 418 436 437 419
852 3 2 6 1 418 436 437 419
853 3 2 1 1 419 437 438 420
854 3 2 6 1 419 437 438 420
855 3 2 1 1 420 438 68 69
856 3 2 6 1 420 438 68 69
857 3 2 1 1 27 28 439 421
858 3 2 6 1 27 28 439 421
859 3 2 1 1 421 439 440 422
860 3 2 6 1 421 439 440 422
861 3 2 1 1 422 440 441 423
862 3 2 6 1 422 440 441 423
863 3 2 1 1 423 441 442 424
864 3 2 6 1 423 441 442 424
865 3 2 1 1 424 442 443 425
866 3 2 6 1 424 442 443 425
867 3 2 1 1 425 443 444 426
868 3 2 6 1 425 443 444 426
869 3 2 1 1 426 444 445 427
870 3 2 6 1 426 444 445 427
871 3 2 1 1 427 445 446 428
872 3 2 6 1 427 445 446 428
873 3 2 1 1 428 446 447 429
874 3 2 6 1 428 446 447 429
875 3 2 1 1 429 447 448 430
876 3 2 6 1 429 447 448 430
877 3 2 1 1 430 448 449 431
878 3 2 6 1 430 448 449 431
879 3 2 1 1 431 449 450 432
880 3 2 6 1 431 449 450 432
881 3 2 1 1 432 450 451 433
882 3 2 6 1 432 450 451 433
883 3 2 1 1 433 451 452 434
884 3 2 6 1 433 451 452 434
885 3 2 1 1 434 452 453 435
886 3 2 6 1 434 452 453 435
887 3 2 1 1 435 453 454 436
888 3 2 6 1 435 453 454 436
889 3 2 1 1 436 454 455 437
890 3 2 6 1 436 454 455 437
891 3 2 1 1 437 455 456 438
892 3 2 6 1 437 455 456 438
893 3 2 1 1 438 456 67 68
894 3 2 6 1 438 456 67 68
895 3 2 1 1 28 29 457 439
896 3 2 6 1 28 29 457 439
897 3 2 1 1 439 457 458 440
898 3 2 6 1 439 457 458 440
899 3 2 1 1 440 458 459 441
900 3 2 6 1 440 458 459 441
901 3 2 1 1 441 459 460 442
902 3 2 6 1 441 459 460 442
903 3 2 1 1 442 460 461 443
904 3 2 6 1 442 460 461 443
905 3 2 1 1 443 461 462 444
906 3 2 6 1 443 461 462 444
907 3 2 1 1 444 462 463 445
908 3 2 6 1 444 462 463 445
909 3 2 1 1 445 463 464 446
910 3 2 6 1 445 463 464 446
911 3 2 1 1 446 464 465 447
912 3 2 6 1 446 464 465 447
913 3 2 1 1 447 465 466 448
914 3 2 6 1 447 465 466 448
915 3 2 1 1 448 466 467 449
916 3 2 6 1 448 466 467 449
917 3 2 1 1 449 467 468 450
918 3 2 6 1 449 467 468 450
919 3 2 1 1 450 468 469 451
920 3 2 6 1 450 468 469 451
921 3 2 1 1 451 469 470 452
922 3 2 6 1 451 469 470 452
923 3 2 1 1 452 470 471 453
924 3 2 6 1 452 470 471 453
925 3 2 1 1 453 471 472 454
926 3 2 6 1 453 471 472 454
927 3 2 1 1 454 472 473 455
928 3 2 6 1 454 472 473 455
929 3 2 1 1 455 473 474 456
930 3 2 6 1 455 473 474 456
931 3 2 1 1 456 474 66 67
932 3 2 6 1 456 474 66 67
933 3 2 1 1 29 30 475 457
934 3 2 6 1 29 30 475 457
935 3 2 1 1 457 475 476 458
936 3 2 6 1 457 475 476 458
937 3 2 1 1 458 476 477 459
938 3 2 6 1 458 476 477 459
939 3 2 1 1 459 477 478 460
940 3 2 6 1 459 477 478 460
941 3 2 1 1 460 478 479 461
942 3 2 6 1 460 478 479 461
943 3 2 1 1 461 479 480 462
944 3 2 6 1 461 479 480 462
945 3 2 1 1 462 480 481 463
946 3 2 6 1 462 480 481 463
947 3 2 1 1 463 481 482 464
948 3 2 6 1 463 481 482 464
949 3 2 1 1 464 482 483 465
950 3 2 6 1 464 482 483 465
951 3 2 1 1 465 483 484 466
952 3 2 6 1 465 483 484 466
953 3 2 1 1 466 484 485 467
954 3 2 6 1 466 484 485 467
955 3 2 1 1 467 485 486 468
956 3 2 6 1 467 485 486 468
957 3 2 1 1 468 486 487 469
958 3 2 6 1 468 486 487 469
959 3 2 1 1 469 487 488 470
960 3 2 6 1 469 487 488 470
961 3 2 1 1 470 488 489 471
962 3 2 6 1 470 488 489 471
963 3 2 1 1 471 489 490 472
964 3 2 6 1 471 489 490 472
965 3 2 1 1 472 490 491 473
966 3 2 6 1 472 490 491 473
967 3 2 1 1 473 491 492 474
968 3 2 6 1 473 491 492 474
969 3 2 1 1 474 492 65 66
970 3 2 6 1 474 492 65 66
971 3 2 1 1 30 31 493 475
972 3 2 6 1 30 31 493 475
973 3 2 1 1 475 493 494 476
974 3 2 6 1 475 493 494 476
975 3 2 1 1 476 494 495 477
976 3 2 6 1 476 494 495 477
977 3 2 1 1 477 495 496 478
978 3 2 6 1 477 495 496 478
979 3 2 1 1 478 496 497 479
980 3 2 6 1 478 496 497 479
981 3 2 1 1 479 497 498 480
982 3 2 6 1 479 497 498 480
983 3 2 1 1 480 498 499 481
984 3 2 6 1 480 498 499 481
985 3 2 1 1 481 499 500 482
986 3 2 6 1 481 499 500 482
987 3 2 1 1 482 500 501 483
988 3 2 6 1 482 500 501 483
989 3 2 1 1 483 501 502 484
990 3 2 6 1 483 501 502 484
991 3 2 1 1 484 502 503 485
992 3 2 6 1 484 502 503 485
993 3 2 1 1 485 503 504 486
994 3 2 6 1 485 503 504 486
995 3 2 1 1 486 504 505 487
996 3 2 6 1 486 504 505 487
997 3 2 1 1 487 505 506 488
998 3 2 6 1 487 505 506 488
999 3 2 1 1 488 506 507 489
1000 3 2 6 1 488 506 507 489
1001 3 2 1 1 489 507 508 490
1002 3 2 6 1 489 507 508 490
1003 3 2 1 1 490 508 509 491
1004 3 2 6 1 490 508 509 491
1005 3 2 1 1 491 509 510 492
1006 3 2 6 1 491 509 510 492
1007 3 2 1 1 492 510 64 65
1008 3 2 6 1 492 510 64 65
1009 3 2 1 1 31 32 511 493
1010 3 2 6 1 31 32 511 493
1011 3 2 1 1 493 511 512 494
1012 3 2 6 1 493 511 512 494
1013 3 2 1 1 494 512 513 495
1014 3 2 6 1 494 512 513 495
1015 3 2 1 1 495 513 514 496
1016 3 2 6 1 495 513 514 496
1017 3 2 1 1 496 514 515 497
1018 3 2 6 1 496 514 515 497
1019 3 2 1 1 497 515 516 498
1020 3 2 6 1 497 515 516 498
1021 3 2 1 1 498 516 517 499
1022 3 2 6 1 498 516 517 499
1023 3 2 1 1 499 517 518 500
1024 3 2 6 1 499 517 518 500
1025 3 2 1 1 500 518 519 501
1026 3 2 6 1 500 518 519 501
1027 3 2 1 1 501 519 520 502
1028 3 2 6 1 501 519 520 502
1029 3 2 1 1 502 520 521 503
1030 3 2 6 1 502 520 521 503
1031 3 2 1 1 503 521 522 504
1032 3 2 6 1 503 521 522 504
1033 3 2 1 1 504 522 523 505
1034 3 2 6 1 504 522 523 505
1035 3 2 1 1 505 523 524 506
1036 3 2 6 1 505 523 524 506
1037 3 2 1 1 506 524 525 507
1038 3 2 6 1 506 524 525 507
1039 3 2 1 1 507 525 526 508
1040 3 2 6 1 507 525 526 508
1041 3 2 1 1 508 526 527 509
1042 3 2 6 1 508 526 527 509
1043 3 2 1 1 509 527 528 510
1044 3 2 6 1 509 527 528 510
1045 3 2 1 1 510 528 63 64
1046 3 2 6 1 510 528 63 64
1047 3 2 1 1 32 33 529 511
1048 3 2 6 1 32 33 529 511
1049 3 2 1 1 511 529 530 512
1050 3 2 6 1 511 529 530 512
1051 3 2 1 1 512 530 531 513
1052 3 2 6 1 512 530 531 513
1053 3 2 1 1 513 531 532 514
1054 3 2 6 1 513 531 532 514
1055 3 2 1 1 514 532 533 515
1056 3 2 6 1 514 532 533 515
1057 3 2 1 1 515 533 534 516
1058 3 2 6 1 515 533 534 516
1059 3 2 1 1 516 534 535 517
1060 3 2 6 1 516 534 535 517
1061 3 2 1 1 517 535 536 518
1062 3 2 6 1 517 535 536 518
1063 3 2 1 1 518 536 537 519
1064 3 2 6 1 518 536 537 519
1065 3 2 1 1 519 537 538 520
1066 3 2 6 1 519 537 538 520
1067 3 2 1 1 520 538 539 521
1068 3 2 6 1 520 538 539 521
1069 3 2 1 1 521 539 540 522
1070 3 2 6 1 521 539 540 522
1071 3 2 1 1 522 540 541 523
1072 3 2 6 1 522 540 541 523
1073 3 2 1 1 523 541 542 524
1074 3 2 6 1 523 541 542 524
1075 3 2 1 1 524 542 543 525
1076 3 2 6 1 524 542 543 525
1077 3 2 1 1 525 543 544 526
1078 3 2 6 1 525 543 544 526
1079 3 2 1 1 526 544 545 527
1080 3 2 6 1 526 544 545 527
1081 3 2 1 1 527 545 546 528
1082 3 2 6 1 527 545 546 528
1083 3 2 1 1 528 546 62 63
1084 3 2 6 1 528 546 62 63
1085 3 2 1 1 33 34 547 529
1086 3 2 6 1 33 34 547 529
1087 3 2 1 1 529 547 548 530
1088 3 2 6 1 529 547 548 530
1089 3 2 1 1 530 548 549 531
1090 3 2 6 1 530 548 549 531
1091 3 2 1 1 531 549 550 532
1092 3 2 6 1 531 549 550 532
1093 3 2 1 1 532 550 551 533
1094 3 2 6 1 532 550 551 533
1095 3 2 1 1 533 551 552 534
1096 3 2 6 1 533 551 552 534
1097 3 2 1 1 534 552 553 535
1098 3 2 6 1 534 552 553 535
1099 3 2 1 1 535 553 554 536
1100 3 2 6 1 535 553 554 536
1101 3 2 1 1 536 554 555 537
1102 3 2 6 1 536 554 555 537
1103 3 2 1 1 537 555 556 538
1104 3 2 6 1 537 555 556 538
1105 3 2 1 1 538 556 557 539
1106 3 2 6 1 538 556 557 539
1107 3 2 1 1 539 557 558 540
1108 3 2 6 1 539 557 558 540
1109 3 2 1 1 540 558 559 541
1110 3 2 6 1 540 558 559 541
1111 3 2 1 1 541 559 560 542
1112 3 2 6 1 541 559 560 542
1113 3 2 1 1 542 560 561 543
1114 3 2 6 1 542 560 561 543
1115 3 2 1 1 543 561 562 544
1116 3 2 6 1 543 561 562 544
1117 3 2 1 1 544 562 563 545
1118 3 2 6 1 544 562 563 545
1119 3 2 1 1 545 563 564 546
1120 3 2 6 1 545 563 564 546
1121 3 2 1 1 546 564 61 62
1122 3 2 6 1 546 564 61 62
1123 3 2 1 1 34 35 565 547
1124 3 2 6 1 34 35 565 547
1125 3 2 1 1 547 565 566 548
1126 3 2 6 1 547 565 566 548
1127 3 2 1 1 548 566 567 549
1128 3 2 6 1 548 566 567 549
1129 3 2 1 1 549 567 568 550
1130 3 2 6 1 549 567 568 550
1131 3 2 1 1 550 568 569 551
1132 3 2 6 1 550 568 569 551
1133 3 2 1 1 551 569 570 552
1134 3 2 6 1 551 569 570 552
1135 3 2 1 1 552 570 571 553
1136 3 2 6 1 552 570 571 553
1137 3 2 1 1 553 571 572 554
1138 3 2 6 1 553 571 572 554
1139 3 2 1 1 554 572 573 555
1140 3 2 6 1 554 572 573 555
1141 3 2 1 1 555 573 574 556
1142 3 2 6 1 555 573 574 556
1143 3 2 1 1 556 574 575 557
1144 3 2 6 1 556 574 575 557
1145 3 2 1 1 557 575 576 558
1146 3 2 6 1 557 575 576 558
1147 3 2 1 1 558 576 577 559
1148 3 2 6 1 558 576 577 559
1149 3 2 1 1 559 577 578 560
1150 3 2 6 1 559 577 578 560
1151 3 2 1 1 560 578 579 561
1152 3 2 6 1 560 578 579 561
1153 3 2 1 1 561 579 580 562
1154 3 2 6 1 561 579 580 562
1155 3 2 1 1 562 580 581 563
1156 3 2 6 1 562 580 581 563
1157 3 2 1 1 563 581 582 564
1158 3 2 6 1 563 581 582 564
1159 3 2 1 1 564 582 60 61
1160 3 2 6 1 564 582 60 61
1161 3 2 1 1 35 36 583 565
1162 3 2 6 1 35 36 583 565
1163 3 2 1 1 565 583 584 566
1164 3 2 6 1 565 583 584 566
1165 3 2 1 1 566 584 585 567
1166 3 2 6 1 566 584 585 567
1167 3 2 1 1 567 585 586 568
1168 3 2 6 1 567 585 586 568
1169 3 2 1 1 568 586 587 569
1170 3 2 6 1 568 586 587 569
1171 3 2 1 1 569 587 588 570
1172 3 2 6 1 569 587 588 570
1173 3 2 1 1 570 588 589 571
1174 3 2 6 1 570 588 589 571
1175 3 2 1 1 571 589 590 572
1176 3 2 6 1 571 589 590 572
1177 3 2 1 1 572 590 591 573
1178 3 2 6 1 572 590 591 573
1179 3 2 1 1 573 591 592 574
1180 3 2 6 1 573 591 592 574
1181 3 2 1 1 574 592 593 575
1182 3 2 6 1 574 592 593 575
1183 3 2 1 1 575 593 594 576
1184 3 2 6 1 575 593 594 576
1185 3 2 1 1 576 594 595 577
1186 3 2 6 1 576 594 595 577
1187 3 2 1 1 577 595 596 578
1188 3 2 6 1 577 595 596 578
1189 3 2 1 1 578 596 597 579
1190 3 2 6 1 578 596 597 579
1191 3 2 1 1 579 597 598 580
1192 3 2 6 1 579 597 598 580
1193 3 2 1 1 580 598 599 581
1194 3 2 6 1 580 598 599 581
1195 3 2 1 1 581 599 600 582
1196 3 2 6 1 581 599 600 582
1197 3 2 1 1 582 600 59 60
1198 3 2 6 1 582 600 59 60
1199 3 2 1 1 36 37 601 583
1200 3 2 6 1 36 37 601 583
1201 3 2 1 1 583 601 602 584
1202 3 2 6 1 583 601 602 584
1203 3 2 1 1 584 602 603 585
1204 3 2 6 1 584 602 603 585
1205 3 2 1 1 585 603 604 586
1206 3 2 6 1 585 603 604 586
1207 3 2 1 1 586 604 605 587
1208 3 2 6 1 586 604 605 587
1209 3 2 1 1 587 605 606 588
1210 3 2 6 1 587 605 606 588
1211 3 2 1 1 588 606 607 589
1212 3 2 6 1 588 606 607 589
1213 3 2 1 1 589 607 608 590
1214 3 2 6 1 589 607 608 590
1215 3 2 1 1 590 608 609 591
1216 3 2 6 1 590 608 609 591
1217 3 2 1 1 591 609 610 592
1218 3 2 6 1 591 609 610 592
1219 3 2 1 1 592 610 611 593
1220 3 2 6 1 592 610 611 593
1221 3 2 1 1 593 611 612 594
1222 3 2 6 1 593 611 612 594
1223 3 2 1 1 594 612 613 595
1224 3 2 6 1 594 612 613 595
1225 3 2 1 1 595 613 614 596
1226 3 2 6 1 595 613 614 596
1227 3 2 1 1 596 614 615 597
1228 3 2 6 1 596 614 615 597
1229 3 2 1 1 597 615 616 598
1230 3 2 6 1 597 615 616 598
1231 3 2 1 1 598 616 617 599
1232 3 2 6 1 598 616 617 599
1233 3 2 1 1 599 617 618 600
1234 3 2 6 1 599 617 618 600
1235 3 2 1 1 600 618 58 59
1236 3 2 6 1 600 618 58 59
1237 3 2 1 1 37 38 619 601
1238 3 2 6 1 37 38 619 601
1239 3 2 1 1 601 619 620 602
1240 3 2 6 1 601 619 620 602
1241 3 2 1 1 602 620 621 603
1242 3 2 6 1 602 620 621 603
1243 3 2 1 1 603 621 622 604
1244 3 2 6 1 603 621 622 604
1245 3 2 1 1 604 622 623 605
1246 3 2 6 1 604 622 623 605
1247 3 2 1 1 605 623 624 606
1248 3 2 6 1 605 623 624 606
1249 3 2 1 1 606 624 625 607
1250 3 2 6 1 606 624 625 607
1251 3 2 1 1 607 625 626 608
1252 3 2 6 1 607 625 626 608
1253 3 2 1 1 608 626 627 609
1254 3 2 6 1 608 626 627 609
1255 3 2 1 1 609 627 628 610
1256 3 2 6 1 609 627 628 610
1257 3 2 1 1 610 628 629 611
1258 3 2 6 1 610 628 629 611
1259 3 2 1 1 611 629 630 612
1260 3 2 6 1 611 629 630 612
1261 3 2 1 1 612 630 631 613
1262 3 2 6 1 612 630 631 613
1263 3 2 1 1 613 631 632 614
1264 3 2 6 1 613 631 632 614
1265 3 2 1 1 614 632 633 615
1266 3 2 6 1 614 632 633 615
1267 3 2 1 1 615 633 634 616
1268 3 2 6 1 615 633 634 616
1269 3 2 1 1 616 634 635 617
1270 3 2 6 1 616 634 635 617
1271 3 2 1 1 617 635 636 618
1272 3 2 6 1 617 635 636 618
1273 3 2 1 1 618 636 57 58
1274 3 2 6 1 618 636 57 58
1275 3 2 1 1 38 2 56 619
1276 3 2 6 1 38 2 56 619
1277 3 2 1 1 619 56 55 620
1278 3 2 6 1 619 56 55 620
1279 3 2 1 1 620 55 54 621
1280 3 2 6 1 620 55 54 621
1281 3 2 1 1 621 54 53 622
1282 3 2 6 1 621 54 53 622
1283 3 2 1 1 622 53 52 623
1284 3 2 6 1 622 53 52 623
1285 3 2 1 1 623 52 51 624
1286 3 2 6 1 623 52 51 624
1287 3 2 1 1 624 51 50 625
1288 3 2 6 1 624 51 50 625
1289 3 2 1 1 625 50 49 626
1290 3 2 6 1 625 50 49 626
1291 3 2 1 1 626 49 48 627
1292 3 2 6 1 626 49 48 627
1293 3 2 1 1 627 48 47 628
1294 3 2 6 1 627 48 47 628
1295 3 2 1 1 628 47 46 629
1296 3 2 6 1 628 47 46 629
1297 3 2 1 1 629 46 45 630
1298 3 2 6 1 629 46 45 630
1299 3 2 1 1 630 45 44 631
1300 3 2 6 1 630 45 44 631
1301 3 2 1 1 631 44 43 632
1302 3 2 6 1 631 44 43 632
1303 3 2 1 1 632 43 42 633
1304 3 2 6 1 632 43 42 633
1305 3 2 1 1 633 42 41 634
1306 3 2 6 1 633 42 41 634
1307 3 2 1 1 634 41 40 635
1308 3 2 6 1 634 41 40 635
1309 3 2 1 1 635 40 39 636
1310 3 2 6 1 635 40 39 636
1311 3 2 1 1 636 39 3 57
1312 3 2 6 1 636 39 3 57
$EndElements
