$MeshFormat
4.1 0 8
$EndMeshFormat
$PhysicalNames
2
1 1 "CONTORNO"
2 2 "SURFACE"
$EndPhysicalNames
$Entities
4 4 1 0
1 0 0 0 0 
2 1 0 0 0 
3 1 1 0 0 
4 0 1 0 0 
1 0 0 0 1 0 0 1 1 2 1 -2 
2 1 0 0 1 1 0 1 1 2 2 -3 
3 0 1 0 1 1 0 1 1 2 3 -4 
4 0 0 0 0 1 0 1 1 2 4 -1 
1 0 0 0 1 1 0 1 2 4 4 1 2 3 
$EndEntities
$Nodes
9 9 1 9
0 1 0 1
1
0 0 0
0 2 0 1
2
1 0 0
0 3 0 1
3
1 1 0
0 4 0 1
4
0 1 0
1 1 0 1
5
0.499999999998694 0 0
1 2 0 1
6
1 0.499999999998694 0
1 3 0 1
7
0.5000000000020591 1 0
1 4 0 1
8
0 0.5000000000020591 0
2 1 0 1
9
0.5000000000003766 0.5000000000003766 0
$EndNodes
$Elements
5 16 1 16
1 1 1 2
1 1 5 
2 5 2 
1 2 1 2
3 2 6 
4 6 3 
1 3 1 2
5 3 7 
6 7 4 
1 4 1 2
7 4 8 
8 8 1 
2 1 2 8
9 4 8 7 
10 7 8 9 
11 7 9 3 
12 3 9 6 
13 8 1 9 
14 9 1 5 
15 9 5 6 
16 6 5 2 
$EndElements
